<?xml version="1.0" standalone="no"?>
<!DOCTYPE svg PUBLIC "-//W3C//DTD SVG 1.1//EN" "http://www.w3.org/Graphics/SVG/1.1/DTD/svg11.dtd" >
<svg xmlns="http://www.w3.org/2000/svg">
<metadata></metadata>
<defs>
<font id="aig_futura_italic" horiz-adv-x="1179" >
<font-face units-per-em="2048" ascent="1638" descent="-410" />
<missing-glyph horiz-adv-x="589" />
<glyph horiz-adv-x="2048" />
<glyph horiz-adv-x="2048" />
<glyph unicode="&#xd;" horiz-adv-x="2048" />
<glyph unicode=" "  horiz-adv-x="589" />
<glyph unicode="&#x09;" horiz-adv-x="589" />
<glyph unicode="&#xa0;" horiz-adv-x="589" />
<glyph unicode="!" horiz-adv-x="630" d="M125 76q0 47 34 80.5t81 33.5t79.5 -33.5t32.5 -80.5q0 -48 -31.5 -81.5t-80.5 -33.5t-82 33.5t-33 81.5zM182 354l152 1143h168l-154 -1143h-166z" />
<glyph unicode="&#x22;" horiz-adv-x="589" d="M94 881v553h117v-553h-117zM377 881v553h119v-553h-119z" />
<glyph unicode="#" horiz-adv-x="1574" d="M104 467l43 123h320l96 272h-342l43 123h344l168 471h146l-166 -471h260l168 471h143l-164 -471h307l-43 -123h-311l-94 -272h330l-43 -123h-332l-166 -469h-145l168 469h-265l-168 -469h-143l166 469h-320zM614 590h263l96 272h-264z" />
<glyph unicode="$" d="M57 264l129 107q56 -127 121.5 -188.5t153.5 -65.5l71 555q-156 77 -230.5 171t-74.5 216q0 179 112 295.5t302 128.5l23 172h92l-25 -176q194 -21 324 -219l-129 -109q-85 162 -215 174l-68 -510q170 -78 246 -174t76 -242q0 -192 -117.5 -311.5t-317.5 -126.5l-22 -184 h-92l26 188q-132 9 -230 85t-155 214zM408 1085q0 -77 36 -129.5t115 -95.5l62 467q-96 -12 -154.5 -78.5t-58.5 -163.5zM553 117q108 15 170.5 88.5t62.5 189.5q0 79 -40 134t-128 98z" />
<glyph unicode="%" horiz-adv-x="1472" d="M76 1028q0 202 94.5 328.5t235.5 126.5q128 0 194 -79.5t66 -234.5q0 -197 -94.5 -324.5t-223.5 -127.5q-137 0 -204.5 76.5t-67.5 234.5zM207 993q0 -93 29.5 -137.5t93.5 -44.5q91 0 146.5 106.5t55.5 294.5q0 91 -29 134t-93 43q-88 0 -145.5 -107.5t-57.5 -288.5z M270 -39l824 1518h100l-823 -1518h-101zM815 268q0 202 94.5 328.5t235.5 126.5q128 0 194 -80t66 -235q0 -197 -94.5 -325t-223.5 -128q-272 0 -272 313zM944 233q0 -93 30.5 -137.5t94.5 -44.5q91 0 147 106t56 294q0 91 -30.5 134.5t-94.5 43.5q-88 0 -145.5 -107.5 t-57.5 -288.5z" />
<glyph unicode="&#x26;" horiz-adv-x="1280" d="M53 346q0 137 82 247t252 210l59 35q-112 169 -112 311q0 128 89 213.5t230 85.5q135 0 217 -78t82 -207q0 -103 -69.5 -181.5t-233.5 -184.5l246 -379q100 90 182 223l105 -125q-101 -131 -203 -227l213 -287h-191l-131 182l-82 -71q-166 -144 -360 -144 q-168 0 -271.5 105t-103.5 272zM219 348q0 -98 65 -164.5t162 -66.5q120 0 238 106l98 88l-262 408l-92 -64q-209 -144 -209 -307zM489 1141q0 -74 41 -140l48 -77l55 41q80 60 116.5 104.5t36.5 97.5q0 59 -37.5 96t-99.5 37q-71 0 -115.5 -43.5t-44.5 -115.5z" />
<glyph unicode="'" horiz-adv-x="305" d="M94 881v553h117v-553h-117z" />
<glyph unicode="(" horiz-adv-x="651" d="M154 344q0 350 99 634t314 542l99 -74q-184 -214 -281.5 -498.5t-97.5 -607.5q0 -409 157 -719l-102 -55q-188 388 -188 778z" />
<glyph unicode=")" horiz-adv-x="651" d="M-61 -360q183 214 280.5 498t97.5 607q0 411 -157 721l102 54q189 -390 189 -779q0 -349 -99.5 -633t-314.5 -542z" />
<glyph unicode="*" horiz-adv-x="876" d="M154 1055l268 82l-240 143l70 94l207 -192l4 282l119 -14l-62 -276l244 139l45 -111l-268 -82l239 -145l-69 -94l-207 194v-284l-125 16l65 274l-243 -137z" />
<glyph unicode="+" horiz-adv-x="1705" d="M254 553v117h541v551h118v-551h539v-117h-539v-553h-118v553h-541z" />
<glyph unicode="," horiz-adv-x="589" d="M-49 -213l262 489l147 -92l-309 -460z" />
<glyph unicode="-" horiz-adv-x="673" d="M57 377l19 155h471l-21 -155h-469z" />
<glyph unicode="." horiz-adv-x="589" d="M94 94q0 47 34 81t81 34t81 -34t34 -81t-33 -79.5t-82 -32.5t-82 32.5t-33 79.5z" />
<glyph unicode="/" horiz-adv-x="915" d="M0 -190l778 1687h137l-778 -1687h-137z" />
<glyph unicode="0" d="M82 539q0 211 46 391t130 309q153 240 410 240q207 0 319.5 -149.5t112.5 -430.5q0 -210 -47 -390.5t-131 -307.5q-158 -240 -412 -240q-204 0 -316 149.5t-112 428.5zM250 518q0 -203 67 -306t197 -103q86 0 162 57t132 159.5t88 255t32 334.5q0 213 -62 314.5 t-196 101.5q-167 0 -271 -176q-66 -114 -107.5 -283t-41.5 -354z" />
<glyph unicode="1" d="M350 1292l64 158h415l-192 -1450h-176l170 1292h-281z" />
<glyph unicode="2" d="M-2 0l342 338q294 291 354 356q112 120 162.5 205t50.5 193q0 105 -72.5 172t-191.5 67q-296 0 -317 -321h-174q10 222 139.5 345.5t351.5 123.5q206 0 323 -103.5t117 -281.5q0 -79 -22 -150.5t-70.5 -143.5t-104.5 -135.5t-145 -150.5l-364 -358h633l-25 -156h-987z " />
<glyph unicode="3" d="M66 356v25h163q1 -130 76 -202.5t207 -72.5q149 0 234 84t85 230q0 122 -82 185t-241 63q-33 0 -51 -2l18 141h27q183 0 281 76.5t98 214.5q0 108 -63 170.5t-173 62.5q-113 0 -182.5 -61t-79.5 -170h-166q13 178 132.5 278.5t314.5 100.5q181 0 284 -97.5t103 -261.5 q0 -145 -82 -245.5t-226 -131.5q129 -29 196 -110t67 -207q0 -208 -137.5 -336.5t-368.5 -128.5q-207 0 -320.5 103.5t-113.5 291.5z" />
<glyph unicode="4" d="M-10 330v28l887 1106h94l-129 -991h176l-25 -143h-170l-45 -330h-164l43 330h-667zM254 473h422l102 670z" />
<glyph unicode="5" d="M31 158l114 112q146 -155 310 -155q170 0 272 107t102 286q0 146 -89.5 231.5t-245.5 85.5q-154 0 -295 -75l-33 20l248 680h622l-22 -158h-496l-131 -362q105 24 182 24q196 0 315.5 -122.5t119.5 -327.5q0 -237 -150.5 -390t-386.5 -153q-257 0 -436 197z" />
<glyph unicode="6" d="M86 393q0 154 79.5 307.5t244.5 339.5l403 455l119 -100l-535 -592q123 69 246 69q177 0 282 -109.5t105 -291.5q0 -220 -145.5 -367t-366.5 -147q-197 0 -314.5 118t-117.5 318zM248 389q0 -130 72.5 -206.5t197.5 -76.5q147 0 244.5 102t97.5 259q0 121 -73.5 195.5 t-194.5 74.5q-150 0 -247 -98t-97 -250z" />
<glyph unicode="7" d="M172 35l707 1263h-672l20 152h916l-832 -1497z" />
<glyph unicode="8" d="M84 379q0 159 86.5 268t245.5 152q-203 93 -203 291q0 168 117.5 278.5t306.5 110.5q190 0 294.5 -93.5t104.5 -255.5q0 -135 -75.5 -226t-204.5 -111q124 -31 195 -126.5t71 -232.5q0 -202 -139.5 -337.5t-362.5 -135.5q-203 0 -319.5 112.5t-116.5 305.5zM256 383 q0 -130 71.5 -201t200.5 -71q145 0 234.5 95t89.5 245q0 126 -72 198t-198 72q-145 0 -235.5 -93.5t-90.5 -244.5zM371 1092q0 -105 64 -167.5t169 -62.5q128 0 200.5 72t72.5 199q0 89 -66.5 145.5t-177.5 56.5q-120 0 -191 -67t-71 -176z" />
<glyph unicode="9" d="M137 965q0 220 145.5 367t366.5 147q197 0 314.5 -118.5t117.5 -318.5q0 -154 -79 -306.5t-244 -338.5l-402 -454l-118 98l532 592q-125 -70 -246 -70q-176 0 -281.5 110t-105.5 292zM307 969q0 -121 73.5 -196t194.5 -75q149 0 247 99.5t98 251.5q0 130 -73 205t-198 75 q-147 0 -244.5 -101.5t-97.5 -258.5z" />
<glyph unicode=":" horiz-adv-x="630" d="M109 76q0 47 33.5 80.5t80.5 33.5t81 -33.5t34 -80.5q0 -48 -33 -81.5t-82 -33.5t-81.5 33.5t-32.5 81.5zM190 688q0 47 34 80t81 33t81 -33t34 -80q0 -48 -33 -81.5t-82 -33.5t-82 33.5t-33 81.5z" />
<glyph unicode=";" horiz-adv-x="630" d="M-49 -213l262 489l147 -92l-309 -460zM193 688q0 47 33.5 80t80.5 33t80 -33t33 -80q0 -48 -32 -81.5t-81 -33.5t-81.5 33.5t-32.5 81.5z" />
<glyph unicode="&#x3c;" horiz-adv-x="1705" d="M264 559v103l1178 483v-127l-1000 -408l1000 -405v-129z" />
<glyph unicode="=" horiz-adv-x="1705" d="M254 360v117h1198v-117h-1198zM254 743v117h1198v-117h-1198z" />
<glyph unicode="&#x3e;" horiz-adv-x="1705" d="M264 76v129l1000 405l-1000 408v127l1178 -483v-103z" />
<glyph unicode="?" horiz-adv-x="1019" d="M170 625q0 63 17.5 113t55.5 91.5t85.5 74t120.5 71.5q18 10 54 28.5t51.5 27t43.5 24t40.5 24.5t32.5 24t28.5 27t18.5 27t13.5 31.5t3.5 34.5q0 61 -45.5 98t-124.5 37q-176 0 -211 -197l-157 23q68 317 372 317q155 0 245.5 -79t90.5 -205q0 -88 -55.5 -159.5 t-169.5 -135.5q-41 -23 -98 -52.5t-87.5 -45.5t-66.5 -39.5t-53.5 -43.5t-30 -49t-12.5 -63q0 -66 41 -107t108 -41q72 0 124 49t59 132l143 -35q-23 -141 -108 -215t-224 -74q-138 0 -221.5 79t-83.5 208zM307 76q0 47 34 80.5t81 33.5t81 -33.5t34 -80.5q0 -48 -33 -81.5 t-82 -33.5t-82 33.5t-33 81.5z" />
<glyph unicode="@" horiz-adv-x="2048" d="M113 522q0 331 200 578q145 176 348.5 267t454.5 91q167 0 312.5 -44.5t246.5 -123.5q129 -99 195.5 -230t66.5 -282q0 -171 -63 -310t-182 -235q-139 -112 -312 -112q-198 0 -198 155q0 3 1 11t1 12q-103 -178 -297 -178q-153 0 -233.5 85t-80.5 247q0 232 137.5 390 t331.5 158q182 0 250 -157l58 121h110l-141 -568q-12 -49 -12 -80q0 -90 110 -90q42 0 97.5 23t105.5 65q87 74 138.5 194.5t51.5 256.5q0 173 -86.5 306.5t-249 208.5t-378.5 75q-338 0 -572 -205q-282 -246 -282 -637q0 -173 60 -304t187 -230q100 -79 239 -123.5 t296 -44.5q171 0 334 48t297 140l45 -66q-296 -221 -660 -221q-383 0 -624 185q-303 233 -303 624zM713 446q0 -110 51 -169.5t145 -59.5q101 0 182.5 70t110.5 186l60 242q-17 90 -72 140t-135 50q-147 0 -244.5 -132t-97.5 -327z" />
<glyph unicode="A" horiz-adv-x="1284" d="M-96 0l829 1464h51l451 -1464h-195l-98 369h-639l-199 -369h-200zM381 520h522l-176 584z" />
<glyph unicode="B" horiz-adv-x="1124" d="M78 0l192 1464h260q150 0 237 -15.5t151 -70.5q112 -95 112 -264q0 -140 -70.5 -232t-197.5 -118q124 -35 189 -117.5t65 -204.5q0 -116 -45 -208t-131 -150q-79 -55 -187.5 -69.5t-306.5 -14.5h-268zM270 156h103q84 0 126 1.5t97.5 10t95.5 25.5q70 31 110 96.5 t40 152.5q0 138 -107 199q-46 26 -100.5 33.5t-142.5 7.5h-152zM358 831h117q89 0 144.5 6t103.5 27q63 29 99 88.5t36 137.5q0 124 -96 182q-37 22 -84.5 28.5t-124.5 6.5h-131z" />
<glyph unicode="C" horiz-adv-x="1374" d="M102 678q0 177 62.5 332t179.5 272q215 215 537 215q269 0 469 -162l-47 -176q-200 182 -420 182q-121 0 -227.5 -44.5t-184.5 -127.5q-186 -198 -186 -479q0 -263 145 -416t395 -153q189 0 398 137l-39 -205q-176 -92 -387 -92q-203 0 -361 90t-246 253.5t-88 373.5z " />
<glyph unicode="D" horiz-adv-x="1429" d="M78 0l192 1464h197q109 0 159 -1t127 -6.5t130.5 -19.5t99.5 -38q162 -82 253 -243.5t91 -371.5q0 -198 -76.5 -366.5t-210.5 -270.5q-55 -42 -119 -70.5t-120.5 -43.5t-140 -22.5t-143 -9t-163.5 -1.5h-276zM274 160h95q126 0 188 2t142 14.5t135 38.5 q150 71 232.5 216.5t82.5 342.5q0 165 -66 289.5t-186 187.5q-62 33 -148.5 44.5t-220.5 11.5h-102z" />
<glyph unicode="E" horiz-adv-x="1054" d="M78 0l192 1464h754l-20 -159h-582l-57 -437h581l-20 -157h-582l-74 -549h613l-23 -162h-782z" />
<glyph unicode="F" horiz-adv-x="1019" d="M76 0l192 1464h756l-23 -159h-577l-57 -437h577l-20 -157h-578l-94 -711h-176z" />
<glyph unicode="G" horiz-adv-x="1650" d="M102 674q0 179 64.5 335t183.5 271q228 219 561 219q206 0 360 -72t275 -225l-131 -117q-201 256 -502 256q-181 0 -325.5 -86.5t-225.5 -241t-81 -347.5q0 -249 153 -400t404 -151q208 0 358 126.5t172 323.5h-459l21 152h618v-10q0 -346 -197.5 -546t-535.5 -200 q-327 0 -520 195t-193 518z" />
<glyph unicode="H" horiz-adv-x="1449" d="M78 0l192 1464h176l-75 -579h749l76 579h178l-192 -1464h-178l94 725h-748l-96 -725h-176z" />
<glyph unicode="I" horiz-adv-x="540" d="M84 0l192 1464h183l-193 -1464h-182z" />
<glyph unicode="J" horiz-adv-x="768" d="M-70 135l125 109q59 -133 164 -133q86 0 124 77q31 61 55 246q3 19 8 59q6 48 10 74l119 897h176l-127 -972q-2 -14 -7.5 -54t-7.5 -54.5t-7 -48.5t-8 -49.5t-8.5 -43t-11 -43.5t-12.5 -37.5t-15 -38.5t-18 -33q-37 -62 -106.5 -95.5t-161.5 -33.5q-203 0 -291 174z" />
<glyph unicode="K" horiz-adv-x="1241" d="M78 0l192 1464h176l-86 -657l695 657h231l-729 -667l645 -797h-229l-617 780l-102 -780h-176z" />
<glyph unicode="L" horiz-adv-x="888" d="M78 0l192 1464h176l-172 -1302h527l-21 -162h-702z" />
<glyph unicode="M" horiz-adv-x="1773" d="M-16 0l436 1464h37l395 -1147l670 1147h34l68 -1464h-174l-23 1014l-593 -1014h-52l-340 1016l-276 -1016h-182z" />
<glyph unicode="N" horiz-adv-x="1540" d="M76 2l188 1462h51l830 -1087l145 1089h174l-192 -1466h-51l-826 1077l-145 -1075h-174z" />
<glyph unicode="O" horiz-adv-x="1753" d="M104 674q0 179 63.5 335t180.5 269q110 106 259.5 162.5t316.5 56.5q332 0 530.5 -195t198.5 -518q0 -174 -65 -329t-185 -269q-113 -108 -265 -166.5t-323 -58.5q-210 0 -371.5 89.5t-250.5 251.5t-89 372zM279 676q0 -249 152 -402t403 -153q265 0 448 180 q93 93 144 219t51 264q0 248 -154.5 402.5t-407.5 154.5q-126 0 -238.5 -46t-197.5 -132q-97 -98 -148.5 -224t-51.5 -263z" />
<glyph unicode="P" horiz-adv-x="1081" d="M78 0l192 1464h236q67 0 100.5 -0.5t86.5 -5t86 -13.5t72 -26t71 -43q131 -106 131 -295q0 -224 -158 -346q-77 -60 -172.5 -76t-255.5 -16h-131l-84 -643h-174zM356 797h119q65 0 101 1.5t81 9t78 23.5q66 31 102.5 94.5t36.5 149.5q0 132 -98 193q-40 25 -90.5 32 t-132.5 7h-127z" />
<glyph unicode="Q" horiz-adv-x="1753" d="M104 674q0 177 63 331.5t181 266.5q116 109 266.5 167t319.5 58q328 0 521.5 -195.5t193.5 -529.5q0 -204 -86 -373.5t-244 -275.5l223 -238l-178 -41l-172 199q-172 -78 -373 -78q-210 0 -372.5 88t-252.5 249.5t-90 371.5zM274 668q0 -238 159.5 -394.5t402.5 -156.5 q125 0 243 53l-235 264l180 43l197 -231q123 89 189.5 233t66.5 324q0 235 -156.5 386.5t-405.5 151.5q-263 0 -440 -180q-95 -97 -148 -226t-53 -267z" />
<glyph unicode="R" horiz-adv-x="1120" d="M78 0l192 1464h236q66 0 98.5 -0.5t85 -5t85 -13.5t71.5 -26t72 -43q135 -107 135 -295q0 -183 -121 -292.5t-330 -110.5l451 -678h-211l-430 676h-74l-88 -676h-172zM356 811h119q94 0 152.5 6.5t107.5 28.5q66 29 102.5 90.5t36.5 144.5q0 57 -16 97.5t-44 65.5 t-76.5 39t-103.5 19t-134 5h-78z" />
<glyph unicode="S" horiz-adv-x="1036" d="M-10 268l129 109q60 -136 132 -198t177 -62q133 0 213 77t80 205q0 42 -11.5 76t-26.5 57t-50 49.5t-61 42t-80 44.5q-70 38 -117 68.5t-90.5 67.5t-68.5 75t-39.5 86t-14.5 106q0 187 121 307.5t313 120.5q127 0 223 -55.5t168 -171.5l-127 -109q-94 183 -260 183 q-117 0 -188.5 -69.5t-71.5 -178.5q0 -31 6 -57t14 -46t26.5 -40t32 -32.5t43 -31t46.5 -28t55.5 -30.5t59.5 -32q147 -83 210.5 -169t63.5 -229q0 -202 -125 -322t-340 -120q-318 0 -442 307z" />
<glyph unicode="T" horiz-adv-x="1005" d="M113 1305l20 159h922l-21 -159h-372l-173 -1305h-178l170 1305h-368z" />
<glyph unicode="U" horiz-adv-x="1417" d="M125 373q0 147 39 422l90 669h178l-117 -891q-12 -95 -12 -131q0 -158 83 -240.5t239 -82.5q224 0 336 151q15 20 27 43.5t21 42t17.5 49.5t13 47t11 55t8.5 53t8 60.5t8 59.5l105 784h176l-109 -823q-13 -94 -20 -139.5t-24 -116t-42.5 -122.5t-62.5 -99 q-79 -99 -204 -153t-282 -54q-225 0 -356 113.5t-131 302.5z" />
<glyph unicode="V" horiz-adv-x="1146" d="M51 1464h185l270 -1097l559 1097h195l-771 -1464h-47z" />
<glyph unicode="W" horiz-adv-x="1802" d="M39 1464h178l242 -1063l497 1063h41l254 -1063l467 1063h180l-669 -1464h-41l-258 1034l-494 -1034h-41z" />
<glyph unicode="X" horiz-adv-x="999" d="M-109 0l529 739l-383 725h196l293 -569l404 569h207l-533 -729l385 -735h-188l-305 580l-416 -580h-189z" />
<glyph unicode="Y" horiz-adv-x="1067" d="M29 1464h188l303 -663l420 663h199l-541 -827l-84 -637h-176l84 639z" />
<glyph unicode="Z" horiz-adv-x="1142" d="M-45 0v37l915 1270h-725l21 157h981v-37l-914 -1273h789l-21 -154h-1046z" />
<glyph unicode="[" horiz-adv-x="651" d="M88 -412l252 1909h334l-17 -127h-192l-217 -1655h213l-17 -127h-356z" />
<glyph unicode="\" horiz-adv-x="915" d="M162 1497h137l455 -1687h-140z" />
<glyph unicode="]" horiz-adv-x="651" d="M-72 -412l17 127h192l219 1655h-215l19 127h354l-252 -1909h-334z" />
<glyph unicode="^" horiz-adv-x="2048" d="M422 901l520 557h162l520 -557h-158l-442 438l-442 -438h-160z" />
<glyph unicode="_" horiz-adv-x="1024" d="M0 -365h1024v-118h-1024v118z" />
<glyph unicode="`" horiz-adv-x="1024" d="M279 1407h198l211 -348h-108z" />
<glyph unicode="a" horiz-adv-x="1161" d="M53 424q0 228 134.5 376t336.5 148q243 0 334 -217l25 184h157l-120 -915h-160l22 137q-129 -174 -333 -174q-174 0 -285 127t-111 334zM215 424q0 -141 81 -228t208 -87q132 0 225.5 110t93.5 277q0 141 -73.5 226t-188.5 85q-153 0 -249.5 -108t-96.5 -275z" />
<glyph unicode="b" horiz-adv-x="1161" d="M51 0l197 1495h160l-97 -723q128 174 330 174q177 0 287 -127.5t110 -341.5q0 -190 -118 -344q-62 -82 -153.5 -127t-197.5 -45q-240 0 -333 217l-23 -178h-162zM268 412q0 -141 73.5 -226.5t188.5 -85.5q153 0 250 108t97 275q0 142 -80.5 228t-208.5 86 q-132 0 -226 -109t-94 -276z" />
<glyph unicode="c" horiz-adv-x="948" d="M41 416q0 233 148 382.5t386 149.5q168 0 320 -94l-23 -176q-139 139 -307 139q-159 0 -260.5 -111t-101.5 -292q0 -142 87 -231t232 -89q73 0 140 29.5t145 91.5l-25 -172q-113 -82 -290 -82q-201 0 -326 125.5t-125 329.5z" />
<glyph unicode="d" horiz-adv-x="1161" d="M49 424q0 228 134.5 376t336.5 148q243 0 334 -217l100 764h158l-197 -1495h-159l22 137q-129 -174 -334 -174q-174 0 -284.5 127t-110.5 334zM213 424q0 -142 80 -228.5t207 -86.5q132 0 225.5 110t93.5 277q0 141 -73.5 226t-188.5 85q-153 0 -248.5 -108t-95.5 -275z " />
<glyph unicode="e" horiz-adv-x="1040" d="M41 418q0 230 140 380t351 150q191 0 297.5 -116.5t106.5 -329.5q0 -47 -2 -72h-733v-16q0 -147 75.5 -231.5t204.5 -84.5q158 0 281 160l110 -90q-160 -207 -385 -207q-205 0 -325.5 123.5t-120.5 333.5zM215 561h567q-1 124 -67.5 191t-184.5 67t-203.5 -69.5 t-111.5 -188.5z" />
<glyph unicode="f" horiz-adv-x="634" d="M61 782l17 133h170l28 234q24 208 84.5 296.5t196.5 88.5q76 0 145 -35l-26 -139q-75 33 -107 33q-64 0 -89 -50.5t-40 -177.5l-32 -250h202l-18 -133h-201l-102 -782h-162l102 782h-168z" />
<glyph unicode="g" horiz-adv-x="1161" d="M35 424q0 226 134.5 375t336.5 149q245 0 334 -213l24 180h158l-92 -696q-2 -17 -10.5 -83t-11 -85.5t-11.5 -69.5t-17 -74.5t-21.5 -58.5t-29.5 -61q-62 -105 -158 -151t-247 -46h-37l16 136q22 -5 58 -5q118 0 191 82.5t96 239.5l16 109q-129 -175 -334 -175 q-172 0 -283.5 125.5t-111.5 321.5zM197 434q0 -140 80.5 -226.5t207.5 -86.5q132 0 226 109.5t94 273.5q0 139 -73 223t-189 84q-153 0 -249.5 -106.5t-96.5 -270.5z" />
<glyph unicode="h" horiz-adv-x="1110" d="M66 0l196 1495h158l-101 -729q138 182 343 182q131 0 207.5 -72t76.5 -196q0 -45 -8 -102l-76 -578h-160l72 561q8 70 8 84q0 82 -50 125t-146 43q-125 0 -202.5 -89.5t-100.5 -260.5l-62 -463h-155z" />
<glyph unicode="i" horiz-adv-x="493" d="M72 0l121 915h159l-121 -915h-159zM203 1348q0 44 32 76t78 32q45 0 77 -31.5t32 -76.5q0 -46 -31.5 -78.5t-77.5 -32.5q-45 0 -77.5 33t-32.5 78z" />
<glyph unicode="j" horiz-adv-x="493" d="M10 -410l178 1325h160l-178 -1325h-160zM199 1348q0 44 32 76t78 32q45 0 77 -31.5t32 -76.5q0 -46 -31.5 -78.5t-77.5 -32.5q-45 0 -77.5 33t-32.5 78z" />
<glyph unicode="k" horiz-adv-x="966" d="M66 0l196 1495h158l-127 -977l465 397h221l-502 -417l393 -498h-208l-373 485l-66 -485h-157z" />
<glyph unicode="l" horiz-adv-x="493" d="M70 0l196 1495h162l-197 -1495h-161z" />
<glyph unicode="m" horiz-adv-x="1609" d="M66 0l122 915h152l-21 -141q128 174 310 174q92 0 155.5 -45t85.5 -127q138 172 324 172q116 0 185 -71.5t69 -196.5q0 -28 -8 -102l-76 -578h-160l74 561q6 43 6 84q0 168 -168 168q-113 0 -174.5 -85.5t-85.5 -264.5l-61 -463h-162l74 561q6 43 6 84q0 168 -168 168 q-213 0 -260 -350l-62 -463h-157z" />
<glyph unicode="n" horiz-adv-x="1110" d="M66 0l120 915h152l-21 -149q148 182 345 182q131 0 207.5 -72t76.5 -196q0 -45 -8 -102l-76 -578h-160l72 561q8 70 8 84q0 82 -50 125t-146 43q-125 0 -202.5 -89.5t-100.5 -260.5l-62 -463h-155z" />
<glyph unicode="o" horiz-adv-x="1128" d="M41 420q0 148 67.5 269.5t186 190t262.5 68.5q201 0 330 -126.5t129 -311.5q0 -246 -144 -397.5t-370 -151.5q-209 0 -335 127t-126 332zM201 424q0 -151 85.5 -243.5t225.5 -92.5q150 0 248 111t98 282q0 148 -86.5 243t-222.5 95q-150 0 -249 -111.5t-99 -283.5z" />
<glyph unicode="p" horiz-adv-x="1161" d="M-4 -410l174 1325h160l-21 -143q130 176 332 176q172 0 283.5 -128t111.5 -331q0 -223 -134 -373.5t-333 -150.5q-244 0 -331 215l-78 -590h-164zM266 414q0 -139 73.5 -223.5t188.5 -84.5q153 0 249.5 107t96.5 272q0 141 -80 227.5t-208 86.5q-133 0 -226.5 -109.5 t-93.5 -275.5z" />
<glyph unicode="q" horiz-adv-x="1161" d="M53 416q0 231 133.5 382.5t335.5 151.5q245 0 336 -217l25 182h157l-174 -1325h-159l75 547q-130 -176 -333 -176q-173 0 -284.5 127.5t-111.5 327.5zM215 424q0 -141 81 -228t208 -87q132 0 225.5 110t93.5 277q0 141 -73.5 226t-188.5 85q-153 0 -249.5 -108 t-96.5 -275z" />
<glyph unicode="r" horiz-adv-x="692" d="M66 0l120 915h158l-25 -145q62 91 127 134.5t142 43.5q45 0 92 -20l-41 -162q-55 27 -107 27q-106 0 -167 -88.5t-86 -272.5l-58 -432h-155z" />
<glyph unicode="s" horiz-adv-x="839" d="M-4 133l102 121q101 -162 254 -162q87 0 137 40.5t50 105.5q0 22 -7 40t-15.5 29.5t-31.5 26t-37 21.5t-51 24t-57 27q-119 58 -168 109.5t-49 143.5q0 125 92.5 207t239.5 82q185 0 311 -135l-96 -115q-84 113 -226 113q-70 0 -117.5 -39.5t-47.5 -93.5q0 -36 25 -63.5 t51 -41t97 -43.5l3 -1.5l3 -1.5t3.5 -1.5t3.5 -1.5q62 -27 100.5 -49.5t69 -53t44 -69.5t13.5 -92q0 -138 -90 -218.5t-246 -80.5q-228 0 -360 172z" />
<glyph unicode="t" horiz-adv-x="587" d="M37 782l18 133h170l47 369h162l-49 -369h201l-17 -133h-202l-103 -782h-160l103 782h-170z" />
<glyph unicode="u" horiz-adv-x="1048" d="M98 244q0 40 25 245l55 426h160l-53 -405q-27 -210 -27 -248q0 -74 51 -115t144 -41q43 0 76.5 7.5t58.5 20.5t44 37t31.5 49.5t23 66.5t17 79t13.5 95l59 454h158l-62 -464q-1 -11 -4 -31q-9 -68 -14.5 -102.5t-18.5 -84.5t-34.5 -88t-52.5 -71q-107 -113 -304 -113 q-158 0 -252 78t-94 205z" />
<glyph unicode="v" horiz-adv-x="915" d="M18 915h170l197 -636l363 636h182l-555 -915h-51z" />
<glyph unicode="w" horiz-adv-x="1458" d="M27 915h168l178 -626l338 626h51l186 -626l338 626h168l-516 -915h-47l-186 614l-334 -614h-49z" />
<glyph unicode="x" horiz-adv-x="927" d="M-35 0l379 471l-248 444h185l172 -340l256 340h192l-379 -460l252 -455h-184l-168 348l-264 -348h-193z" />
<glyph unicode="y" horiz-adv-x="952" d="M-12 -410l297 510l-250 815h170l188 -653l357 653h182l-766 -1325h-178z" />
<glyph unicode="z" horiz-adv-x="882" d="M-25 0l592 782h-471l19 133h719l-574 -774h473l-18 -141h-740z" />
<glyph unicode="{" horiz-adv-x="1024" d="M172 467v127q8 0 23 -1t22 -1q136 0 190 62t54 214v244q0 134 18 203t82 110q80 52 262 52h35v-127q-8 0 -23 1t-22 1q-67 0 -107 -12t-62.5 -42.5t-30 -73.5t-7.5 -116v-242q0 -156 -39.5 -230t-158.5 -106q119 -32 158.5 -105.5t39.5 -229.5v-242q0 -73 8 -116 t31.5 -73.5t64.5 -41.5t109 -11h39v-125h-35q-182 0 -262 52q-63 41 -81.5 111t-18.5 202v244q0 150 -54 212t-190 62q-7 0 -22 -1t-23 -1z" />
<glyph unicode="|" horiz-adv-x="1024" d="M449 -483v2048h126v-2048h-126z" />
<glyph unicode="}" horiz-adv-x="1024" d="M166 -289q8 0 23 -1t22 -1q66 0 106.5 12t63 43.5t30 74.5t7.5 116v240q0 156 39.5 229.5t158.5 105.5q-119 32 -158.5 106t-39.5 230v242q0 73 -8 116.5t-31.5 74t-64.5 42t-109 11.5h-39v125h35q184 0 264 -52q62 -41 80 -110t18 -203v-244q0 -151 55 -213.5t191 -62.5 q7 0 22 1t23 1v-127q-8 0 -23 1t-22 1q-136 0 -191 -62.5t-55 -213.5v-242q0 -134 -18 -204.5t-80 -111.5q-43 -29 -103.5 -39t-154.5 -10h-41v125z" />
<glyph unicode="~" horiz-adv-x="1705" d="M178 461v133q210 145 387 145q50 0 104.5 -10.5t91 -22t95.5 -32.5q13 -5 47 -17.5t49.5 -18t45.5 -14.5t49.5 -13t46 -7.5t51.5 -3.5q88 0 179.5 39t205.5 119v-131q-202 -144 -387 -144q-88 0 -191 35q-29 10 -99 35t-104.5 35.5t-87.5 21.5t-98 11q-87 0 -178.5 -39.5 t-206.5 -120.5z" />
<glyph unicode="&#xa1;" horiz-adv-x="630" d="M131 -39l152 1145h166l-150 -1145h-168zM279 1384q0 48 32.5 80.5t81.5 32.5t81 -32.5t32 -80.5q0 -47 -33 -80.5t-80 -33.5t-80.5 33.5t-33.5 80.5z" />
<glyph unicode="&#xa2;" d="M164 440q0 222 140 366t362 144l26 156h99l-29 -158q121 -16 213 -84l-39 -166q-95 92 -199 105l-112 -664q141 0 280 111l-39 -182q-132 -66 -243 -66h-21l-45 -252h-96l45 260q-158 22 -250 137.5t-92 292.5zM328 455q0 -117 55.5 -199.5t146.5 -101.5l113 657 q-150 -22 -232.5 -115.5t-82.5 -240.5z" />
<glyph unicode="&#xa3;" d="M41 96q84 107 188 131q88 145 88 254q0 45 -12 103h-248l17 114h196q-69 207 -69 320q0 197 134 329t333 132q192 0 296.5 -104.5t104.5 -293.5q0 -23 -4 -77l-154 -17q4 50 4 72q0 133 -64.5 204.5t-184.5 71.5q-129 0 -215 -88t-86 -217q0 -17 1 -34t3.5 -37t4 -33.5 t7 -37.5t7.5 -35t9 -39.5t8.5 -36t10 -40.5t10.5 -39h379l-14 -114h-342q8 -31 8 -68q0 -128 -129 -287q28 4 41 4q69 0 178 -59q38 -20 59.5 -30t62.5 -20.5t83 -10.5q98 0 192 102l96 -111q-128 -143 -292 -143q-22 0 -45.5 3t-38 5.5t-42 11.5t-34.5 11t-39.5 14.5 t-34.5 13.5q-9 3 -29 11t-28 11.5t-25.5 9.5t-26 9t-22.5 7.5t-23 6.5t-20 4.5t-20.5 3.5t-18.5 1q-48 0 -93 -27.5t-110 -87.5z" />
<glyph unicode="&#xa4;" d="M10 547l47 102h146q3 85 14 156h-162l47 106h136q65 265 225.5 416.5t365.5 151.5q190 0 353 -129l-37 -174q-126 147 -311 147q-146 0 -255 -107t-161 -305h635l-58 -106h-598q-13 -85 -16 -156h528l-57 -102h-471q4 -213 84 -323.5t227 -110.5q148 0 322 110l-39 -194 q-137 -70 -293 -70q-228 0 -352 152t-127 436h-193z" />
<glyph unicode="&#xa5;" d="M16 602l17 121h432l-76 158h-336l17 120h262l-217 451h174l315 -672l430 672h187l-293 -451h254l-17 -120h-319l-107 -158h406l-17 -121h-452l-80 -602h-172l80 602h-488z" />
<glyph unicode="&#xa6;" horiz-adv-x="1024" d="M449 -350v758h126v-758h-126zM449 674v758h126v-758h-126z" />
<glyph unicode="&#xa7;" horiz-adv-x="1089" d="M57 -102l154 2q0 -98 52.5 -152.5t146.5 -54.5t156.5 59.5t62.5 145.5q0 72 -72 141q-17 16 -49.5 34.5t-87 46t-94.5 50.5q-101 58 -154 143.5t-53 188.5q0 152 90.5 255.5t234.5 112.5q-198 84 -198 281q0 153 107 249.5t280 96.5q162 0 253 -87t91 -243v-10l-154 -4 q-1 97 -53.5 150t-144.5 53q-95 0 -157 -60t-62 -147q0 -78 71 -143q18 -16 51.5 -33t87.5 -42t95 -48q103 -57 158 -143.5t55 -192.5q0 -150 -93 -253.5t-237 -109.5q194 -98 194 -284q0 -152 -108 -250.5t-277 -98.5q-161 0 -253.5 87t-92.5 241v19zM276 506 q0 -97 62.5 -159t163.5 -62q114 0 184 71t70 181q0 101 -66.5 164t-169.5 63q-101 0 -172.5 -74.5t-71.5 -183.5z" />
<glyph unicode="&#xa8;" horiz-adv-x="1024" d="M303 1223q0 41 33 74.5t74 33.5q44 0 75 -32.5t31 -75.5q0 -47 -30 -78t-76 -31q-45 0 -76 31t-31 78zM633 1223q0 41 32.5 74.5t73.5 33.5q44 0 75.5 -32.5t31.5 -75.5q0 -47 -30.5 -78t-76.5 -31q-45 0 -75.5 31t-30.5 78z" />
<glyph unicode="&#xa9;" horiz-adv-x="1705" d="M119 725q0 146 56.5 280t162.5 242q102 103 233.5 158t280.5 55q150 0 284.5 -55t239.5 -160q103 -103 157 -236.5t54 -283.5q0 -308 -211 -516q-109 -106 -244 -162.5t-280 -56.5q-299 0 -516 217q-106 106 -161.5 239t-55.5 279zM207 725q0 -127 49 -244t141 -211 q92 -92 209 -141t246 -49q128 0 248 49.5t215 142.5q186 183 186 453q0 131 -48.5 249.5t-139.5 209.5q-188 188 -461 188q-270 0 -453 -186q-93 -95 -142.5 -214t-49.5 -247zM465 721q0 210 108 333.5t287 123.5q137 0 230 -75t104 -192h-129q-15 77 -71 120.5t-138 43.5 q-117 0 -182.5 -91.5t-65.5 -260.5q0 -162 67 -253t181 -91q87 0 145.5 48t73.5 134h129q-11 -128 -108.5 -207.5t-245.5 -79.5q-174 0 -279.5 120.5t-105.5 326.5z" />
<glyph unicode="&#xaa;" horiz-adv-x="870" d="M96 545l15 112h610l-14 -112h-611zM98 1116q0 164 102 269.5t259 105.5q175 0 243 -131l17 108h137l-88 -655h-137l12 78q-89 -105 -235 -105q-137 0 -223.5 92t-86.5 238zM240 1120q0 -97 58.5 -156t150.5 -59q96 0 161.5 72.5t65.5 185.5q0 97 -53 155t-136 58 q-112 0 -179.5 -71.5t-67.5 -184.5z" />
<glyph unicode="&#xab;" horiz-adv-x="985" d="M41 463l356 399l84 -86l-295 -323l213 -338l-98 -68zM455 463l356 399l84 -86l-297 -323l215 -338l-100 -68z" />
<glyph unicode="&#xac;" horiz-adv-x="1705" d="M254 741v117h1198v-502h-115v385h-1083z" />
<glyph unicode="&#xad;" horiz-adv-x="673" d="M57 377l19 155h471l-21 -155h-469z" />
<glyph unicode="&#xae;" horiz-adv-x="1705" d="M119 725q0 146 57 281.5t164 242.5q208 211 512 211q307 0 524 -217q102 -102 156.5 -236t54.5 -282q0 -309 -213 -516q-109 -106 -243.5 -162.5t-278.5 -56.5q-146 0 -279 56.5t-239 162.5q-104 104 -159.5 237t-55.5 279zM207 725q0 -127 49 -244t141 -211 q91 -93 208.5 -141.5t244.5 -48.5q270 0 463 190q188 185 188 451q0 133 -48 252t-138 209q-190 190 -463 190q-270 0 -451 -184q-95 -95 -144.5 -214t-49.5 -249zM561 317v840h311q351 0 351 -231q0 -88 -52.5 -148.5t-144.5 -75.5l188 -385h-157l-176 365h-179v-365h-141z M702 774h148q120 0 173.5 31.5t53.5 109.5q0 81 -55.5 115.5t-175.5 34.5h-144v-291z" />
<glyph unicode="&#xaf;" horiz-adv-x="1024" d="M297 1153l18 139h541l-18 -139h-541z" />
<glyph unicode="&#xb0;" horiz-adv-x="673" d="M55 1171q0 119 82.5 201t200.5 82q117 0 200 -83t83 -200q0 -116 -83 -199t-202 -83q-118 0 -199.5 81.5t-81.5 200.5zM135 1171q0 -85 59.5 -143.5t143.5 -58.5q85 0 143 59t58 143t-58.5 142.5t-142.5 58.5t-143.5 -58.5t-59.5 -142.5z" />
<glyph unicode="&#xb1;" horiz-adv-x="1705" d="M254 41v117h1198v-117h-1198zM254 719v117h541v344h118v-344h539v-117h-539v-344h-118v344h-541z" />
<glyph unicode="&#xb2;" horiz-adv-x="778" d="M-2 575l227 203q187 166 234 213q73 73 106 124.5t33 115.5t-47.5 103.5t-126.5 39.5q-194 0 -209 -192h-115q6 133 91.5 206.5t232.5 73.5q136 0 213.5 -62.5t77.5 -168.5q0 -62 -29.5 -121t-73.5 -107t-123 -118l-241 -215h418l-17 -95h-651z" />
<glyph unicode="&#xb3;" horiz-adv-x="778" d="M43 788v17h109q2 -78 50.5 -122t135.5 -44q98 0 154.5 50t56.5 138q0 72 -54.5 111t-158.5 39q-23 0 -35 -2l12 84h19q121 0 185.5 46t64.5 130q0 64 -42 101.5t-114 37.5q-74 0 -120.5 -36.5t-53.5 -102.5h-109q9 107 87.5 167t207.5 60q119 0 187.5 -58t68.5 -157 q0 -87 -53.5 -146.5t-148.5 -78.5q172 -38 172 -191q0 -125 -90.5 -201.5t-243.5 -76.5q-137 0 -212 61.5t-75 173.5z" />
<glyph unicode="&#xb4;" horiz-adv-x="1024" d="M403 1059l232 348h190l-301 -348h-121z" />
<glyph unicode="&#xb5;" horiz-adv-x="1128" d="M-111 -426l316 1495h157l-126 -596q-15 -68 -15 -137q0 -108 56.5 -167.5t160.5 -59.5q126 0 209 101.5t127 307.5l121 551h156l-162 -754q-23 -103 -23 -135q0 -65 72 -65q17 0 35 2l-27 -125q-44 -10 -92 -10q-70 0 -104.5 35t-40.5 112q-40 -69 -116 -108t-173 -39 q-174 0 -262 137l-113 -545h-156z" />
<glyph unicode="&#xb6;" horiz-adv-x="1024" d="M76 1130q0 156 106.5 252.5t286.5 96.5h479v-78h-125v-1401h-94v1401h-184v-1401h-94v782q-173 7 -274 102t-101 246z" />
<glyph unicode="&#xb7;" horiz-adv-x="589" d="M186 719q0 47 34 81t81 34t81 -34t34 -81q0 -48 -33 -80.5t-82 -32.5t-82 32.5t-33 80.5z" />
<glyph unicode="&#xb8;" horiz-adv-x="1024" d="M121 -422l37 98q149 -45 211 -45q71 0 104 23t33 76q0 45 -41.5 62.5t-136.5 17.5h-23l66 190h78l-35 -102h22q213 0 213 -166q0 -98 -64 -151.5t-186 -53.5q-94 0 -278 51z" />
<glyph unicode="&#xb9;" horiz-adv-x="778" d="M231 1352l41 94h275l-127 -871h-115l111 777h-185z" />
<glyph unicode="&#xba;" horiz-adv-x="845" d="M6 545l14 112h642l-15 -112h-641zM31 1116q0 160 112.5 267.5t280.5 107.5q159 0 257.5 -92.5t98.5 -233.5q0 -166 -110.5 -273.5t-282.5 -107.5q-161 0 -258.5 92t-97.5 240zM170 1122q0 -105 62.5 -169t164.5 -64q106 0 176 74.5t70 189.5q0 101 -62.5 167t-162.5 66 q-106 0 -177 -74.5t-71 -189.5z" />
<glyph unicode="&#xbb;" horiz-adv-x="985" d="M20 133l295 324l-213 338l99 67l260 -413l-359 -402zM432 133l297 324l-215 338l100 67l258 -413l-356 -402z" />
<glyph unicode="&#xbc;" horiz-adv-x="1828" d="M221 1356l39 88h262l-121 -811h-110l106 723h-176zM401 -39l916 1518h108l-913 -1518h-111zM1079 184v17l566 626h53l-82 -563h110l-14 -80h-108l-29 -184h-102l26 184h-420zM1245 264h266l64 375z" />
<glyph unicode="&#xbd;" horiz-adv-x="1828" d="M221 1356l39 88h262l-121 -811h-110l106 723h-176zM401 -39l916 1518h108l-913 -1518h-111zM1083 0l217 188q139 121 224 201q71 69 102 115t31 106t-45.5 97.5t-120.5 37.5q-186 0 -201 -180h-108q6 124 87.5 193t221.5 69q129 0 202.5 -58t73.5 -157q0 -84 -50.5 -154 t-164.5 -169l-229 -201h399l-16 -88h-623z" />
<glyph unicode="&#xbe;" horiz-adv-x="1828" d="M41 831v15h104q0 -72 47 -113t130 -41q95 0 148.5 47t53.5 129q0 68 -52 104t-153 36q-20 0 -32 -2l12 79h16q116 0 178 42.5t62 119.5q0 60 -39.5 95.5t-109.5 35.5t-114 -34.5t-50 -94.5h-105q7 99 82 155t199 56q115 0 179.5 -53.5t64.5 -146.5q0 -80 -51.5 -137 t-141.5 -74q81 -15 122.5 -61.5t41.5 -117.5q0 -116 -86.5 -188t-231.5 -72q-130 0 -202 58.5t-72 162.5zM401 -39l916 1518h108l-913 -1518h-111zM1079 184v17l566 626h53l-82 -563h110l-14 -80h-108l-29 -184h-102l26 184h-420zM1245 264h266l64 375z" />
<glyph unicode="&#xbf;" horiz-adv-x="1019" d="M98 246q0 88 55 159.5t169 135.5q41 23 98 52.5t88 45.5t67 39.5t54 44t30.5 49t12.5 62.5q0 66 -42.5 107.5t-109.5 41.5q-72 0 -122.5 -49.5t-57.5 -132.5l-145 35q23 141 108 214.5t225 73.5q138 0 222 -78.5t84 -207.5q0 -63 -17.5 -113t-56.5 -91.5t-86.5 -74.5 t-120.5 -72q-21 -11 -60.5 -31.5t-56.5 -29.5t-47 -26.5t-43 -27.5t-31.5 -27t-26.5 -31t-14 -33t-6 -39q0 -61 46 -98.5t124 -37.5q177 0 211 195l158 -22q-68 -318 -373 -318q-154 0 -245 79t-91 206zM467 1386q0 48 33 81.5t82 33.5t81.5 -33.5t32.5 -81.5 q0 -47 -33.5 -79.5t-80.5 -32.5q-48 0 -81.5 32.5t-33.5 79.5z" />
<glyph unicode="&#xc0;" horiz-adv-x="1284" d="M-96 0l829 1464h51l451 -1464h-195l-98 369h-639l-199 -369h-200zM381 520h522l-176 584zM487 1958h199l211 -348h-109z" />
<glyph unicode="&#xc1;" horiz-adv-x="1284" d="M-96 0l829 1464h51l451 -1464h-195l-98 369h-639l-199 -369h-200zM381 520h522l-176 584zM612 1610l232 348h190l-301 -348h-121z" />
<glyph unicode="&#xc2;" horiz-adv-x="1284" d="M-96 0l829 1464h51l451 -1464h-195l-98 369h-639l-199 -369h-200zM381 520h522l-176 584zM451 1610l266 348h184l139 -348h-110l-133 219l-226 -219h-120z" />
<glyph unicode="&#xc3;" horiz-adv-x="1284" d="M-96 0l829 1464h51l451 -1464h-195l-98 369h-639l-199 -369h-200zM381 520h522l-176 584zM485 1659q49 207 203 207q26 0 68 -11l88 -26q24 -8 49 -8q34 0 54 17.5t32 55.5h102q-28 -103 -78 -152.5t-129 -49.5q-31 0 -55 8l-88 29q-33 10 -55 10q-68 0 -86 -80h-105z " />
<glyph unicode="&#xc4;" horiz-adv-x="1284" d="M-96 0l829 1464h51l451 -1464h-195l-98 369h-639l-199 -369h-200zM381 520h522l-176 584zM512 1774q0 41 32.5 74.5t73.5 33.5q44 0 75.5 -32.5t31.5 -75.5q0 -47 -30.5 -78t-76.5 -31q-45 0 -75.5 31t-30.5 78zM842 1774q0 41 32.5 74.5t73.5 33.5q44 0 75.5 -32.5 t31.5 -75.5q0 -47 -30.5 -78t-76.5 -31q-45 0 -75.5 31t-30.5 78z" />
<glyph unicode="&#xc5;" horiz-adv-x="1284" d="M-96 0l825 1464h62l444 -1464h-195l-98 369h-639l-199 -369h-200zM381 520h522l-176 629zM528 1739q0 97 68.5 165t165.5 68q98 0 165.5 -67.5t67.5 -165.5q0 -97 -67.5 -166.5t-165.5 -69.5q-96 0 -165 70t-69 166zM637 1737q0 -53 36.5 -89t88.5 -36t88.5 36t36.5 89 t-36.5 90t-88.5 37q-53 0 -89 -36.5t-36 -90.5z" />
<glyph unicode="&#xc6;" horiz-adv-x="1753" d="M-98 0l815 1464h710l37 -161h-592l115 -445h584l35 -153h-580l141 -551h572l37 -154h-740l-94 365h-643l-199 -365h-198zM377 516h526l-166 668z" />
<glyph unicode="&#xc7;" horiz-adv-x="1374" d="M102 678q0 177 62.5 332t179.5 272q215 215 537 215q269 0 469 -162l-47 -176q-200 182 -420 182q-121 0 -227.5 -44.5t-184.5 -127.5q-186 -198 -186 -479q0 -263 145 -416t395 -153q189 0 398 137l-39 -205q-176 -92 -387 -92q-203 0 -361 90t-246 253.5t-88 373.5z M469 -422l37 98q149 -45 211 -45q70 0 103.5 23t33.5 76q0 45 -41.5 62.5t-136.5 17.5h-23l66 190h78l-35 -102h22q213 0 213 -166q0 -98 -63.5 -151.5t-185.5 -53.5q-95 0 -279 51z" />
<glyph unicode="&#xc8;" horiz-adv-x="1054" d="M78 0l192 1464h754l-20 -159h-582l-57 -437h581l-20 -157h-582l-74 -549h613l-23 -162h-782zM393 1958h199l211 -348h-109z" />
<glyph unicode="&#xc9;" horiz-adv-x="1054" d="M78 0l192 1464h754l-20 -159h-582l-57 -437h581l-20 -157h-582l-74 -549h613l-23 -162h-782zM518 1610l232 348h190l-301 -348h-121z" />
<glyph unicode="&#xca;" horiz-adv-x="1054" d="M78 0l192 1464h754l-20 -159h-582l-57 -437h581l-20 -157h-582l-74 -549h613l-23 -162h-782zM356 1610l267 348h184l139 -348h-110l-134 219l-225 -219h-121z" />
<glyph unicode="&#xcb;" horiz-adv-x="1054" d="M78 0l192 1464h754l-20 -159h-582l-57 -437h581l-20 -157h-582l-74 -549h613l-23 -162h-782zM418 1774q0 41 32.5 74.5t73.5 33.5q44 0 75.5 -32.5t31.5 -75.5q0 -47 -30.5 -78t-76.5 -31q-45 0 -75.5 31t-30.5 78zM748 1774q0 41 32.5 74.5t73.5 33.5q44 0 75.5 -32.5 t31.5 -75.5q0 -47 -30.5 -78t-76.5 -31q-45 0 -75.5 31t-30.5 78z" />
<glyph unicode="&#xcc;" horiz-adv-x="540" d="M84 0l192 1464h183l-193 -1464h-182zM111 1958h198l211 -348h-108z" />
<glyph unicode="&#xcd;" horiz-adv-x="540" d="M84 0l192 1464h183l-193 -1464h-182zM236 1610l231 348h190l-301 -348h-120z" />
<glyph unicode="&#xce;" horiz-adv-x="540" d="M74 1610l266 348h184l140 -348h-111l-133 219l-225 -219h-121zM84 0l192 1464h183l-193 -1464h-182z" />
<glyph unicode="&#xcf;" horiz-adv-x="540" d="M84 0l192 1464h183l-193 -1464h-182zM135 1774q0 41 33 74.5t74 33.5q44 0 75 -32.5t31 -75.5q0 -47 -30 -78t-76 -31q-45 0 -76 31t-31 78zM465 1774q0 41 32.5 74.5t73.5 33.5q44 0 75.5 -32.5t31.5 -75.5q0 -47 -30.5 -78t-76.5 -31q-45 0 -75.5 31t-30.5 78z" />
<glyph unicode="&#xd0;" horiz-adv-x="1447" d="M-16 735l20 148h207l78 581h198q109 0 159 -1t126.5 -6.5t129.5 -19.5t99 -38q163 -82 255 -244t92 -371q0 -198 -76.5 -366.5t-210.5 -270.5q-55 -42 -119 -70.5t-121 -43.5t-141 -22.5t-143.5 -9t-163.5 -1.5h-277l97 735h-209zM293 160h94q126 0 188 2t142 14.5 t135 38.5q150 71 233.5 216.5t83.5 342.5q0 165 -66.5 289.5t-187.5 187.5q-62 33 -148 44.5t-220 11.5h-103l-55 -424h410l-21 -148h-409z" />
<glyph unicode="&#xd1;" horiz-adv-x="1540" d="M76 2l188 1462h51l830 -1087l145 1089h174l-192 -1466h-51l-826 1077l-145 -1075h-174zM608 1659q49 207 203 207q26 0 68 -11l88 -26q24 -8 49 -8q34 0 54 17.5t32 55.5h102q-28 -103 -78 -152.5t-129 -49.5q-31 0 -55 8l-88 29q-33 10 -55 10q-68 0 -86 -80h-105z" />
<glyph unicode="&#xd2;" horiz-adv-x="1753" d="M104 674q0 179 63.5 335t180.5 269q110 106 259.5 162.5t316.5 56.5q332 0 530.5 -195t198.5 -518q0 -174 -65 -329t-185 -269q-113 -108 -265 -166.5t-323 -58.5q-210 0 -371.5 89.5t-250.5 251.5t-89 372zM279 676q0 -249 152 -402t403 -153q265 0 448 180 q93 93 144 219t51 264q0 248 -154.5 402.5t-407.5 154.5q-126 0 -238.5 -46t-197.5 -132q-97 -98 -148.5 -224t-51.5 -263zM676 1958h198l211 -348h-108z" />
<glyph unicode="&#xd3;" horiz-adv-x="1753" d="M104 674q0 179 63.5 335t180.5 269q110 106 259.5 162.5t316.5 56.5q332 0 530.5 -195t198.5 -518q0 -174 -65 -329t-185 -269q-113 -108 -265 -166.5t-323 -58.5q-210 0 -371.5 89.5t-250.5 251.5t-89 372zM279 676q0 -249 152 -402t403 -153q265 0 448 180 q93 93 144 219t51 264q0 248 -154.5 402.5t-407.5 154.5q-126 0 -238.5 -46t-197.5 -132q-97 -98 -148.5 -224t-51.5 -263zM801 1610l231 348h191l-301 -348h-121z" />
<glyph unicode="&#xd4;" horiz-adv-x="1753" d="M104 674q0 179 63.5 335t180.5 269q110 106 259.5 162.5t316.5 56.5q332 0 530.5 -195t198.5 -518q0 -174 -65 -329t-185 -269q-113 -108 -265 -166.5t-323 -58.5q-210 0 -371.5 89.5t-250.5 251.5t-89 372zM279 676q0 -249 152 -402t403 -153q265 0 448 180 q93 93 144 219t51 264q0 248 -154.5 402.5t-407.5 154.5q-126 0 -238.5 -46t-197.5 -132q-97 -98 -148.5 -224t-51.5 -263zM639 1610l266 348h185l139 -348h-111l-133 219l-225 -219h-121z" />
<glyph unicode="&#xd5;" horiz-adv-x="1753" d="M104 674q0 179 63.5 335t180.5 269q110 106 259.5 162.5t316.5 56.5q332 0 530.5 -195t198.5 -518q0 -174 -65 -329t-185 -269q-113 -108 -265 -166.5t-323 -58.5q-210 0 -371.5 89.5t-250.5 251.5t-89 372zM279 676q0 -249 152 -402t403 -153q265 0 448 180 q93 93 144 219t51 264q0 248 -154.5 402.5t-407.5 154.5q-126 0 -238.5 -46t-197.5 -132q-97 -98 -148.5 -224t-51.5 -263zM674 1659q49 207 203 207q25 0 67 -11l88 -26q24 -8 49 -8q34 0 54 17.5t32 55.5h103q-28 -103 -78 -152.5t-129 -49.5q-31 0 -55 8l-88 29 q-33 10 -56 10q-68 0 -86 -80h-104z" />
<glyph unicode="&#xd6;" horiz-adv-x="1753" d="M104 674q0 179 63.5 335t180.5 269q110 106 259.5 162.5t316.5 56.5q332 0 530.5 -195t198.5 -518q0 -174 -65 -329t-185 -269q-113 -108 -265 -166.5t-323 -58.5q-210 0 -371.5 89.5t-250.5 251.5t-89 372zM279 676q0 -249 152 -402t403 -153q265 0 448 180 q93 93 144 219t51 264q0 248 -154.5 402.5t-407.5 154.5q-126 0 -238.5 -46t-197.5 -132q-97 -98 -148.5 -224t-51.5 -263zM700 1774q0 41 33 74.5t74 33.5q44 0 75 -32.5t31 -75.5q0 -47 -30 -78t-76 -31q-45 0 -76 31t-31 78zM1030 1774q0 41 33 74.5t74 33.5 q44 0 75 -32.5t31 -75.5q0 -47 -30 -78t-76 -31q-45 0 -76 31t-31 78z" />
<glyph unicode="&#xd7;" horiz-adv-x="1705" d="M301 135l475 475l-475 477l80 82l477 -477l475 477l82 -82l-475 -477l475 -475l-82 -82l-475 475l-477 -475z" />
<glyph unicode="&#xd8;" horiz-adv-x="1753" d="M61 31l193 182q-148 179 -148 453q0 181 63.5 336t182.5 268q116 109 265.5 167t318.5 58q300 0 487 -166l176 168l84 -76l-184 -176q154 -180 154 -461q0 -178 -64.5 -333.5t-183.5 -268.5q-115 -108 -264.5 -165.5t-321.5 -57.5q-315 0 -487 172l-191 -178zM276 672 q0 -197 101 -338l919 878q-146 134 -378 134q-260 0 -445 -185q-94 -94 -145.5 -221t-51.5 -268zM453 246q68 -66 165.5 -103t204.5 -37q127 0 247 50t208 139q95 97 148 228t53 272q0 202 -105 329z" />
<glyph unicode="&#xd9;" horiz-adv-x="1417" d="M125 373q0 147 39 422l90 669h178l-117 -891q-12 -95 -12 -131q0 -158 83 -240.5t239 -82.5q224 0 336 151q15 20 27 43.5t21 42t17.5 49.5t13 47t11 55t8.5 53t8 60.5t8 59.5l105 784h176l-109 -823q-13 -94 -20 -139.5t-24 -116t-42.5 -122.5t-62.5 -99 q-79 -99 -204 -153t-282 -54q-225 0 -356 113.5t-131 302.5zM549 1958h199l210 -348h-108z" />
<glyph unicode="&#xda;" horiz-adv-x="1417" d="M125 373q0 147 39 422l90 669h178l-117 -891q-12 -95 -12 -131q0 -158 83 -240.5t239 -82.5q224 0 336 151q15 20 27 43.5t21 42t17.5 49.5t13 47t11 55t8.5 53t8 60.5t8 59.5l105 784h176l-109 -823q-13 -94 -20 -139.5t-24 -116t-42.5 -122.5t-62.5 -99 q-79 -99 -204 -153t-282 -54q-225 0 -356 113.5t-131 302.5zM674 1610l231 348h191l-301 -348h-121z" />
<glyph unicode="&#xdb;" horiz-adv-x="1417" d="M125 373q0 147 39 422l90 669h178l-117 -891q-12 -95 -12 -131q0 -158 83 -240.5t239 -82.5q224 0 336 151q15 20 27 43.5t21 42t17.5 49.5t13 47t11 55t8.5 53t8 60.5t8 59.5l105 784h176l-109 -823q-13 -94 -20 -139.5t-24 -116t-42.5 -122.5t-62.5 -99 q-79 -99 -204 -153t-282 -54q-225 0 -356 113.5t-131 302.5zM512 1610l266 348h185l139 -348h-111l-133 219l-225 -219h-121z" />
<glyph unicode="&#xdc;" horiz-adv-x="1417" d="M125 373q0 147 39 422l90 669h178l-117 -891q-12 -95 -12 -131q0 -158 83 -240.5t239 -82.5q224 0 336 151q15 20 27 43.5t21 42t17.5 49.5t13 47t11 55t8.5 53t8 60.5t8 59.5l105 784h176l-109 -823q-13 -94 -20 -139.5t-24 -116t-42.5 -122.5t-62.5 -99 q-79 -99 -204 -153t-282 -54q-225 0 -356 113.5t-131 302.5zM573 1774q0 41 33 74.5t74 33.5q44 0 75 -32.5t31 -75.5q0 -47 -30 -78t-76 -31q-45 0 -76 31t-31 78zM903 1774q0 41 33 74.5t74 33.5q44 0 75 -32.5t31 -75.5q0 -47 -30 -78t-76 -31q-45 0 -76 31t-31 78z" />
<glyph unicode="&#xdd;" horiz-adv-x="1067" d="M29 1464h188l303 -663l420 663h199l-541 -827l-84 -637h-176l84 639zM500 1610l231 348h191l-301 -348h-121z" />
<glyph unicode="&#xde;" horiz-adv-x="1081" d="M78 0l192 1464h174l-45 -293h66q67 0 100 -0.5t86 -5t86 -13.5t72 -26t72 -43q131 -104 131 -297q0 -222 -158 -344q-81 -61 -181 -77.5t-267 -16.5h-111l-43 -348h-174zM315 504h148q84 0 136 6t95 27q67 31 104.5 94.5t37.5 148.5q0 59 -16 100.5t-44.5 67.5t-77.5 41 t-104 20t-135 5h-74z" />
<glyph unicode="&#xdf;" horiz-adv-x="1124" d="M37 780l16 129h148l26 197q18 138 43.5 219t85.5 141q103 103 277 103q176 0 280.5 -100.5t104.5 -268.5q0 -146 -80.5 -243.5t-228.5 -129.5q141 -11 221 -111.5t80 -269.5q0 -210 -127 -346.5t-318 -136.5q-72 0 -178 29l19 149q71 -35 145 -35q128 0 211.5 94.5 t83.5 241.5q0 170 -86.5 254t-263.5 84h-33l18 129q23 -2 64 -2q150 0 230.5 72t80.5 205q0 117 -61 179t-174 62q-39 0 -69.5 -8.5t-53 -21.5t-40 -40t-28.5 -52.5t-21.5 -71.5t-16.5 -84.5t-15 -102.5l-139 -1044h-158l104 780h-147z" />
<glyph unicode="&#xe0;" horiz-adv-x="1161" d="M53 424q0 228 134.5 376t336.5 148q243 0 334 -217l25 184h157l-120 -915h-160l22 137q-129 -174 -333 -174q-174 0 -285 127t-111 334zM215 424q0 -141 81 -228t208 -87q132 0 225.5 110t93.5 277q0 141 -73.5 226t-188.5 85q-153 0 -249.5 -108t-96.5 -275zM326 1407 h198l211 -348h-108z" />
<glyph unicode="&#xe1;" horiz-adv-x="1161" d="M53 424q0 228 134.5 376t336.5 148q243 0 334 -217l25 184h157l-120 -915h-160l22 137q-129 -174 -333 -174q-174 0 -285 127t-111 334zM215 424q0 -141 81 -228t208 -87q132 0 225.5 110t93.5 277q0 141 -73.5 226t-188.5 85q-153 0 -249.5 -108t-96.5 -275zM451 1059 l231 348h190l-301 -348h-120z" />
<glyph unicode="&#xe2;" horiz-adv-x="1161" d="M53 424q0 228 134.5 376t336.5 148q243 0 334 -217l25 184h157l-120 -915h-160l22 137q-129 -174 -333 -174q-174 0 -285 127t-111 334zM215 424q0 -141 81 -228t208 -87q132 0 225.5 110t93.5 277q0 141 -73.5 226t-188.5 85q-153 0 -249.5 -108t-96.5 -275zM289 1059 l266 348h184l140 -348h-111l-133 219l-225 -219h-121z" />
<glyph unicode="&#xe3;" horiz-adv-x="1161" d="M53 424q0 228 134.5 376t336.5 148q243 0 334 -217l25 184h157l-120 -915h-160l22 137q-129 -174 -333 -174q-174 0 -285 127t-111 334zM215 424q0 -141 81 -228t208 -87q132 0 225.5 110t93.5 277q0 141 -73.5 226t-188.5 85q-153 0 -249.5 -108t-96.5 -275zM324 1108 q49 207 202 207q30 0 68 -10l88 -27q24 -8 49 -8q34 0 54 17.5t32 55.5h103q-28 -103 -78 -152.5t-129 -49.5q-32 0 -56 8l-88 29q-33 10 -55 10q-68 0 -86 -80h-104z" />
<glyph unicode="&#xe4;" horiz-adv-x="1161" d="M53 424q0 228 134.5 376t336.5 148q243 0 334 -217l25 184h157l-120 -915h-160l22 137q-129 -174 -333 -174q-174 0 -285 127t-111 334zM215 424q0 -141 81 -228t208 -87q132 0 225.5 110t93.5 277q0 141 -73.5 226t-188.5 85q-153 0 -249.5 -108t-96.5 -275zM350 1223 q0 41 33 74.5t74 33.5q44 0 75 -32.5t31 -75.5q0 -47 -30 -78t-76 -31q-45 0 -76 31t-31 78zM680 1223q0 41 32.5 74.5t73.5 33.5q44 0 75.5 -32.5t31.5 -75.5q0 -47 -30.5 -78t-76.5 -31q-45 0 -75.5 31t-30.5 78z" />
<glyph unicode="&#xe5;" horiz-adv-x="1161" d="M53 424q0 228 134.5 376t336.5 148q243 0 334 -217l25 184h157l-120 -915h-160l22 137q-129 -174 -333 -174q-174 0 -285 127t-111 334zM215 424q0 -141 81 -228t208 -87q132 0 225.5 110t93.5 277q0 141 -73.5 226t-188.5 85q-153 0 -249.5 -108t-96.5 -275zM383 1245 q0 97 68 165.5t165 68.5q98 0 167 -68t69 -166q0 -97 -69 -165t-167 -68q-96 0 -164.5 68.5t-68.5 164.5zM492 1245q0 -53 36 -90t88 -37t89.5 37t37.5 90q0 52 -37 88.5t-90 36.5t-88.5 -35.5t-35.5 -89.5z" />
<glyph unicode="&#xe6;" horiz-adv-x="1705" d="M10 250q0 143 108.5 234t289.5 91q185 0 311 -102q10 71 10 129q0 101 -69 158t-197 57q-150 0 -291 -80v152q163 57 346 57q125 0 210.5 -46t117.5 -130q124 182 360 182q199 0 306.5 -116t107.5 -334q0 -45 -2 -70h-735v-12q0 -151 75.5 -235.5t208.5 -84.5 q157 0 277 160l110 -90q-159 -209 -393 -209q-266 0 -375 201q-138 -199 -405 -199q-177 0 -274 76t-97 211zM174 256q0 -74 62.5 -118t169.5 -44q134 0 208 47t74 129q0 76 -67.5 123t-182.5 47q-126 0 -195 -49t-69 -135zM899 561h565q-1 124 -67.5 191t-184.5 67 t-202.5 -69.5t-110.5 -188.5z" />
<glyph unicode="&#xe7;" horiz-adv-x="948" d="M41 416q0 233 148 382.5t386 149.5q168 0 320 -94l-23 -176q-139 139 -307 139q-159 0 -260.5 -111t-101.5 -292q0 -142 87 -231t232 -89q73 0 140 29.5t145 91.5l-25 -172q-113 -82 -290 -82q-201 0 -326 125.5t-125 329.5zM162 -422l37 98q149 -45 211 -45 q70 0 103.5 23t33.5 76q0 45 -41.5 62.5t-136.5 17.5h-23l66 190h77l-34 -102h22q213 0 213 -166q0 -98 -64 -151.5t-186 -53.5q-94 0 -278 51z" />
<glyph unicode="&#xe8;" horiz-adv-x="1040" d="M41 418q0 230 140 380t351 150q191 0 297.5 -116.5t106.5 -329.5q0 -47 -2 -72h-733v-16q0 -147 75.5 -231.5t204.5 -84.5q158 0 281 160l110 -90q-160 -207 -385 -207q-205 0 -325.5 123.5t-120.5 333.5zM215 561h567q-1 124 -67.5 191t-184.5 67t-203.5 -69.5 t-111.5 -188.5zM268 1407h199l211 -348h-109z" />
<glyph unicode="&#xe9;" horiz-adv-x="1040" d="M41 418q0 230 140 380t351 150q191 0 297.5 -116.5t106.5 -329.5q0 -47 -2 -72h-733v-16q0 -147 75.5 -231.5t204.5 -84.5q158 0 281 160l110 -90q-160 -207 -385 -207q-205 0 -325.5 123.5t-120.5 333.5zM215 561h567q-1 124 -67.5 191t-184.5 67t-203.5 -69.5 t-111.5 -188.5zM393 1059l232 348h190l-301 -348h-121z" />
<glyph unicode="&#xea;" horiz-adv-x="1040" d="M41 418q0 230 140 380t351 150q191 0 297.5 -116.5t106.5 -329.5q0 -47 -2 -72h-733v-16q0 -147 75.5 -231.5t204.5 -84.5q158 0 281 160l110 -90q-160 -207 -385 -207q-205 0 -325.5 123.5t-120.5 333.5zM215 561h567q-1 124 -67.5 191t-184.5 67t-203.5 -69.5 t-111.5 -188.5zM231 1059l267 348h184l139 -348h-110l-133 219l-226 -219h-121z" />
<glyph unicode="&#xeb;" horiz-adv-x="1040" d="M41 418q0 230 140 380t351 150q191 0 297.5 -116.5t106.5 -329.5q0 -47 -2 -72h-733v-16q0 -147 75.5 -231.5t204.5 -84.5q158 0 281 160l110 -90q-160 -207 -385 -207q-205 0 -325.5 123.5t-120.5 333.5zM215 561h567q-1 124 -67.5 191t-184.5 67t-203.5 -69.5 t-111.5 -188.5zM293 1223q0 41 32.5 74.5t73.5 33.5q44 0 75.5 -32.5t31.5 -75.5q0 -47 -30.5 -78t-76.5 -31q-45 0 -75.5 31t-30.5 78zM623 1223q0 41 32.5 74.5t73.5 33.5q44 0 75.5 -32.5t31.5 -75.5q0 -47 -30.5 -78t-76.5 -31q-45 0 -75.5 31t-30.5 78z" />
<glyph unicode="&#xec;" horiz-adv-x="493" d="M14 1407h199l211 -348h-109zM72 0l121 915h159l-121 -915h-159z" />
<glyph unicode="&#xed;" horiz-adv-x="493" d="M72 0l121 915h159l-121 -915h-159zM139 1059l232 348h190l-301 -348h-121z" />
<glyph unicode="&#xee;" horiz-adv-x="493" d="M-23 1059l267 348h184l139 -348h-110l-133 219l-226 -219h-121zM72 0l121 915h159l-121 -915h-159z" />
<glyph unicode="&#xef;" horiz-adv-x="493" d="M39 1223q0 41 32.5 74.5t73.5 33.5q44 0 75.5 -32.5t31.5 -75.5q0 -47 -30.5 -78t-76.5 -31q-45 0 -75.5 31t-30.5 78zM72 0l121 915h159l-121 -915h-159zM369 1223q0 41 32.5 74.5t73.5 33.5q44 0 75.5 -32.5t31.5 -75.5q0 -47 -30.5 -78t-76.5 -31q-45 0 -75.5 31 t-30.5 78z" />
<glyph unicode="&#xf0;" horiz-adv-x="1128" d="M41 399q0 209 142 349.5t352 140.5q117 0 211 -49t153 -140q-3 276 -117 488l-305 -72l-31 101l271 63q-17 31 -55.5 67.5t-114.5 100.5l76 98q143 -98 241 -235l248 57l33 -96l-221 -53q116 -247 116 -545q0 -350 -137 -531.5t-397 -181.5q-212 0 -338.5 120.5 t-126.5 317.5zM201 408q0 -140 87 -231t224 -91q149 0 244.5 100.5t95.5 255.5q0 145 -88.5 233.5t-235.5 88.5q-140 0 -233.5 -101.5t-93.5 -254.5z" />
<glyph unicode="&#xf1;" horiz-adv-x="1110" d="M66 0l120 915h152l-21 -149q148 182 345 182q131 0 207.5 -72t76.5 -196q0 -45 -8 -102l-76 -578h-160l72 561q8 70 8 84q0 82 -50 125t-146 43q-125 0 -202.5 -89.5t-100.5 -260.5l-62 -463h-155zM336 1108q49 207 203 207q29 0 67 -10l88 -27q24 -8 49 -8q34 0 54 17.5 t32 55.5h103q-28 -103 -78 -152.5t-129 -49.5q-31 0 -55 8l-88 29q-33 10 -56 10q-68 0 -86 -80h-104z" />
<glyph unicode="&#xf2;" horiz-adv-x="1128" d="M41 420q0 148 67.5 269.5t186 190t262.5 68.5q201 0 330 -126.5t129 -311.5q0 -246 -144 -397.5t-370 -151.5q-209 0 -335 127t-126 332zM201 424q0 -151 85.5 -243.5t225.5 -92.5q150 0 248 111t98 282q0 148 -86.5 243t-222.5 95q-150 0 -249 -111.5t-99 -283.5z M307 1407h199l211 -348h-109z" />
<glyph unicode="&#xf3;" horiz-adv-x="1128" d="M41 420q0 148 67.5 269.5t186 190t262.5 68.5q201 0 330 -126.5t129 -311.5q0 -246 -144 -397.5t-370 -151.5q-209 0 -335 127t-126 332zM201 424q0 -151 85.5 -243.5t225.5 -92.5q150 0 248 111t98 282q0 148 -86.5 243t-222.5 95q-150 0 -249 -111.5t-99 -283.5z M432 1059l232 348h190l-301 -348h-121z" />
<glyph unicode="&#xf4;" horiz-adv-x="1128" d="M41 420q0 148 67.5 269.5t186 190t262.5 68.5q201 0 330 -126.5t129 -311.5q0 -246 -144 -397.5t-370 -151.5q-209 0 -335 127t-126 332zM201 424q0 -151 85.5 -243.5t225.5 -92.5q150 0 248 111t98 282q0 148 -86.5 243t-222.5 95q-150 0 -249 -111.5t-99 -283.5z M270 1059l267 348h184l139 -348h-110l-134 219l-225 -219h-121z" />
<glyph unicode="&#xf5;" horiz-adv-x="1128" d="M41 420q0 148 67.5 269.5t186 190t262.5 68.5q201 0 330 -126.5t129 -311.5q0 -246 -144 -397.5t-370 -151.5q-209 0 -335 127t-126 332zM201 424q0 -151 85.5 -243.5t225.5 -92.5q150 0 248 111t98 282q0 148 -86.5 243t-222.5 95q-150 0 -249 -111.5t-99 -283.5z M305 1108q49 207 203 207q29 0 67 -10l89 -27q24 -8 49 -8q34 0 54 17.5t32 55.5h102q-28 -103 -78 -152.5t-129 -49.5q-31 0 -55 8l-88 29q-33 10 -55 10q-68 0 -86 -80h-105z" />
<glyph unicode="&#xf6;" horiz-adv-x="1128" d="M41 420q0 148 67.5 269.5t186 190t262.5 68.5q201 0 330 -126.5t129 -311.5q0 -246 -144 -397.5t-370 -151.5q-209 0 -335 127t-126 332zM201 424q0 -151 85.5 -243.5t225.5 -92.5q150 0 248 111t98 282q0 148 -86.5 243t-222.5 95q-150 0 -249 -111.5t-99 -283.5z M332 1223q0 41 32.5 74.5t73.5 33.5q44 0 75.5 -32.5t31.5 -75.5q0 -47 -30.5 -78t-76.5 -31q-45 0 -75.5 31t-30.5 78zM662 1223q0 41 32.5 74.5t73.5 33.5q44 0 75 -32.5t31 -75.5q0 -47 -30 -78t-76 -31q-45 0 -75.5 31t-30.5 78z" />
<glyph unicode="&#xf7;" horiz-adv-x="1705" d="M254 553v117h1198v-117h-1198zM739 250q0 49 34 82t81 33q46 0 80.5 -34t34.5 -81t-33 -81t-82 -34q-47 0 -81 34t-34 81zM739 971q0 47 34.5 80.5t80.5 33.5q47 0 81 -33.5t34 -80.5t-33 -81t-82 -34t-82 33.5t-33 81.5z" />
<glyph unicode="&#xf8;" horiz-adv-x="1128" d="M-18 20l137 123q-80 130 -80 260q0 235 148 389t376 154q195 0 314 -119l131 121l71 -71l-139 -127q76 -107 76 -258q0 -234 -146.5 -383.5t-375.5 -149.5q-94 0 -167 26t-143 85l-141 -125zM203 430q0 -106 37 -176l522 473q-73 84 -207 84q-152 0 -252 -107t-100 -274z M299 174q86 -80 207 -80q152 0 251 108t99 267q0 112 -37 174z" />
<glyph unicode="&#xf9;" horiz-adv-x="1048" d="M98 244q0 40 25 245l55 426h160l-53 -405q-27 -210 -27 -248q0 -74 51 -115t144 -41q43 0 76.5 7.5t58.5 20.5t44 37t31.5 49.5t23 66.5t17 79t13.5 95l59 454h158l-62 -464q-1 -11 -4 -31q-9 -68 -14.5 -102.5t-18.5 -84.5t-34.5 -88t-52.5 -71q-107 -113 -304 -113 q-158 0 -252 78t-94 205zM309 1407h199l211 -348h-109z" />
<glyph unicode="&#xfa;" horiz-adv-x="1048" d="M98 244q0 40 25 245l55 426h160l-53 -405q-27 -210 -27 -248q0 -74 51 -115t144 -41q43 0 76.5 7.5t58.5 20.5t44 37t31.5 49.5t23 66.5t17 79t13.5 95l59 454h158l-62 -464q-1 -11 -4 -31q-9 -68 -14.5 -102.5t-18.5 -84.5t-34.5 -88t-52.5 -71q-107 -113 -304 -113 q-158 0 -252 78t-94 205zM434 1059l232 348h190l-301 -348h-121z" />
<glyph unicode="&#xfb;" horiz-adv-x="1048" d="M98 244q0 40 25 245l55 426h160l-53 -405q-27 -210 -27 -248q0 -74 51 -115t144 -41q43 0 76.5 7.5t58.5 20.5t44 37t31.5 49.5t23 66.5t17 79t13.5 95l59 454h158l-62 -464q-1 -11 -4 -31q-9 -68 -14.5 -102.5t-18.5 -84.5t-34.5 -88t-52.5 -71q-107 -113 -304 -113 q-158 0 -252 78t-94 205zM272 1059l267 348h184l139 -348h-110l-134 219l-225 -219h-121z" />
<glyph unicode="&#xfc;" horiz-adv-x="1048" d="M98 244q0 40 25 245l55 426h160l-53 -405q-27 -210 -27 -248q0 -74 51 -115t144 -41q43 0 76.5 7.5t58.5 20.5t44 37t31.5 49.5t23 66.5t17 79t13.5 95l59 454h158l-62 -464q-1 -11 -4 -31q-9 -68 -14.5 -102.5t-18.5 -84.5t-34.5 -88t-52.5 -71q-107 -113 -304 -113 q-158 0 -252 78t-94 205zM334 1223q0 41 32.5 74.5t73.5 33.5q44 0 75.5 -32.5t31.5 -75.5q0 -47 -30.5 -78t-76.5 -31q-45 0 -75.5 31t-30.5 78zM664 1223q0 41 32.5 74.5t73.5 33.5q44 0 75.5 -32.5t31.5 -75.5q0 -47 -30.5 -78t-76.5 -31q-45 0 -75.5 31t-30.5 78z" />
<glyph unicode="&#xfd;" horiz-adv-x="952" d="M-12 -410l297 510l-250 815h170l188 -653l357 653h182l-766 -1325h-178zM346 1059l232 348h190l-301 -348h-121z" />
<glyph unicode="&#xfe;" horiz-adv-x="1161" d="M-4 -446l264 1996h162l-109 -778q123 176 332 176q170 0 282.5 -128.5t112.5 -330.5q0 -223 -134 -373.5t-333 -150.5q-244 0 -331 215l-82 -626h-164zM270 414q0 -140 72.5 -224t189.5 -84q153 0 250 107t97 272q0 140 -81 227t-208 87q-133 0 -226.5 -109.5 t-93.5 -275.5z" />
<glyph unicode="&#xff;" horiz-adv-x="952" d="M-12 -410l297 510l-250 815h170l188 -653l357 653h182l-766 -1325h-178zM268 1223q0 41 33 74.5t74 33.5q44 0 75 -32.5t31 -75.5q0 -47 -30 -78t-76 -31q-45 0 -76 31t-31 78zM598 1223q0 41 33 74.5t74 33.5q44 0 75 -32.5t31 -75.5q0 -47 -30 -78t-76 -31 q-45 0 -76 31t-31 78z" />
<glyph unicode="&#x152;" horiz-adv-x="2299" d="M106 676q0 179 62 334t178 270q113 110 262 169.5t316 59.5q204 0 357.5 -85.5t225.5 -239.5l39 280h740l-21 -155h-569l-60 -441h570l-21 -155h-569l-72 -557h594l-20 -156h-764l41 236q-91 -130 -248 -204.5t-342 -74.5q-155 0 -285.5 52t-221.5 146t-141.5 228 t-50.5 293zM281 670q0 -242 150.5 -396.5t389.5 -154.5q259 0 432 182q94 98 144.5 227.5t50.5 270.5q0 245 -152.5 398t-396.5 153q-122 0 -231.5 -46.5t-192.5 -134.5q-92 -97 -143 -227.5t-51 -271.5z" />
<glyph unicode="&#x153;" horiz-adv-x="1849" d="M41 420q0 148 67 268.5t186 189t265 68.5q258 0 387 -207q143 209 397 209q191 0 297.5 -117t106.5 -331q0 -47 -2 -72h-733v-27q0 -141 75.5 -223t204.5 -82q159 0 279 160l110 -90q-158 -207 -385 -207q-271 0 -383 203q-150 -203 -409 -203q-210 0 -336.5 127 t-126.5 334zM207 426q0 -147 83.5 -237.5t221.5 -90.5q147 0 243.5 108t96.5 275q0 143 -85 234.5t-218 91.5q-147 0 -244.5 -107.5t-97.5 -273.5zM1014 561h577q-1 124 -68 191t-188 67q-120 0 -207.5 -69.5t-113.5 -188.5z" />
<glyph unicode="&#x178;" horiz-adv-x="1067" d="M29 1464h188l303 -663l420 663h199l-541 -827l-84 -637h-176l84 639zM399 1774q0 41 33 74.5t74 33.5q44 0 75 -32.5t31 -75.5q0 -47 -30 -78t-76 -31q-45 0 -76 31t-31 78zM729 1774q0 41 33 74.5t74 33.5q44 0 75 -32.5t31 -75.5q0 -47 -30 -78t-76 -31q-45 0 -76 31 t-31 78z" />
<glyph unicode="&#x2c6;" horiz-adv-x="1024" d="M242 1059l266 348h184l139 -348h-110l-133 219l-226 -219h-120z" />
<glyph unicode="&#x2dc;" horiz-adv-x="1024" d="M276 1108q49 207 203 207q30 0 68 -10l88 -27q24 -8 49 -8q34 0 54 17.5t32 55.5h102q-28 -104 -77.5 -153t-128.5 -49q-32 0 -56 8l-88 29q-33 10 -55 10q-68 0 -86 -80h-105z" />
<glyph unicode="&#x2000;" horiz-adv-x="986" />
<glyph unicode="&#x2001;" horiz-adv-x="1972" />
<glyph unicode="&#x2002;" horiz-adv-x="986" />
<glyph unicode="&#x2003;" horiz-adv-x="1972" />
<glyph unicode="&#x2004;" horiz-adv-x="657" />
<glyph unicode="&#x2005;" horiz-adv-x="493" />
<glyph unicode="&#x2006;" horiz-adv-x="328" />
<glyph unicode="&#x2007;" horiz-adv-x="328" />
<glyph unicode="&#x2008;" horiz-adv-x="246" />
<glyph unicode="&#x2009;" horiz-adv-x="394" />
<glyph unicode="&#x200a;" horiz-adv-x="109" />
<glyph unicode="&#x2010;" horiz-adv-x="673" d="M57 377l19 155h471l-21 -155h-469z" />
<glyph unicode="&#x2011;" horiz-adv-x="673" d="M57 377l19 155h471l-21 -155h-469z" />
<glyph unicode="&#x2012;" horiz-adv-x="673" d="M57 377l19 155h471l-21 -155h-469z" />
<glyph unicode="&#x2013;" horiz-adv-x="1024" d="M-41 395l14 119h1022l-14 -119h-1022z" />
<glyph unicode="&#x2014;" horiz-adv-x="2048" d="M-41 395l14 119h2048l-14 -119h-2048z" />
<glyph unicode="&#x2018;" horiz-adv-x="589" d="M154 1038l307 459l100 -63l-262 -488z" />
<glyph unicode="&#x2019;" horiz-adv-x="589" d="M143 1010l263 487l145 -92l-307 -459z" />
<glyph unicode="&#x201a;" horiz-adv-x="589" d="M-49 -213l262 489l147 -92l-309 -460z" />
<glyph unicode="&#x201c;" horiz-adv-x="948" d="M150 1038l309 459l100 -63l-262 -488zM518 1038l309 459l101 -63l-262 -488z" />
<glyph unicode="&#x201d;" horiz-adv-x="948" d="M141 1010l262 487l148 -92l-309 -459zM508 1010l262 487l148 -92l-310 -459z" />
<glyph unicode="&#x201e;" horiz-adv-x="948" d="M-45 -213l262 489l148 -92l-310 -460zM324 -213l262 489l145 -92l-309 -460z" />
<glyph unicode="&#x2022;" horiz-adv-x="1208" d="M307 762q0 123 87 209t210 86q122 0 208.5 -86t86.5 -209q0 -122 -87 -209.5t-210 -87.5t-209 87t-86 210z" />
<glyph unicode="&#x2026;" horiz-adv-x="2048" d="M141 94q0 47 34 81t81 34t81 -34t34 -81t-33 -79.5t-82 -32.5t-82 32.5t-33 79.5zM823 94q0 47 34 81t81 34t81 -34t34 -81t-33 -79.5t-82 -32.5t-82 32.5t-33 79.5zM1507 94q0 47 34 81t81 34t81 -34t34 -81t-33 -79.5t-82 -32.5t-82 32.5t-33 79.5z" />
<glyph unicode="&#x202f;" horiz-adv-x="394" />
<glyph unicode="&#x2039;" horiz-adv-x="573" d="M41 461l356 401l84 -86l-295 -323l213 -338l-98 -68z" />
<glyph unicode="&#x203a;" horiz-adv-x="573" d="M20 133l295 324l-213 338l99 67l260 -413l-359 -402z" />
<glyph unicode="&#x205f;" horiz-adv-x="493" />
<glyph unicode="&#x20ac;" d="M10 547l47 102h146q3 85 14 156h-162l47 106h136q65 265 225.5 416.5t365.5 151.5q190 0 353 -129l-37 -174q-126 147 -311 147q-146 0 -255 -107t-161 -305h635l-58 -106h-598q-13 -85 -16 -156h528l-57 -102h-471q4 -213 84 -323.5t227 -110.5q148 0 322 110l-39 -194 q-137 -70 -293 -70q-228 0 -352 152t-127 436h-193z" />
<glyph unicode="&#x2122;" horiz-adv-x="1705" d="M254 1389v67h440v-67h-172v-467h-94v467h-174zM819 922v534h129l160 -405l149 405h132v-534h-82v458l-172 -458h-54l-180 458v-458h-82z" />
<glyph unicode="&#xe000;" horiz-adv-x="911" d="M0 0v911h911v-911h-911z" />
<glyph unicode="&#xfb01;" horiz-adv-x="1114" d="M61 782l17 133h170l35 269q14 105 32.5 173t50 118t79.5 72t118 22q77 0 146 -35l-27 -139q-73 32 -107 32q-63 0 -88 -49.5t-41 -177.5l-38 -285h202l-18 -133h-201l-102 -782h-162l102 782h-168zM692 0l121 915h160l-121 -915h-160zM825 1348q0 44 31.5 76t77.5 32 q45 0 76.5 -31.5t31.5 -76.5q0 -46 -31.5 -78.5t-76.5 -32.5t-77 33t-32 78z" />
<glyph unicode="&#xfb02;" horiz-adv-x="1114" d="M61 782l17 133h170l35 269q14 105 32.5 173t50 118t79.5 72t118 22q77 0 146 -35l-27 -139q-73 32 -107 32q-63 0 -88 -49.5t-41 -177.5l-38 -285h202l-18 -133h-201l-102 -782h-162l102 782h-168zM692 0l203 1550h162l-205 -1550h-160z" />
</font>
</defs>
</svg>
