<?xml version="1.0" standalone="no"?>
<!DOCTYPE svg PUBLIC "-//W3C//DTD SVG 1.1//EN" "http://www.w3.org/Graphics/SVG/1.1/DTD/svg11.dtd" >
<svg xmlns="http://www.w3.org/2000/svg">
<metadata></metadata>
<defs>
<font id="aig_futura_medium_italic" horiz-adv-x="1208" >
<font-face units-per-em="2048" ascent="1638" descent="-410" />
<missing-glyph horiz-adv-x="604" />
<glyph horiz-adv-x="2048" />
<glyph horiz-adv-x="2048" />
<glyph unicode="&#xd;" horiz-adv-x="2048" />
<glyph unicode=" "  horiz-adv-x="604" />
<glyph unicode="&#x09;" horiz-adv-x="604" />
<glyph unicode="&#xa0;" horiz-adv-x="604" />
<glyph unicode="!" horiz-adv-x="651" d="M111 96q0 55 38.5 93t94.5 38t94.5 -37.5t38.5 -93.5t-38.5 -95.5t-94.5 -39.5t-94.5 39.5t-38.5 95.5zM166 338l156 1159h219l-154 -1159h-221z" />
<glyph unicode="&#x22;" horiz-adv-x="643" d="M86 879v557h164v-557h-164zM395 879v557h164v-557h-164z" />
<glyph unicode="#" horiz-adv-x="1574" d="M70 428l61 172h297l90 252h-315l61 172h316l155 436h191l-154 -436h250l156 436h190l-154 -436h291l-59 -172h-293l-90 -252h309l-61 -172h-307l-156 -434h-191l156 434h-252l-158 -434h-190l156 434h-299zM618 598h256l91 254h-256z" />
<glyph unicode="$" d="M68 252l161 129q57 -108 121 -162.5t144 -58.5l63 499q-166 86 -239.5 174.5t-73.5 215.5q0 177 117 297t305 127l22 169h107l-25 -172q207 -26 326 -210l-138 -125q-89 135 -210 151l-62 -450q167 -79 245.5 -180.5t78.5 -243.5q0 -189 -116 -306.5t-323 -134.5 l-28 -215h-107l31 213q-270 12 -399 283zM473 1063q0 -105 115 -174l53 391q-75 -17 -121.5 -77t-46.5 -140zM596 168q87 20 135.5 81t48.5 148q0 136 -125 205z" />
<glyph unicode="%" horiz-adv-x="1497" d="M61 1032q0 200 99 325.5t250 125.5q274 0 274 -326q0 -192 -99.5 -317t-246.5 -125q-277 0 -277 317zM227 1018q0 -184 109 -184q76 0 130 100.5t54 261.5q0 168 -108 168q-77 0 -131 -98t-54 -248zM250 -39l850 1518h147l-852 -1518h-145zM823 274q0 200 98.5 325.5 t249.5 125.5q275 0 275 -328q0 -192 -99 -316t-247 -124q-277 0 -277 317zM989 260q0 -184 109 -184q76 0 130 100t54 260q0 170 -108 170q-77 0 -131 -97.5t-54 -248.5z" />
<glyph unicode="&#x26;" horiz-adv-x="1320" d="M29 356q0 109 47.5 197.5t135 160t234.5 152.5q-118 191 -118 320q0 145 92 230t252 85q156 0 245 -77t89 -207q0 -118 -75.5 -209.5t-240.5 -188.5q104 -166 250 -364l188 207l119 -140l-207 -217l230 -305h-240l-129 172q-111 -108 -222 -159.5t-239 -51.5 q-189 0 -300 108.5t-111 286.5zM229 367q0 -96 66 -159t168 -63q79 0 160 44t178 135q-123 171 -258 397q-164 -95 -239 -176t-75 -178zM520 1190q0 -90 84 -234q118 82 167.5 133.5t49.5 108.5q0 62 -40 97.5t-113 35.5q-68 0 -108 -38.5t-40 -102.5z" />
<glyph unicode="'" horiz-adv-x="333" d="M86 879v557h164v-557h-164z" />
<glyph unicode="(" horiz-adv-x="667" d="M143 322q0 343 114.5 657t338.5 582l123 -95q-200 -249 -304 -540.5t-104 -601.5q0 -405 166 -748l-155 -63q-179 391 -179 809z" />
<glyph unicode=")" horiz-adv-x="667" d="M-106 -391q200 249 303.5 540t103.5 601q0 404 -166 747l156 64q178 -389 178 -809q0 -343 -114.5 -657t-338.5 -582z" />
<glyph unicode="*" horiz-adv-x="901" d="M158 1053l245 84l-217 145l80 107l191 -172l10 247l135 -16l-51 -242l225 121l53 -123l-247 -86l217 -145l-82 -105l-187 172l-10 -247l-135 14l51 244l-225 -121z" />
<glyph unicode="+" horiz-adv-x="1705" d="M254 528v166h514v527h170v-527h514v-166h-514v-528h-170v528h-514z" />
<glyph unicode="," horiz-adv-x="604" d="M-74 -221l289 514l178 -105l-348 -481z" />
<glyph unicode="-" horiz-adv-x="749" d="M72 375l24 192h512l-24 -192h-512z" />
<glyph unicode="." horiz-adv-x="604" d="M96 111q0 55 38 93t93 38t93 -38t38 -93q0 -54 -38 -91.5t-93 -37.5t-93 37.5t-38 91.5z" />
<glyph unicode="/" horiz-adv-x="948" d="M0 -190l782 1687h166l-782 -1687h-166z" />
<glyph unicode="0" d="M80 567q0 398 172 666q157 246 432 246q213 0 328.5 -156t115.5 -451q0 -195 -45.5 -365t-126.5 -298q-160 -248 -434 -248q-212 0 -327 156t-115 450zM311 543q0 -383 221 -383q164 0 263.5 194t99.5 533q0 202 -54.5 298.5t-174.5 96.5q-158 0 -256.5 -197.5 t-98.5 -541.5z" />
<glyph unicode="1" d="M350 1255l105 195h434l-193 -1450h-223l166 1255h-289z" />
<glyph unicode="2" d="M-10 0l585 588q70 70 108.5 110t84.5 95t68.5 94t38.5 86.5t16 93.5q0 108 -65.5 166.5t-186.5 58.5q-107 0 -180.5 -74.5t-83.5 -201.5h-223q11 220 144 341.5t363 121.5q217 0 339 -106.5t122 -291.5q0 -47 -7.5 -91.5t-27 -90t-39.5 -84t-59 -88t-70 -86.5t-88 -95.5 t-97.5 -98.5t-113.5 -111l-143 -139h547l-41 -197h-991z" />
<glyph unicode="3" d="M78 387h229v-12q0 -96 66 -156.5t168 -60.5q128 0 206 75t78 197q0 110 -78 167.5t-227 57.5h-37l25 183q16 -2 49 -2q149 0 231 65.5t82 179.5q0 97 -59.5 151t-169.5 54q-98 0 -161.5 -52.5t-78.5 -146.5h-217q26 183 151 287.5t316 104.5q199 0 320 -100.5t121 -260.5 q0 -137 -79.5 -237t-219.5 -138q256 -83 256 -346q0 -186 -141 -310t-373 -124q-213 0 -333.5 112t-123.5 312z" />
<glyph unicode="4" d="M-43 313v35l1004 1116h81l-127 -962h168l-24 -189h-168l-41 -313h-215l41 313h-719zM332 500h375l57 387q12 81 31 160q-46 -61 -111 -142z" />
<glyph unicode="5" d="M16 190l158 142q116 -174 305 -174q150 0 253.5 99t103.5 241q0 147 -85.5 229t-238.5 82q-140 0 -317 -119l-39 19l217 741h708l-24 -182h-518l-88 -285q68 8 118 8q220 0 354 -133.5t134 -345.5q0 -153 -73 -280t-201.5 -200t-284.5 -73q-159 0 -274.5 55t-207.5 176z " />
<glyph unicode="6" d="M80 395q0 70 20 139.5t41.5 118.5t79 128t88 115.5t114.5 133.5q9 11 14 17t13 15t15 17l383 443l151 -140l-448 -518q65 10 113 10q190 0 303.5 -114.5t113.5 -304.5q0 -137 -69.5 -250t-196 -179.5t-285.5 -66.5q-205 0 -327.5 119.5t-122.5 316.5zM305 408 q0 -116 68.5 -185t183.5 -69q129 0 214 84.5t85 214.5q0 121 -69 190.5t-193 69.5q-123 0 -206 -87.5t-83 -217.5z" />
<glyph unicode="7" d="M166 45l702 1217h-657l25 188h985l-873 -1509z" />
<glyph unicode="8" d="M90 383q0 309 328 412q-203 110 -203 301q0 170 127.5 276.5t333.5 106.5q192 0 304 -96.5t112 -258.5q0 -128 -75 -217.5t-216 -134.5q120 -35 184 -121t64 -211q0 -214 -138 -345.5t-366 -131.5q-214 0 -334.5 112.5t-120.5 307.5zM311 389q0 -103 67 -167t175 -64 q121 0 198.5 78.5t77.5 201.5q0 104 -67 165t-180 61q-118 0 -194.5 -77t-76.5 -198zM430 1061q0 -92 55.5 -144.5t151.5 -52.5q106 0 169.5 64.5t63.5 177.5q0 79 -57 131.5t-145 52.5q-108 0 -173 -63t-65 -166z" />
<glyph unicode="9" d="M123 981q0 137 69 250.5t195.5 180.5t284.5 67q205 0 328.5 -120t123.5 -317q0 -70 -20 -139.5t-41.5 -118.5t-79 -128t-88 -115.5t-114.5 -133.5q-28 -32 -42 -49l-383 -442l-151 139l448 518q-65 -10 -112 -10q-190 0 -304 114.5t-114 303.5zM348 985q0 -121 69 -190.5 t193 -69.5q123 0 205 87t82 218q0 117 -68 185.5t-182 68.5q-129 0 -214 -84.5t-85 -214.5z" />
<glyph unicode=":" horiz-adv-x="651" d="M100 111q0 54 38.5 92.5t92.5 38.5q55 0 93 -38t38 -93q0 -54 -38 -91.5t-93 -37.5t-93 37.5t-38 91.5zM190 795q0 54 37.5 91.5t91.5 37.5q56 0 94 -37t38 -92q0 -54 -38.5 -92.5t-93.5 -38.5t-92 38t-37 93z" />
<glyph unicode=";" horiz-adv-x="651" d="M-59 -221l288 514l179 -105l-349 -481zM190 795q0 54 39 91.5t93 37.5q56 0 93.5 -37t37.5 -92q0 -54 -38 -92.5t-93 -38.5t-93.5 38.5t-38.5 92.5z" />
<glyph unicode="&#x3c;" horiz-adv-x="1705" d="M264 530v160l1178 486v-185l-934 -381l934 -381v-182z" />
<glyph unicode="=" horiz-adv-x="1705" d="M254 322v165h1198v-165h-1198zM254 733v168h1198v-168h-1198z" />
<glyph unicode="&#x3e;" horiz-adv-x="1705" d="M264 47v182l934 381l-934 381v185l1178 -486v-160z" />
<glyph unicode="?" horiz-adv-x="1062" d="M168 610q0 68 17.5 119t56.5 92.5t86 72t121 67.5q149 74 184 98q74 51 83 116q1 11 1 23q0 52 -43 89.5t-111 37.5q-70 0 -117.5 -44t-54.5 -120h-198q11 155 113.5 246.5t268.5 91.5q162 0 258.5 -85t96.5 -226q0 -94 -60 -168t-186 -143q-33 -18 -80 -42.5t-71.5 -37 t-56 -31t-47.5 -32t-32 -31t-22 -36t-6 -40.5q0 -55 35 -88t96 -33q62 0 99 34.5t44 98.5h205q-17 -152 -107 -234.5t-239 -82.5q-151 0 -242.5 80.5t-91.5 207.5zM281 96q0 56 38.5 93.5t94.5 37.5t94.5 -37.5t38.5 -93.5t-38.5 -95.5t-94.5 -39.5t-94.5 39.5t-38.5 95.5z " />
<glyph unicode="@" horiz-adv-x="2048" d="M98 522q0 333 205 586q147 179 353 272t460 93q168 0 316.5 -46t253.5 -127q264 -203 264 -536q0 -163 -65 -302.5t-185 -236.5q-139 -112 -318 -112q-106 0 -157 40.5t-51 125.5v4q-55 -87 -128.5 -127.5t-175.5 -40.5q-152 0 -232.5 86.5t-80.5 249.5q0 156 64.5 284.5 t172.5 200.5t234 72q173 0 248 -142l55 107h154l-148 -586q-8 -40 -8 -49q0 -38 26.5 -61t69.5 -23q49 0 105.5 29.5t107.5 85.5q71 76 109.5 177t38.5 216q0 251 -185.5 410t-490.5 159q-276 0 -471 -125q-182 -114 -279.5 -291.5t-97.5 -394.5q0 -312 209.5 -499 t558.5 -187q167 0 325 49t290 142l67 -99q-300 -227 -674 -227q-386 0 -632 190q-308 235 -308 633zM741 444q0 -99 45 -151.5t129 -52.5q89 0 163 66t100 173l55 228q-13 85 -61 130.5t-123 45.5q-127 0 -217.5 -128.5t-90.5 -310.5z" />
<glyph unicode="A" horiz-adv-x="1275" d="M-113 0l815 1464h54l514 -1464h-238l-119 346h-583l-193 -346h-250zM422 541h428l-113 362q-18 58 -39 182q-47 -113 -86 -186z" />
<glyph unicode="B" horiz-adv-x="1175" d="M70 0l192 1464h316q150 0 235 -15.5t150 -70.5q114 -97 114 -264q0 -139 -71 -231.5t-199 -118.5q125 -35 190.5 -118t65.5 -204q0 -115 -45.5 -207t-130.5 -151q-80 -55 -189 -69.5t-307 -14.5h-321zM324 201h147q58 0 91 1.5t74 8t71 20.5q59 26 93 83.5t34 131.5 q0 53 -15 90t-41 60.5t-71 36.5t-95 17.5t-123 4.5h-106zM410 854h84q193 0 279.5 46t86.5 177q0 48 -13.5 82t-37.5 54.5t-65 32.5t-87 16t-114 4h-80z" />
<glyph unicode="C" horiz-adv-x="1374" d="M98 670q0 177 62.5 335t177.5 273q219 219 541 219q281 0 458 -129l-37 -250q-170 176 -401 176q-120 0 -222.5 -41.5t-174.5 -119.5q-85 -91 -130.5 -209t-45.5 -246q0 -226 138.5 -368t358.5 -142q219 0 408 151l-51 -280q-200 -78 -369 -78q-320 0 -516.5 196 t-196.5 513z" />
<glyph unicode="D" horiz-adv-x="1486" d="M70 0l192 1464h311q101 0 163 -3t140.5 -15.5t143 -40.5t125.5 -74q118 -90 181 -231t63 -318q0 -158 -50 -298t-141 -244q-131 -150 -324 -205q-123 -35 -317 -35h-487zM326 209h84q105 0 162 2t132 11t130 30.5t104 56.5q100 72 156.5 194t56.5 269q0 126 -44.5 226 t-129.5 165q-55 43 -127 64t-128 24.5t-161 3.5h-98z" />
<glyph unicode="E" horiz-adv-x="1114" d="M70 0l192 1464h821l-26 -207h-594l-47 -368h592l-27 -205h-594l-61 -473h594l-29 -211h-821z" />
<glyph unicode="F" horiz-adv-x="1095" d="M70 0l192 1464h821l-26 -207h-594l-47 -368h592l-27 -205h-594l-88 -684h-229z" />
<glyph unicode="G" horiz-adv-x="1660" d="M98 676q0 180 62.5 336t179.5 266q232 221 578 221q202 0 350 -69.5t280 -227.5l-162 -153q-190 245 -479 245q-238 0 -399 -164q-88 -91 -135 -205.5t-47 -240.5q0 -231 140 -372.5t370 -141.5q182 0 307 101.5t145 265.5h-379l25 208h625q0 -365 -198.5 -573.5 t-537.5 -208.5q-329 0 -527 195.5t-198 517.5z" />
<glyph unicode="H" horiz-adv-x="1497" d="M70 0l192 1464h230l-74 -555h708l72 555h232l-195 -1464h-229l92 700h-707l-92 -700h-229z" />
<glyph unicode="I" horiz-adv-x="569" d="M72 0l192 1464h234l-195 -1464h-231z" />
<glyph unicode="J" horiz-adv-x="819" d="M-72 156l172 131q51 -117 142 -117q44 0 71.5 17.5t45.5 71.5t25.5 98.5t21.5 150.5q2 13 3 20.5t2.5 19t2.5 21.5l116 895h232l-115 -870q-34 -263 -54 -344q-26 -107 -69 -168q-42 -59 -113 -91t-163 -32q-114 0 -191 47t-129 150z" />
<glyph unicode="K" horiz-adv-x="1232" d="M70 0l192 1464h230l-78 -602l583 602h285l-686 -692l594 -772h-281l-520 690l-90 -690h-229z" />
<glyph unicode="L" horiz-adv-x="962" d="M70 0l192 1464h230l-162 -1239h547l-31 -225h-776z" />
<glyph unicode="M" horiz-adv-x="1810" d="M-43 0l463 1464h41l332 -886q41 -104 73 -220q51 114 123 224l576 882h43l65 -1464h-227l-10 745v35q0 86 8 168q-26 -76 -101 -188l-489 -760h-61l-281 758q-17 46 -59 190q-4 -56 -43 -198l-220 -750h-233z" />
<glyph unicode="N" horiz-adv-x="1624" d="M70 0l190 1464h57l750 -858q81 -93 143 -184q0 79 19 227l110 815h215l-190 -1464h-57l-752 858q-96 111 -143 186q-2 -57 -23 -229l-104 -815h-215z" />
<glyph unicode="O" horiz-adv-x="1742" d="M98 674q0 179 63 334t181 268q111 106 259.5 164.5t313.5 58.5q334 0 532 -195t198 -520q0 -175 -64 -329.5t-184 -268.5q-114 -108 -265.5 -165.5t-322.5 -57.5q-319 0 -515 196.5t-196 514.5zM326 682q0 -229 138 -371.5t361 -142.5q165 0 300 80t212.5 220.5 t77.5 311.5q0 229 -140 370.5t-372 141.5q-114 0 -217.5 -42.5t-179.5 -121.5q-180 -186 -180 -446z" />
<glyph unicode="P" horiz-adv-x="1124" d="M70 0l192 1464h303q98 0 151 -3.5t119.5 -23.5t118.5 -61q136 -108 136 -303q0 -228 -158 -352q-78 -61 -173.5 -77.5t-256.5 -16.5h-121l-82 -627h-229zM408 834h77q79 0 134 5.5t103 20t76 39.5t44 66t16 98q0 61 -19.5 99.5t-63.5 58.5t-98 27t-140 7h-74z" />
<glyph unicode="Q" horiz-adv-x="1742" d="M98 674q0 179 63 334t181 268q113 108 261 165.5t317 57.5q330 0 527.5 -195t197.5 -516q0 -199 -80 -369t-228 -284l244 -291h-274l-160 185q-170 -66 -320 -66q-338 0 -533.5 193.5t-195.5 517.5zM326 682q0 -227 138.5 -370.5t350.5 -143.5q85 0 191 29l-199 239h274 l115 -135q106 88 163.5 212.5t57.5 268.5q0 227 -140 368.5t-372 141.5q-236 0 -397 -164q-88 -91 -135 -205.5t-47 -240.5z" />
<glyph unicode="R" horiz-adv-x="1142" d="M70 0l192 1464h264q98 0 151 -3.5t119.5 -23.5t118.5 -61q138 -110 138 -303q0 -181 -98.5 -295t-280.5 -143l405 -635h-258l-387 627h-53l-84 -627h-227zM403 813h46q99 0 163 9t114 34.5t72.5 73.5t22.5 123q0 52 -14 88.5t-37.5 58.5t-66 34.5t-88.5 16.5t-115 4h-37z " />
<glyph unicode="S" horiz-adv-x="1064" d="M-18 252l161 133q59 -118 128 -172.5t163 -54.5q117 0 188.5 68.5t71.5 176.5q0 80 -40 133.5t-132 106.5q-16 9 -62.5 35t-66 37.5t-52.5 32.5t-56 41t-43 42q-82 91 -82 232q0 192 123.5 314t324.5 122q271 0 404 -219l-140 -129q-98 158 -243 158q-109 0 -175.5 -64 t-66.5 -162q0 -35 10.5 -64.5t24 -48.5t43.5 -41.5t51 -34.5t66.5 -36.5t70.5 -38.5q144 -84 207.5 -176t63.5 -229q0 -207 -134 -330t-364 -123q-310 0 -444 291z" />
<glyph unicode="T" horiz-adv-x="1042" d="M72 1253l28 211h1000l-29 -211h-373l-166 -1253h-231l166 1253h-395z" />
<glyph unicode="U" horiz-adv-x="1478" d="M125 442q0 115 33 353l88 669h231l-112 -850q-13 -102 -13 -153q0 -139 80.5 -214t229.5 -75q215 0 327 150q12 16 22 34t18 33t15.5 38t12.5 36t10.5 40.5t8 39t7 43.5t6 41.5t6 46t5.5 45.5l98 745h229l-108 -823q-12 -87 -20.5 -136.5t-25.5 -116t-43.5 -118.5 t-64.5 -98q-176 -213 -528 -213q-250 0 -381 124t-131 359z" />
<glyph unicode="V" horiz-adv-x="1204" d="M27 1464h229l233 -874q33 -134 41 -182q47 118 86 186l469 870h246l-833 -1464h-49z" />
<glyph unicode="W" horiz-adv-x="1869" d="M31 1464h237l195 -870q17 -84 22 -141q39 97 60 139l438 872h43l238 -884q8 -29 20 -127q32 105 47 143l375 868h258l-696 -1464h-43l-242 897q-2 7 -25 133q-36 -108 -53 -143l-459 -887h-45z" />
<glyph unicode="X" horiz-adv-x="1161" d="M-76 0l525 739l-355 725h236l219 -450q42 -91 51 -125q14 53 59 117l320 458h262l-526 -737l356 -727h-240l-221 457q-24 53 -41 123q-23 -63 -59 -113l-328 -467h-258z" />
<glyph unicode="Y" horiz-adv-x="1204" d="M51 1464h248l244 -491q2 -4 55 -129q33 60 86 135l334 485h262l-586 -813l-86 -651h-231l88 659z" />
<glyph unicode="Z" horiz-adv-x="1175" d="M-59 0l864 1247h-647l28 217h1035l-863 -1247h717l-28 -217h-1106z" />
<glyph unicode="[" horiz-adv-x="667" d="M94 -424l252 1921h373l-21 -160h-186l-211 -1599h186l-20 -162h-373z" />
<glyph unicode="\" horiz-adv-x="948" d="M166 1497h166l450 -1687h-168z" />
<glyph unicode="]" horiz-adv-x="667" d="M-102 -424l20 162h186l211 1599h-186l21 160h374l-254 -1921h-372z" />
<glyph unicode="^" horiz-adv-x="2048" d="M418 899l497 561h218l495 -561h-207l-397 397l-399 -397h-207z" />
<glyph unicode="_" horiz-adv-x="1024" d="M0 -311h1024v-172h-1024v172z" />
<glyph unicode="`" horiz-adv-x="1024" d="M276 1442h213l207 -350h-116z" />
<glyph unicode="a" horiz-adv-x="1175" d="M53 414q0 257 125 412t324 155q188 0 327 -160l19 127h215l-125 -948h-215l16 104q-112 -141 -297 -141t-287 117t-102 334zM276 444q0 -137 63.5 -212.5t174.5 -75.5q128 0 203.5 102t75.5 285q0 122 -66.5 195t-181.5 73q-122 0 -195.5 -99t-73.5 -268z" />
<glyph unicode="b" horiz-adv-x="1175" d="M51 0l197 1493h215l-82 -639q124 127 291 127q185 0 287 -117t102 -334q0 -259 -125 -414t-328 -155q-92 0 -169 39t-154 121l-19 -121h-215zM322 401q0 -122 68.5 -196t182.5 -74q121 0 193 100t72 275q0 139 -60 210.5t-176 71.5q-129 0 -204.5 -101.5t-75.5 -285.5z " />
<glyph unicode="c" horiz-adv-x="958" d="M41 424q0 247 154.5 402t398.5 155q180 0 321 -98l-45 -205q-130 115 -278 115q-144 0 -236 -102t-92 -265q0 -128 68 -201t186 -73q148 0 301 100l-45 -229q-118 -62 -262 -62q-215 0 -343 126.5t-128 336.5z" />
<glyph unicode="d" horiz-adv-x="1175" d="M53 412q0 258 125 413.5t322 155.5q199 0 331 -164l89 676h215l-195 -1493h-211l12 96q-126 -135 -299 -135q-185 0 -287 117t-102 334zM276 442q0 -137 63.5 -212.5t174.5 -75.5q128 0 203.5 102.5t75.5 286.5q0 122 -66.5 194t-181.5 72q-123 0 -196 -98.5t-73 -268.5z " />
<glyph unicode="e" horiz-adv-x="1101" d="M41 424q0 245 149.5 401t380.5 156q191 0 306.5 -119t115.5 -321q0 -33 -6 -107h-723q0 -130 65.5 -205t172.5 -75q76 0 143.5 35.5t114.5 101.5l155 -121q-84 -108 -180.5 -158.5t-222.5 -50.5q-211 0 -341 127t-130 336zM283 588h489q-3 97 -59.5 152t-151.5 55 q-108 0 -183 -56t-95 -151z" />
<glyph unicode="f" horiz-adv-x="645" d="M23 764l24 184h170l27 195q30 211 97 298t220 87q92 0 172 -35l-24 -186q-71 30 -115 30q-68 0 -95.5 -50.5t-43.5 -176.5l-21 -162h193l-25 -184h-192l-101 -764h-215l101 764h-172z" />
<glyph unicode="g" horiz-adv-x="1175" d="M0 432q0 247 126 398t323 151q184 0 331 -156l19 123h211l-123 -915q-31 -233 -150 -346t-336 -113q-54 0 -116 10l22 187q53 -11 94 -11q79 0 129 17t83 61t48.5 110t22.5 173q-123 -129 -295 -129q-183 0 -286 115.5t-103 324.5zM223 459q0 -132 64 -206.5t174 -74.5 q126 0 203 98t77 265q0 127 -67.5 201.5t-181.5 74.5q-121 0 -195 -97t-74 -261z" />
<glyph unicode="h" horiz-adv-x="1179" d="M51 0l197 1493h215l-86 -653q159 141 346 141q146 0 227.5 -77t81.5 -214q0 -48 -16 -188l-66 -502h-215l72 547q4 29 4 80q0 94 -45 142t-131 48q-135 0 -210.5 -86t-98.5 -264l-60 -467h-215z" />
<glyph unicode="i" horiz-adv-x="526" d="M61 0l125 948h215l-125 -948h-215zM203 1280q0 54 37.5 90.5t91.5 36.5t90.5 -36.5t36.5 -90.5q0 -55 -36.5 -92t-90.5 -37q-56 0 -92.5 36.5t-36.5 92.5z" />
<glyph unicode="j" horiz-adv-x="526" d="M2 -416l180 1364h215l-180 -1364h-215zM199 1280q0 54 37.5 90.5t91.5 36.5t90.5 -36.5t36.5 -90.5q0 -55 -36.5 -92t-90.5 -37q-56 0 -92.5 36.5t-36.5 92.5z" />
<glyph unicode="k" horiz-adv-x="1071" d="M51 0l197 1493h215l-125 -948l481 403h279l-518 -436l403 -512h-260l-389 504l-68 -504h-215z" />
<glyph unicode="l" horiz-adv-x="526" d="M61 0l195 1493h215l-195 -1493h-215z" />
<glyph unicode="m" horiz-adv-x="1740" d="M51 0l125 948h213l-31 -114q147 147 326 147q201 0 268 -176q84 91 169 133.5t186 42.5q134 0 209 -77.5t75 -221.5q0 -56 -14 -178l-66 -504h-219l72 547q6 37 6 74q0 96 -39.5 146t-113.5 50q-120 0 -183.5 -85t-87.5 -265l-59 -467h-217l69 547q4 46 4 67 q0 103 -39 153t-120 50q-113 0 -174.5 -85.5t-85.5 -264.5l-60 -467h-213z" />
<glyph unicode="n" horiz-adv-x="1179" d="M51 0l125 948h207l-16 -114q163 147 356 147q146 0 227.5 -76.5t81.5 -214.5q0 -68 -16 -190l-66 -500h-215l72 545q4 29 4 80q0 94 -45 143t-131 49q-134 0 -210 -87t-99 -265l-60 -465h-215z" />
<glyph unicode="o" horiz-adv-x="1169" d="M37 426q0 247 152.5 402t392.5 155q222 0 353.5 -129.5t131.5 -345.5q0 -236 -153.5 -391.5t-399.5 -155.5q-218 0 -347.5 127t-129.5 338zM260 426q0 -128 68 -201t186 -73q149 0 238.5 98t89.5 264q0 133 -67.5 205t-190.5 72q-142 0 -233 -101.5t-91 -263.5z" />
<glyph unicode="p" horiz-adv-x="1175" d="M-8 -416l180 1364h205l-10 -100q130 133 301 133q187 0 288 -115t101 -331q0 -254 -125 -409t-322 -155q-191 0 -331 162l-72 -549h-215zM317 408q0 -121 67.5 -194t182.5 -73q124 0 195.5 96.5t71.5 266.5q0 138 -62 212.5t-172 74.5q-131 0 -207 -100.5t-76 -282.5z " />
<glyph unicode="q" horiz-adv-x="1175" d="M53 412q0 258 125 413.5t324 155.5q188 0 332 -160l18 127h211l-180 -1364h-215l67 506q-126 -129 -293 -129q-185 0 -287 117t-102 334zM276 444q0 -137 63 -213.5t173 -76.5q128 0 204.5 103t76.5 286q0 122 -67 195t-181 73q-122 0 -195.5 -99t-73.5 -268z" />
<glyph unicode="r" horiz-adv-x="735" d="M51 0l125 948h207l-16 -123q114 156 266 156q71 0 135 -37l-70 -186q-44 33 -102 33q-116 0 -181 -86t-89 -261l-60 -444h-215z" />
<glyph unicode="s" horiz-adv-x="825" d="M-31 135l125 144q109 -152 250 -152q68 0 109 30.5t41 80.5q0 49 -32.5 78t-116.5 75q-3 2 -5.5 3.5t-5.5 2.5q-64 36 -101.5 61.5t-71.5 59.5t-48.5 73.5t-14.5 90.5q0 133 98.5 217t258.5 84q191 0 333 -145l-133 -138q-92 115 -223 115q-52 0 -87.5 -30t-35.5 -72 q0 -25 8.5 -44t29.5 -35.5t40.5 -27t58 -29.5t64.5 -34q102 -56 148.5 -115.5t46.5 -155.5q0 -141 -98 -226t-267 -85q-226 0 -371 174z" />
<glyph unicode="t" horiz-adv-x="598" d="M12 764l25 184h162l47 359h215l-45 -359h172l-25 -184h-172l-100 -764h-215l100 764h-164z" />
<glyph unicode="u" horiz-adv-x="1169" d="M92 319q0 39 19 191l57 438h215l-51 -397q-23 -176 -23 -209q0 -93 51.5 -142.5t145.5 -49.5q73 0 121.5 19.5t79.5 65.5t48.5 107.5t30.5 159.5l60 446h215l-64 -481q-9 -64 -14 -96.5t-16.5 -83t-25 -81t-36.5 -66t-53 -64.5q-124 -115 -360 -115q-400 0 -400 358z" />
<glyph unicode="v" horiz-adv-x="952" d="M-16 948h223l147 -454q25 -81 33 -172q23 78 72 159l272 467h244l-592 -948h-57z" />
<glyph unicode="w" horiz-adv-x="1548" d="M-4 948h217l154 -483q32 -102 34 -146q20 69 72 156l277 473h59l137 -489q18 -64 25 -140q29 80 61 136l287 493h244l-605 -948h-57l-141 471q-18 60 -27 133q-48 -102 -65 -129l-287 -475h-55z" />
<glyph unicode="x" horiz-adv-x="976" d="M-90 0l418 496l-273 452h242l131 -231q3 -5 15.5 -26t19.5 -36t12 -32q39 68 68 100l188 225h254l-389 -454l293 -494h-246l-158 297q-19 36 -30 74q-16 -23 -32 -47t-24.5 -36.5t-11.5 -15.5l-223 -272h-254z" />
<glyph unicode="y" horiz-adv-x="952" d="M-92 -416l362 570l-274 794h223l141 -456q17 -55 31 -181q29 83 80 168l274 469h240l-854 -1364h-223z" />
<glyph unicode="z" horiz-adv-x="966" d="M-45 0l512 668q37 47 100 100h-469l23 180h817l-518 -674q-40 -54 -90 -94h532l-22 -180h-885z" />
<glyph unicode="{" horiz-adv-x="1024" d="M162 442v179q7 0 21.5 -1.5t21.5 -1.5q127 0 179 59.5t52 201.5v247q0 128 19.5 195.5t83.5 105.5q50 29 117.5 39.5t172.5 10.5h45v-179q-8 0 -24 1t-23 1q-115 0 -150.5 -44.5t-35.5 -170.5v-241q0 -147 -41 -215.5t-162 -98.5q121 -30 162 -99t41 -214v-240 q0 -65 7 -103t27.5 -65.5t56.5 -38t97 -10.5q7 0 22 1t23 1v-176h-63q-189 0 -272 49q-63 37 -83 105t-20 194v248q0 142 -51.5 202t-179.5 60q-7 0 -21.5 -1t-21.5 -1z" />
<glyph unicode="|" horiz-adv-x="1024" d="M424 -483v2048h178v-2048h-178z" />
<glyph unicode="}" horiz-adv-x="1024" d="M152 -238q8 0 23 -1t22 -1q116 0 151 45t35 172v240q0 145 42 214t163 99q-122 29 -163.5 98.5t-41.5 215.5v241q0 126 -35 170.5t-149 44.5q-7 0 -23 -1t-24 -1v179h45q104 0 171.5 -10.5t116.5 -39.5q64 -38 83.5 -106t19.5 -195v-247q0 -142 51.5 -201.5t179.5 -59.5 q6 0 21 1.5t22 1.5v-179q-7 0 -21.5 1t-21.5 1q-128 0 -179.5 -60t-51.5 -202v-248q0 -127 -19.5 -194t-83.5 -105q-48 -29 -115.5 -39t-172.5 -10h-45v176z" />
<glyph unicode="~" horiz-adv-x="1705" d="M178 434v187q210 143 387 143q122 0 293 -59q12 -4 48.5 -17t51 -18t45.5 -14.5t51 -13.5t46.5 -7.5t50.5 -3.5q166 0 379 153v-184q-204 -141 -381 -141q-91 0 -191 35q-19 6 -79.5 27t-85.5 28.5t-71.5 20.5t-83.5 17.5t-75 4.5q-160 0 -385 -158z" />
<glyph unicode="&#xa1;" horiz-adv-x="651" d="M111 -39l155 1161h219l-153 -1161h-221zM274 1364q0 56 38.5 94.5t95.5 38.5t95 -38.5t38 -94.5q0 -55 -38.5 -93t-94.5 -38t-95 37.5t-39 93.5z" />
<glyph unicode="&#xa2;" d="M133 449q0 245 142 397.5t389 169.5l28 178h109l-29 -186q147 -25 236 -93l-47 -204q-92 83 -218 110l-96 -635q117 9 264 99l-45 -230q-99 -54 -248 -57l-32 -229h-111l35 233q-177 28 -277 147t-100 300zM356 461q0 -110 48 -178t139 -90l98 632 q-128 -17 -206.5 -116.5t-78.5 -247.5z" />
<glyph unicode="&#xa3;" d="M-4 88q143 159 270 176q60 92 60 203q0 51 -11 133h-237l18 135h180q-61 128 -61 273q0 198 142 333.5t354 135.5q202 0 316 -113t114 -315q0 -34 -2 -50h-215v19q0 132 -58.5 203t-163.5 71q-114 0 -189 -80.5t-75 -210.5q0 -20 2.5 -42.5t5.5 -39.5t10.5 -45 t11.5 -42.5t14 -49t14 -47.5h352l-17 -135h-303v-25q0 -195 -98 -311q71 -8 144.5 -36t129 -51t91.5 -23q50 0 94 24.5t92 77.5l104 -137q-152 -158 -315 -158q-73 0 -188 47q-12 5 -60 24t-67 25.5t-54 14.5t-65 8q-60 0 -112 -25.5t-111 -79.5z" />
<glyph unicode="&#xa4;" d="M0 543l47 110h143q0 65 17 148h-164l49 112h135q67 264 238 415t395 151q210 0 350 -121l-45 -221q-137 137 -303 137q-139 0 -241.5 -92.5t-157.5 -268.5h604l-61 -112h-566q-13 -81 -16 -148h502l-62 -110h-438q3 -188 83.5 -284.5t233.5 -96.5q138 0 304 102l-50 -241 q-127 -62 -278 -62q-255 0 -388.5 147.5t-137.5 434.5h-193z" />
<glyph unicode="&#xa5;" d="M-14 578l16 131h469l-88 170h-358l16 131h270l-227 442h235l242 -489q39 -76 62 -134q37 69 84 136l340 487h251l-321 -442h264l-16 -131h-348l-125 -170h450l-18 -131h-482l-77 -578h-215l75 578h-499z" />
<glyph unicode="&#xa6;" horiz-adv-x="1024" d="M424 -350v758h178v-758h-178zM424 674v758h178v-758h-178z" />
<glyph unicode="&#xa7;" horiz-adv-x="1138" d="M55 -94h189q15 -168 182 -168q99 0 150 37t51 106q0 57 -54 103t-192 129q-6 3 -9.5 5t-8.5 5t-9 6q-60 36 -97.5 62t-76 62t-59.5 72.5t-34 86t-13 110.5q0 159 89 266t253 144q-87 48 -128.5 108t-41.5 144q0 135 107.5 224t285.5 89q163 0 261.5 -98.5t98.5 -265.5 h-192q0 4 1 12t1 12q0 76 -53 120t-144 44q-77 0 -123.5 -38.5t-46.5 -98.5q0 -37 13 -65t45.5 -52.5t63.5 -41t90 -43.5q16 -7 24 -11q166 -78 243.5 -172t77.5 -236q0 -165 -92.5 -273.5t-259.5 -139.5q96 -46 140 -110t44 -157q0 -150 -105.5 -237.5t-293.5 -87.5 q-173 0 -275 90t-102 241v17zM274 524q0 -101 69.5 -166t184.5 -65q111 0 189 76.5t78 193.5q0 104 -67.5 169t-174.5 65q-124 0 -201.5 -76.5t-77.5 -196.5z" />
<glyph unicode="&#xa8;" horiz-adv-x="1024" d="M291 1257q0 46 36.5 82.5t82.5 36.5q50 0 85 -35.5t35 -83.5q0 -54 -33.5 -88t-86.5 -34q-48 0 -83.5 35t-35.5 87zM629 1257q0 46 36.5 82.5t82.5 36.5q50 0 85 -35.5t35 -83.5q0 -54 -33.5 -88t-86.5 -34q-48 0 -83.5 35t-35.5 87z" />
<glyph unicode="&#xa9;" horiz-adv-x="1705" d="M113 731q0 146 57.5 281t163.5 243q212 215 518 215q309 0 526 -217q105 -105 160 -238.5t55 -283.5q0 -152 -54.5 -285.5t-158.5 -234.5q-109 -107 -245 -164t-283 -57q-146 0 -280 56.5t-240 162.5t-162.5 240.5t-56.5 281.5zM223 731q0 -257 187 -444q91 -91 205 -139 t239 -48q257 0 449 189q182 179 182 442q0 128 -46.5 243t-135.5 204q-184 184 -449 184t-444 -182q-91 -92 -139 -208t-48 -241zM457 725q0 209 110 332t291 123q147 0 243 -77t105 -200h-166q-10 73 -60 113.5t-130 40.5q-97 0 -154 -85t-57 -241q0 -153 58 -235t163 -82 q79 0 129 43.5t60 124.5h165q-8 -134 -106.5 -216.5t-253.5 -82.5q-182 0 -289.5 118.5t-107.5 323.5z" />
<glyph unicode="&#xaa;" horiz-adv-x="882" d="M41 1090q0 181 93.5 289t242.5 108q141 0 246 -111l14 88h160l-92 -663h-162l12 73q-84 -100 -223 -100t-215 82t-76 234zM207 1112q0 -96 47 -149.5t131 -53.5q96 0 152.5 71.5t56.5 199.5q0 87 -49 137.5t-135 50.5q-93 0 -148 -68.5t-55 -187.5z" />
<glyph unicode="&#xab;" horiz-adv-x="980" d="M37 477l364 420l121 -100l-293 -332l207 -336l-133 -84zM432 477l365 420l118 -100l-290 -332l204 -336l-133 -84z" />
<glyph unicode="&#xac;" horiz-adv-x="1705" d="M254 696v166h1198v-502h-166v336h-1032z" />
<glyph unicode="&#xad;" horiz-adv-x="749" d="M72 375l24 192h512l-24 -192h-512z" />
<glyph unicode="&#xae;" horiz-adv-x="1705" d="M113 731q0 148 58 285t165 244q210 210 516 210q312 0 530 -221q211 -214 211 -518q0 -313 -217 -524q-108 -105 -243.5 -161t-280.5 -56q-147 0 -282.5 57.5t-241.5 165.5q-104 106 -159.5 239t-55.5 279zM223 731q0 -256 183 -442q91 -91 204.5 -140t233.5 -49 q265 0 456 185q89 86 137 199t48 237q0 270 -180 453q-188 188 -451 188q-260 0 -440 -180q-92 -94 -141.5 -210.5t-49.5 -240.5zM551 330v829h319q173 0 262 -57.5t89 -167.5q0 -91 -48 -150t-137 -79l185 -375h-199l-164 346h-129v-346h-178zM729 786h117q99 0 145.5 30 t46.5 97q0 70 -49 102t-151 32h-109v-261z" />
<glyph unicode="&#xaf;" horiz-adv-x="1024" d="M295 1182l18 147h551l-18 -147h-551z" />
<glyph unicode="&#xb0;" horiz-adv-x="673" d="M43 1163q0 124 86 210.5t209 86.5q122 0 208.5 -87t86.5 -210q0 -121 -86.5 -208t-210.5 -87q-123 0 -208 85.5t-85 209.5zM152 1165q0 -77 55 -131.5t131 -54.5q77 0 130.5 55t53.5 131q0 77 -54 131t-130 54q-77 0 -131.5 -54.5t-54.5 -130.5z" />
<glyph unicode="&#xb1;" horiz-adv-x="1705" d="M254 14v168h1198v-168h-1198zM254 707v165h514v334h170v-334h514v-165h-514v-334h-170v334h-514z" />
<glyph unicode="&#xb2;" horiz-adv-x="796" d="M-6 575l385 353q78 70 115 108t65.5 86.5t28.5 94.5q0 65 -43.5 100t-122.5 35q-71 0 -119.5 -45t-54.5 -121h-148q6 130 95 203t241 73q142 0 222.5 -63t80.5 -174q0 -45 -15.5 -89t-38.5 -81t-70.5 -87t-89.5 -88t-117 -104l-95 -82h361l-27 -119h-653z" />
<glyph unicode="&#xb3;" horiz-adv-x="796" d="M51 807h152v-6q0 -58 43 -94.5t110 -36.5q85 0 137 45.5t52 118.5q0 66 -51.5 100.5t-149.5 34.5h-25l17 108h33q97 0 151.5 40t54.5 108q0 59 -39.5 91t-111.5 32q-66 0 -107.5 -31.5t-52.5 -87.5h-143q19 109 101 171t208 62q131 0 211 -60t80 -155q0 -83 -52.5 -142.5 t-146.5 -82.5q170 -50 170 -209q0 -111 -93 -185.5t-247 -74.5q-140 0 -220 67t-81 187z" />
<glyph unicode="&#xb4;" horiz-adv-x="1024" d="M403 1092l222 350h213l-303 -350h-132z" />
<glyph unicode="&#xb5;" d="M-92 -430l297 1511h229l-125 -635q-12 -58 -12 -104q0 -97 46.5 -147t135.5 -50q125 0 195.5 91t109.5 290l109 555h225l-145 -739q-19 -100 -19 -133q0 -35 15.5 -50.5t52.5 -15.5q23 0 35 2l-33 -159q-67 -17 -150 -17q-149 0 -149 125v15q-41 -67 -108.5 -104.5 t-145.5 -37.5q-79 0 -136 25.5t-99 83.5l-99 -506h-229z" />
<glyph unicode="&#xb6;" horiz-adv-x="1024" d="M55 1130q0 156 106 252.5t285 96.5h523v-99h-117v-1380h-129v1380h-170v-1380h-129v784q-170 6 -269.5 101t-99.5 245z" />
<glyph unicode="&#xb7;" horiz-adv-x="604" d="M170 721q0 55 37.5 92t93.5 37t93.5 -37t37.5 -92q0 -54 -38 -92.5t-93 -38.5t-93 38.5t-38 92.5z" />
<glyph unicode="&#xb8;" horiz-adv-x="1024" d="M102 -426l43 111q134 -47 224 -47q56 0 87 24.5t31 65.5q0 43 -37.5 59t-123.5 16h-39l69 197h90l-34 -94h8q227 0 227 -170q0 -101 -65.5 -158t-184.5 -57q-110 0 -295 53z" />
<glyph unicode="&#xb9;" horiz-adv-x="798" d="M231 1329l70 117h287l-127 -871h-148l109 754h-191z" />
<glyph unicode="&#xba;" horiz-adv-x="876" d="M29 1100q0 172 113.5 280.5t293.5 108.5q167 0 266 -90.5t99 -241.5q0 -166 -115.5 -274.5t-300.5 -108.5q-162 0 -259 89t-97 237zM195 1100q0 -90 51 -141.5t139 -51.5q111 0 178.5 68.5t67.5 185.5q0 93 -50 143t-143 50q-107 0 -175 -70.5t-68 -183.5z" />
<glyph unicode="&#xbb;" horiz-adv-x="980" d="M0 147l293 332l-207 336l133 82l266 -430l-364 -422zM393 147l293 332l-207 336l133 82l267 -430l-365 -422z" />
<glyph unicode="&#xbc;" horiz-adv-x="1865" d="M221 1335l66 109h272l-121 -811h-139l104 702h-182zM420 -39l866 1518h158l-871 -1518h-153zM1077 176v19l639 632h45l-80 -546h105l-14 -105h-107l-27 -176h-135l27 176h-453zM1313 281h235l37 215q8 48 19 90q-55 -66 -70 -78z" />
<glyph unicode="&#xbd;" horiz-adv-x="1865" d="M221 1335l66 109h272l-121 -811h-139l104 702h-182zM420 -39l866 1518h158l-871 -1518h-153zM1098 0l368 330q106 93 152.5 150.5t46.5 117.5t-41.5 92.5t-116.5 32.5q-68 0 -114.5 -41.5t-53.5 -112.5h-139q6 123 90 190.5t230 67.5q136 0 213 -59t77 -162 q0 -35 -8.5 -67.5t-30 -67t-43.5 -62.5t-64.5 -69t-76 -70.5t-94.5 -81.5l-90 -77h344l-25 -111h-624z" />
<glyph unicode="&#xbe;" horiz-adv-x="1863" d="M49 850h144v-8q0 -54 41.5 -87.5t105.5 -33.5q82 0 131 42t49 111q0 125 -192 125h-23l14 103q10 -2 31 -2q94 0 146.5 37.5t52.5 101.5q0 54 -38 84.5t-108 30.5q-62 0 -101.5 -29.5t-49.5 -83.5h-135q15 102 93.5 160.5t199.5 58.5q126 0 202 -55.5t76 -144.5 q0 -77 -49.5 -133t-138.5 -78q162 -47 162 -193q0 -104 -89.5 -174t-236.5 -70q-134 0 -210 63t-77 175zM420 -39l866 1518h158l-871 -1518h-153zM1077 176v19l639 632h45l-80 -546h105l-14 -105h-107l-27 -176h-135l27 176h-453zM1313 281h235l37 215q8 48 19 90 q-55 -66 -70 -78z" />
<glyph unicode="&#xbf;" horiz-adv-x="1062" d="M121 272q0 93 60.5 167t187.5 143q31 17 79.5 42.5t71.5 37.5t55.5 31.5t47.5 32.5t31 31t22 36.5t6 40.5q0 55 -34 87.5t-95 32.5q-62 0 -99 -34.5t-44 -98.5h-205q17 153 106 235.5t238 82.5q151 0 242.5 -81t91.5 -208q0 -68 -17 -119t-56 -92t-85.5 -71.5 t-120.5 -67.5q-149 -75 -185 -99q-75 -51 -84 -116q-1 -11 -1 -23q0 -52 42.5 -89.5t110.5 -37.5q70 0 117.5 44t54.5 120h199q-11 -155 -114 -246.5t-269 -91.5q-162 0 -258 85t-96 226zM504 1364q0 56 38 94.5t95 38.5t95 -38.5t38 -94.5t-38.5 -93.5t-94.5 -37.5 t-94.5 37.5t-38.5 93.5z" />
<glyph unicode="&#xc0;" horiz-adv-x="1275" d="M-113 0l815 1464h54l514 -1464h-238l-119 346h-583l-193 -346h-250zM422 541h428l-113 362q-18 58 -39 182q-47 -113 -86 -186zM459 1958h213l207 -350h-117z" />
<glyph unicode="&#xc1;" horiz-adv-x="1275" d="M-113 0l815 1464h54l514 -1464h-238l-119 346h-583l-193 -346h-250zM422 541h428l-113 362q-18 58 -39 182q-47 -113 -86 -186zM586 1608l221 350h213l-303 -350h-131z" />
<glyph unicode="&#xc2;" horiz-adv-x="1275" d="M-113 0l815 1464h54l514 -1464h-238l-119 346h-583l-193 -346h-250zM422 541h428l-113 362q-18 58 -39 182q-47 -113 -86 -186zM424 1608l254 350h213l127 -350h-117l-131 200l-217 -200h-129z" />
<glyph unicode="&#xc3;" horiz-adv-x="1275" d="M-113 0l815 1464h54l514 -1464h-238l-119 346h-583l-193 -346h-250zM422 541h428l-113 362q-18 58 -39 182q-47 -113 -86 -186zM459 1649q58 217 213 217q34 0 84 -13l57 -16q50 -12 53 -12q66 0 90 78h109q-30 -109 -81 -162t-130 -53q-40 0 -80 12l-59 18 q-42 11 -58 11q-66 0 -90 -80h-108z" />
<glyph unicode="&#xc4;" horiz-adv-x="1275" d="M-113 0l815 1464h54l514 -1464h-238l-119 346h-583l-193 -346h-250zM422 541h428l-113 362q-18 58 -39 182q-47 -113 -86 -186zM473 1774q0 46 36.5 82t82.5 36q50 0 85.5 -35t35.5 -83q0 -54 -34 -88.5t-87 -34.5q-48 0 -83.5 35.5t-35.5 87.5zM811 1774q0 46 36.5 82 t82.5 36q50 0 85.5 -35t35.5 -83q0 -54 -34 -88.5t-87 -34.5q-48 0 -83.5 35.5t-35.5 87.5z" />
<glyph unicode="&#xc5;" horiz-adv-x="1275" d="M-113 0l820 1462h47l516 -1462h-238l-119 346h-583l-193 -346h-250zM422 541h428l-113 362q-18 58 -39 182q-47 -113 -86 -186zM504 1739q0 98 68.5 165.5t166.5 67.5q97 0 165.5 -68t68.5 -165q0 -98 -68 -167t-166 -69t-166.5 69t-68.5 167zM625 1739q0 -47 34 -82 t80 -35q48 0 81.5 34t33.5 83t-32.5 81.5t-82.5 32.5q-47 0 -80.5 -33.5t-33.5 -80.5z" />
<glyph unicode="&#xc6;" horiz-adv-x="1773" d="M-109 0l814 1464h747l45 -207h-536l81 -368h537l47 -205h-539l105 -473h539l45 -211h-762l-76 346h-596l-186 -346h-265zM438 541h457l-107 473q-12 62 -34 182q-19 -45 -36.5 -85.5t-30.5 -69.5t-15 -33z" />
<glyph unicode="&#xc7;" horiz-adv-x="1374" d="M98 670q0 177 62.5 335t177.5 273q219 219 541 219q281 0 458 -129l-37 -250q-170 176 -401 176q-120 0 -222.5 -41.5t-174.5 -119.5q-85 -91 -130.5 -209t-45.5 -246q0 -226 138.5 -368t358.5 -142q219 0 408 151l-51 -280q-200 -78 -369 -78q-320 0 -516.5 196 t-196.5 513zM451 -426l43 111q134 -47 223 -47q56 0 87.5 24.5t31.5 65.5q0 43 -37.5 59t-124.5 16h-39l70 197h90l-35 -94h8q227 0 227 -170q0 -101 -65.5 -158t-184.5 -57q-109 0 -294 53z" />
<glyph unicode="&#xc8;" horiz-adv-x="1114" d="M70 0l192 1464h821l-26 -207h-594l-47 -368h592l-27 -205h-594l-61 -473h594l-29 -211h-821zM420 1958h213l207 -350h-117z" />
<glyph unicode="&#xc9;" horiz-adv-x="1114" d="M70 0l192 1464h821l-26 -207h-594l-47 -368h592l-27 -205h-594l-61 -473h594l-29 -211h-821zM547 1608l221 350h213l-303 -350h-131z" />
<glyph unicode="&#xca;" horiz-adv-x="1114" d="M70 0l192 1464h821l-26 -207h-594l-47 -368h592l-27 -205h-594l-61 -473h594l-29 -211h-821zM385 1608l254 350h213l127 -350h-117l-131 200l-217 -200h-129z" />
<glyph unicode="&#xcb;" horiz-adv-x="1114" d="M70 0l192 1464h821l-26 -207h-594l-47 -368h592l-27 -205h-594l-61 -473h594l-29 -211h-821zM434 1774q0 46 36.5 82t82.5 36q50 0 85.5 -35t35.5 -83q0 -54 -34 -88.5t-87 -34.5q-48 0 -83.5 35.5t-35.5 87.5zM772 1774q0 46 36.5 82t82.5 36q50 0 85.5 -35t35.5 -83 q0 -54 -34 -88.5t-87 -34.5q-48 0 -83.5 35.5t-35.5 87.5z" />
<glyph unicode="&#xcc;" horiz-adv-x="569" d="M72 0l192 1464h234l-195 -1464h-231zM123 1958h213l207 -350h-117z" />
<glyph unicode="&#xcd;" horiz-adv-x="569" d="M72 0l192 1464h234l-195 -1464h-231zM250 1608l221 350h213l-303 -350h-131z" />
<glyph unicode="&#xce;" horiz-adv-x="569" d="M72 0l192 1464h234l-195 -1464h-231zM88 1608l254 350h213l127 -350h-117l-131 200l-217 -200h-129z" />
<glyph unicode="&#xcf;" horiz-adv-x="569" d="M72 0l192 1464h234l-195 -1464h-231zM137 1774q0 46 36.5 82t82.5 36q50 0 85.5 -35t35.5 -83q0 -54 -34 -88.5t-87 -34.5q-48 0 -83.5 35.5t-35.5 87.5zM475 1774q0 46 36.5 82t82.5 36q50 0 85.5 -35t35.5 -83q0 -54 -34 -88.5t-87 -34.5q-48 0 -83.5 35.5t-35.5 87.5z " />
<glyph unicode="&#xd0;" horiz-adv-x="1509" d="M-16 719l22 170h205l76 575h309q101 0 163 -3t140 -15.5t142.5 -40.5t125.5 -74q118 -90 182 -231t64 -318q0 -158 -50 -298t-140 -244q-131 -149 -326 -205q-123 -35 -315 -35h-490l94 719h-202zM348 209h84q106 0 163 2t132.5 11t131 30.5t104.5 56.5q100 72 156.5 194 t56.5 269q0 126 -45 226t-130 165q-55 43 -126.5 64t-127.5 24.5t-161 3.5h-101l-49 -366h398l-23 -170h-397z" />
<glyph unicode="&#xd1;" horiz-adv-x="1624" d="M70 0l190 1464h57l750 -858q81 -93 143 -184q0 79 19 227l110 815h215l-190 -1464h-57l-752 858q-96 111 -143 186q-2 -57 -23 -229l-104 -815h-215zM649 1649q58 217 213 217q34 0 84 -13l58 -16q50 -12 53 -12q66 0 90 78h108q-30 -109 -81 -162t-130 -53q-38 0 -79 12 l-60 18q-42 11 -57 11q-66 0 -90 -80h-109z" />
<glyph unicode="&#xd2;" horiz-adv-x="1742" d="M98 674q0 179 63 334t181 268q111 106 259.5 164.5t313.5 58.5q334 0 532 -195t198 -520q0 -175 -64 -329.5t-184 -268.5q-114 -108 -265.5 -165.5t-322.5 -57.5q-319 0 -515 196.5t-196 514.5zM326 682q0 -229 138 -371.5t361 -142.5q165 0 300 80t212.5 220.5 t77.5 311.5q0 229 -140 370.5t-372 141.5q-114 0 -217.5 -42.5t-179.5 -121.5q-180 -186 -180 -446zM680 1958h213l207 -350h-117z" />
<glyph unicode="&#xd3;" horiz-adv-x="1742" d="M98 674q0 179 63 334t181 268q111 106 259.5 164.5t313.5 58.5q334 0 532 -195t198 -520q0 -175 -64 -329.5t-184 -268.5q-114 -108 -265.5 -165.5t-322.5 -57.5q-319 0 -515 196.5t-196 514.5zM326 682q0 -229 138 -371.5t361 -142.5q165 0 300 80t212.5 220.5 t77.5 311.5q0 229 -140 370.5t-372 141.5q-114 0 -217.5 -42.5t-179.5 -121.5q-180 -186 -180 -446zM807 1608l221 350h213l-303 -350h-131z" />
<glyph unicode="&#xd4;" horiz-adv-x="1742" d="M98 674q0 179 63 334t181 268q111 106 259.5 164.5t313.5 58.5q334 0 532 -195t198 -520q0 -175 -64 -329.5t-184 -268.5q-114 -108 -265.5 -165.5t-322.5 -57.5q-319 0 -515 196.5t-196 514.5zM326 682q0 -229 138 -371.5t361 -142.5q165 0 300 80t212.5 220.5 t77.5 311.5q0 229 -140 370.5t-372 141.5q-114 0 -217.5 -42.5t-179.5 -121.5q-180 -186 -180 -446zM645 1608l254 350h213l127 -350h-117l-131 200l-217 -200h-129z" />
<glyph unicode="&#xd5;" horiz-adv-x="1742" d="M98 674q0 179 63 334t181 268q111 106 259.5 164.5t313.5 58.5q334 0 532 -195t198 -520q0 -175 -64 -329.5t-184 -268.5q-114 -108 -265.5 -165.5t-322.5 -57.5q-319 0 -515 196.5t-196 514.5zM326 682q0 -229 138 -371.5t361 -142.5q165 0 300 80t212.5 220.5 t77.5 311.5q0 229 -140 370.5t-372 141.5q-114 0 -217.5 -42.5t-179.5 -121.5q-180 -186 -180 -446zM680 1649q58 217 213 217q34 0 84 -13l57 -16q50 -12 53 -12q67 0 91 78h108q-30 -109 -81 -162t-130 -53q-39 0 -80 12l-59 18q-42 11 -57 11q-67 0 -91 -80h-108z" />
<glyph unicode="&#xd6;" horiz-adv-x="1742" d="M98 674q0 179 63 334t181 268q111 106 259.5 164.5t313.5 58.5q334 0 532 -195t198 -520q0 -175 -64 -329.5t-184 -268.5q-114 -108 -265.5 -165.5t-322.5 -57.5q-319 0 -515 196.5t-196 514.5zM326 682q0 -229 138 -371.5t361 -142.5q165 0 300 80t212.5 220.5 t77.5 311.5q0 229 -140 370.5t-372 141.5q-114 0 -217.5 -42.5t-179.5 -121.5q-180 -186 -180 -446zM694 1774q0 46 36.5 82t82.5 36q50 0 85.5 -35t35.5 -83q0 -54 -34 -88.5t-87 -34.5q-48 0 -83.5 35.5t-35.5 87.5zM1032 1774q0 46 36.5 82t82.5 36q50 0 85.5 -35 t35.5 -83q0 -54 -34 -88.5t-87 -34.5q-48 0 -83.5 35.5t-35.5 87.5z" />
<glyph unicode="&#xd7;" horiz-adv-x="1705" d="M287 152l458 458l-458 461l116 117l459 -459l461 459l117 -117l-459 -461l459 -458l-117 -119l-461 461l-459 -461z" />
<glyph unicode="&#xd8;" horiz-adv-x="1742" d="M63 63l170 164q-135 185 -135 453q0 369 244 604q110 107 260.5 164t323.5 57q290 0 475 -153l155 151l101 -117l-152 -143q137 -194 137 -457q0 -368 -245 -604q-114 -109 -265.5 -166t-324.5 -57q-276 0 -469 158l-174 -168zM326 680q0 -163 75 -289l836 803 q-139 104 -328 104q-163 0 -297 -81t-210 -222.5t-76 -314.5zM502 274q123 -106 325 -106q166 0 301 79.5t212 220.5t77 314q0 161 -80 297z" />
<glyph unicode="&#xd9;" horiz-adv-x="1478" d="M125 442q0 115 33 353l88 669h231l-112 -850q-13 -102 -13 -153q0 -139 80.5 -214t229.5 -75q215 0 327 150q12 16 22 34t18 33t15.5 38t12.5 36t10.5 40.5t8 39t7 43.5t6 41.5t6 46t5.5 45.5l98 745h229l-108 -823q-12 -87 -20.5 -136.5t-25.5 -116t-43.5 -118.5 t-64.5 -98q-176 -213 -528 -213q-250 0 -381 124t-131 359zM580 1958h213l206 -350h-116z" />
<glyph unicode="&#xda;" horiz-adv-x="1478" d="M125 442q0 115 33 353l88 669h231l-112 -850q-13 -102 -13 -153q0 -139 80.5 -214t229.5 -75q215 0 327 150q12 16 22 34t18 33t15.5 38t12.5 36t10.5 40.5t8 39t7 43.5t6 41.5t6 46t5.5 45.5l98 745h229l-108 -823q-12 -87 -20.5 -136.5t-25.5 -116t-43.5 -118.5 t-64.5 -98q-176 -213 -528 -213q-250 0 -381 124t-131 359zM707 1608l221 350h213l-303 -350h-131z" />
<glyph unicode="&#xdb;" horiz-adv-x="1478" d="M125 442q0 115 33 353l88 669h231l-112 -850q-13 -102 -13 -153q0 -139 80.5 -214t229.5 -75q215 0 327 150q12 16 22 34t18 33t15.5 38t12.5 36t10.5 40.5t8 39t7 43.5t6 41.5t6 46t5.5 45.5l98 745h229l-108 -823q-12 -87 -20.5 -136.5t-25.5 -116t-43.5 -118.5 t-64.5 -98q-176 -213 -528 -213q-250 0 -381 124t-131 359zM545 1608l254 350h213l127 -350h-117l-131 200l-217 -200h-129z" />
<glyph unicode="&#xdc;" horiz-adv-x="1478" d="M125 442q0 115 33 353l88 669h231l-112 -850q-13 -102 -13 -153q0 -139 80.5 -214t229.5 -75q215 0 327 150q12 16 22 34t18 33t15.5 38t12.5 36t10.5 40.5t8 39t7 43.5t6 41.5t6 46t5.5 45.5l98 745h229l-108 -823q-12 -87 -20.5 -136.5t-25.5 -116t-43.5 -118.5 t-64.5 -98q-176 -213 -528 -213q-250 0 -381 124t-131 359zM594 1774q0 46 36.5 82t82.5 36q50 0 85.5 -35t35.5 -83q0 -54 -34 -88.5t-87 -34.5q-48 0 -83.5 35.5t-35.5 87.5zM932 1774q0 46 36.5 82t82.5 36q50 0 85 -35t35 -83q0 -54 -33.5 -88.5t-86.5 -34.5 q-48 0 -83.5 35.5t-35.5 87.5z" />
<glyph unicode="&#xdd;" horiz-adv-x="1204" d="M51 1464h248l244 -491q2 -4 55 -129q33 60 86 135l334 485h262l-586 -813l-86 -651h-231l88 659zM567 1608l221 350h213l-303 -350h-131z" />
<glyph unicode="&#xde;" horiz-adv-x="1124" d="M70 0l192 1464h230l-41 -284h53q82 0 123 -1.5t100 -9.5t103 -27.5t85 -51.5q138 -110 138 -302q0 -229 -160 -354q-78 -61 -173.5 -77.5t-254.5 -16.5h-121l-45 -340h-229zM371 547h78q78 0 133 5.5t103 20t76 39.5t44 66t16 98q0 61 -19.5 100t-63 59.5t-98 28 t-140.5 7.5h-74z" />
<glyph unicode="&#xdf;" d="M55 0l101 768h-93l25 180h92l21 162q30 237 139.5 349t321.5 112q204 0 323 -99.5t119 -263.5q0 -150 -94 -245t-265 -115q351 -62 351 -404q0 -201 -146 -337t-366 -136q-83 0 -205 29l41 190q85 -32 151 -32q135 0 220.5 88t85.5 227q0 146 -89 220.5t-262 74.5h-34 l22 180q20 -2 57 -2q154 0 236 65t82 183q0 92 -59.5 148.5t-159.5 56.5q-129 0 -183 -76.5t-77 -255.5l-140 -1067h-215z" />
<glyph unicode="&#xe0;" horiz-adv-x="1175" d="M53 414q0 257 125 412t324 155q188 0 327 -160l19 127h215l-125 -948h-215l16 104q-112 -141 -297 -141t-287 117t-102 334zM276 444q0 -137 63.5 -212.5t174.5 -75.5q128 0 203.5 102t75.5 285q0 122 -66.5 195t-181.5 73q-122 0 -195.5 -99t-73.5 -268zM371 1442h213 l207 -350h-117z" />
<glyph unicode="&#xe1;" horiz-adv-x="1175" d="M53 414q0 257 125 412t324 155q188 0 327 -160l19 127h215l-125 -948h-215l16 104q-112 -141 -297 -141t-287 117t-102 334zM276 444q0 -137 63.5 -212.5t174.5 -75.5q128 0 203.5 102t75.5 285q0 122 -66.5 195t-181.5 73q-122 0 -195.5 -99t-73.5 -268zM498 1092 l221 350h213l-303 -350h-131z" />
<glyph unicode="&#xe2;" horiz-adv-x="1175" d="M53 414q0 257 125 412t324 155q188 0 327 -160l19 127h215l-125 -948h-215l16 104q-112 -141 -297 -141t-287 117t-102 334zM276 444q0 -137 63.5 -212.5t174.5 -75.5q128 0 203.5 102t75.5 285q0 122 -66.5 195t-181.5 73q-122 0 -195.5 -99t-73.5 -268zM336 1092 l254 350h213l127 -350h-117l-131 200l-217 -200h-129z" />
<glyph unicode="&#xe3;" horiz-adv-x="1175" d="M53 414q0 257 125 412t324 155q188 0 327 -160l19 127h215l-125 -948h-215l16 104q-112 -141 -297 -141t-287 117t-102 334zM276 444q0 -137 63.5 -212.5t174.5 -75.5q128 0 203.5 102t75.5 285q0 122 -66.5 195t-181.5 73q-122 0 -195.5 -99t-73.5 -268zM371 1133 q58 217 213 217q34 0 84 -13l57 -16q50 -12 53 -12q66 0 90 77h109q-30 -109 -81 -162t-130 -53q-36 0 -80 13l-59 18q-38 10 -58 10q-66 0 -90 -79h-108z" />
<glyph unicode="&#xe4;" horiz-adv-x="1175" d="M53 414q0 257 125 412t324 155q188 0 327 -160l19 127h215l-125 -948h-215l16 104q-112 -141 -297 -141t-287 117t-102 334zM276 444q0 -137 63.5 -212.5t174.5 -75.5q128 0 203.5 102t75.5 285q0 122 -66.5 195t-181.5 73q-122 0 -195.5 -99t-73.5 -268zM385 1257 q0 46 36.5 82.5t82.5 36.5q50 0 85.5 -35.5t35.5 -83.5q0 -54 -34 -88t-87 -34q-48 0 -83.5 35t-35.5 87zM723 1257q0 46 36.5 82.5t82.5 36.5q50 0 85.5 -35.5t35.5 -83.5q0 -54 -34 -88t-87 -34q-48 0 -83.5 35t-35.5 87z" />
<glyph unicode="&#xe5;" horiz-adv-x="1175" d="M53 414q0 257 125 412t324 155q194 0 327 -160l19 127h215l-125 -948h-215l16 104q-112 -141 -297 -141t-287 117t-102 334zM276 444q0 -137 63.5 -212.5t174.5 -75.5q128 0 203.5 102t75.5 285q0 122 -66.5 195t-181.5 73q-122 0 -195.5 -99t-73.5 -268zM381 1278 q0 98 67.5 165.5t165.5 67.5q97 0 165.5 -68t68.5 -165q0 -98 -68 -167t-166 -69t-165.5 68.5t-67.5 167.5zM500 1278q0 -47 34 -82t80 -35q48 0 81.5 34t33.5 83q0 50 -32.5 82.5t-82.5 32.5q-47 0 -80.5 -34t-33.5 -81z" />
<glyph unicode="&#xe6;" horiz-adv-x="1734" d="M29 279q0 152 106 237.5t301 85.5q177 0 262 -102q7 65 7 98q0 115 -50 162t-170 47q-140 0 -307 -86l25 207q165 53 297 53q265 0 334 -156q55 73 151 116.5t207 43.5q200 0 314 -117.5t114 -322.5q0 -60 -4 -109h-723q0 -132 64.5 -207t172.5 -75q76 0 144 36t115 101 l155 -121q-83 -108 -183.5 -158.5t-230.5 -50.5q-113 0 -208.5 43.5t-157.5 122.5q-72 -84 -158.5 -123t-199.5 -39q-178 0 -277.5 83.5t-99.5 230.5zM246 281q0 -71 54 -111.5t151 -40.5q112 0 172.5 42t60.5 116q0 71 -59.5 113t-165.5 42q-101 0 -157 -43t-56 -118z M911 588h490q-3 97 -59.5 152t-151.5 55q-109 0 -184 -56t-95 -151z" />
<glyph unicode="&#xe7;" horiz-adv-x="958" d="M41 424q0 247 154.5 402t398.5 155q180 0 321 -98l-45 -205q-130 115 -278 115q-144 0 -236 -102t-92 -265q0 -128 68 -201t186 -73q148 0 301 100l-45 -229q-118 -62 -262 -62q-215 0 -343 126.5t-128 336.5zM141 -426l43 111q134 -47 224 -47q56 0 87 24.5t31 65.5 q0 43 -37.5 59t-123.5 16h-39l69 197h90l-34 -94h8q227 0 227 -170q0 -101 -65.5 -158t-184.5 -57q-110 0 -295 53z" />
<glyph unicode="&#xe8;" horiz-adv-x="1101" d="M41 424q0 245 149.5 401t380.5 156q191 0 306.5 -119t115.5 -321q0 -33 -6 -107h-723q0 -130 65.5 -205t172.5 -75q76 0 143.5 35.5t114.5 101.5l155 -121q-84 -108 -180.5 -158.5t-222.5 -50.5q-211 0 -341 127t-130 336zM283 588h489q-3 97 -59.5 152t-151.5 55 q-108 0 -183 -56t-95 -151zM307 1442h213l207 -350h-117z" />
<glyph unicode="&#xe9;" horiz-adv-x="1101" d="M41 424q0 245 149.5 401t380.5 156q191 0 306.5 -119t115.5 -321q0 -33 -6 -107h-723q0 -130 65.5 -205t172.5 -75q76 0 143.5 35.5t114.5 101.5l155 -121q-84 -108 -180.5 -158.5t-222.5 -50.5q-211 0 -341 127t-130 336zM283 588h489q-3 97 -59.5 152t-151.5 55 q-108 0 -183 -56t-95 -151zM434 1092l221 350h213l-303 -350h-131z" />
<glyph unicode="&#xea;" horiz-adv-x="1101" d="M41 424q0 245 149.5 401t380.5 156q191 0 306.5 -119t115.5 -321q0 -33 -6 -107h-723q0 -130 65.5 -205t172.5 -75q76 0 143.5 35.5t114.5 101.5l155 -121q-84 -108 -180.5 -158.5t-222.5 -50.5q-211 0 -341 127t-130 336zM272 1092l254 350h213l127 -350h-116l-132 200 l-217 -200h-129zM283 588h489q-3 97 -59.5 152t-151.5 55q-108 0 -183 -56t-95 -151z" />
<glyph unicode="&#xeb;" horiz-adv-x="1101" d="M41 424q0 245 149.5 401t380.5 156q191 0 306.5 -119t115.5 -321q0 -33 -6 -107h-723q0 -130 65.5 -205t172.5 -75q76 0 143.5 35.5t114.5 101.5l155 -121q-84 -108 -180.5 -158.5t-222.5 -50.5q-211 0 -341 127t-130 336zM283 588h489q-3 97 -59.5 152t-151.5 55 q-108 0 -183 -56t-95 -151zM322 1257q0 46 36 82.5t82 36.5q50 0 85.5 -35.5t35.5 -83.5q0 -54 -34 -88t-87 -34q-48 0 -83 35t-35 87zM659 1257q0 46 36.5 82.5t82.5 36.5q50 0 85.5 -35.5t35.5 -83.5q0 -54 -34 -88t-87 -34q-48 0 -83.5 35t-35.5 87z" />
<glyph unicode="&#xec;" horiz-adv-x="526" d="M37 1442h213l207 -350h-117zM61 0l125 948h215l-125 -948h-215z" />
<glyph unicode="&#xed;" horiz-adv-x="526" d="M61 0l125 948h215l-125 -948h-215zM164 1092l221 350h213l-303 -350h-131z" />
<glyph unicode="&#xee;" horiz-adv-x="526" d="M2 1092l254 350h213l127 -350h-117l-131 200l-217 -200h-129zM61 0l125 948h215l-125 -948h-215z" />
<glyph unicode="&#xef;" horiz-adv-x="526" d="M51 1257q0 46 36.5 82.5t82.5 36.5q50 0 85.5 -35.5t35.5 -83.5q0 -54 -34 -88t-87 -34q-48 0 -83.5 35t-35.5 87zM61 0l125 948h215l-125 -948h-215zM389 1257q0 46 36.5 82.5t82.5 36.5q50 0 85.5 -35.5t35.5 -83.5q0 -54 -34 -88t-87 -34q-48 0 -83.5 35t-35.5 87z " />
<glyph unicode="&#xf0;" horiz-adv-x="1169" d="M33 397q0 222 145 363t377 141q210 0 326 -139q-9 226 -127 412l-305 -70l-33 113l270 63q-88 88 -164 143l148 123q118 -81 227 -217l246 57l35 -112l-217 -51q126 -215 126 -547q0 -346 -147 -531.5t-418 -185.5q-222 0 -355.5 120.5t-133.5 317.5zM260 395 q0 -115 69 -181.5t189 -66.5q145 0 230.5 85.5t85.5 226.5q0 127 -69 194.5t-194 67.5q-139 0 -225 -89t-86 -237z" />
<glyph unicode="&#xf1;" horiz-adv-x="1179" d="M51 0l125 948h207l-16 -114q163 147 356 147q146 0 227.5 -76.5t81.5 -214.5q0 -68 -16 -190l-66 -500h-215l72 545q4 29 4 80q0 94 -45 143t-131 49q-134 0 -210 -87t-99 -265l-60 -465h-215zM375 1133q58 217 213 217q34 0 84 -13l57 -16q50 -12 53 -12q66 0 90 77h109 q-30 -109 -81 -162t-130 -53q-36 0 -80 13l-59 18q-38 10 -58 10q-66 0 -90 -79h-108z" />
<glyph unicode="&#xf2;" horiz-adv-x="1169" d="M37 426q0 247 152.5 402t392.5 155q222 0 353.5 -129.5t131.5 -345.5q0 -236 -153.5 -391.5t-399.5 -155.5q-218 0 -347.5 127t-129.5 338zM260 426q0 -128 68 -201t186 -73q149 0 238.5 98t89.5 264q0 133 -67.5 205t-190.5 72q-142 0 -233 -101.5t-91 -263.5zM342 1442 h213l207 -350h-117z" />
<glyph unicode="&#xf3;" horiz-adv-x="1169" d="M37 426q0 247 152.5 402t392.5 155q222 0 353.5 -129.5t131.5 -345.5q0 -236 -153.5 -391.5t-399.5 -155.5q-218 0 -347.5 127t-129.5 338zM260 426q0 -128 68 -201t186 -73q149 0 238.5 98t89.5 264q0 133 -67.5 205t-190.5 72q-142 0 -233 -101.5t-91 -263.5zM469 1092 l221 350h213l-303 -350h-131z" />
<glyph unicode="&#xf4;" horiz-adv-x="1169" d="M37 426q0 247 152.5 402t392.5 155q222 0 353.5 -129.5t131.5 -345.5q0 -236 -153.5 -391.5t-399.5 -155.5q-218 0 -347.5 127t-129.5 338zM260 426q0 -128 68 -201t186 -73q149 0 238.5 98t89.5 264q0 133 -67.5 205t-190.5 72q-142 0 -233 -101.5t-91 -263.5zM307 1092 l254 350h213l127 -350h-117l-131 200l-217 -200h-129z" />
<glyph unicode="&#xf5;" horiz-adv-x="1169" d="M37 426q0 247 152.5 402t392.5 155q222 0 353.5 -129.5t131.5 -345.5q0 -236 -153.5 -391.5t-399.5 -155.5q-218 0 -347.5 127t-129.5 338zM260 426q0 -128 68 -201t186 -73q149 0 238.5 98t89.5 264q0 133 -67.5 205t-190.5 72q-142 0 -233 -101.5t-91 -263.5zM342 1133 q58 217 213 217q34 0 84 -13l57 -16q50 -12 54 -12q66 0 90 77h108q-30 -109 -81 -162t-130 -53q-36 0 -80 13l-59 18q-38 10 -57 10q-66 0 -90 -79h-109z" />
<glyph unicode="&#xf6;" horiz-adv-x="1169" d="M37 426q0 247 152.5 402t392.5 155q222 0 353.5 -129.5t131.5 -345.5q0 -236 -153.5 -391.5t-399.5 -155.5q-218 0 -347.5 127t-129.5 338zM260 426q0 -128 68 -201t186 -73q149 0 238.5 98t89.5 264q0 133 -67.5 205t-190.5 72q-142 0 -233 -101.5t-91 -263.5zM356 1257 q0 46 36.5 82.5t82.5 36.5q50 0 85.5 -35.5t35.5 -83.5q0 -54 -34 -88t-87 -34q-48 0 -83.5 35t-35.5 87zM694 1257q0 46 36.5 82.5t82.5 36.5q50 0 85.5 -35.5t35.5 -83.5q0 -54 -34 -88t-87 -34q-48 0 -83.5 35t-35.5 87z" />
<glyph unicode="&#xf7;" horiz-adv-x="1705" d="M254 528v166h1198v-166h-1198zM717 229q0 57 40.5 97.5t96.5 40.5q57 0 97 -40.5t40 -97.5q0 -56 -39.5 -95.5t-97.5 -39.5t-97.5 39t-39.5 96zM717 989q0 57 40.5 98t96.5 41q57 0 97 -41t40 -98q0 -56 -39.5 -95.5t-97.5 -39.5t-97.5 39t-39.5 96z" />
<glyph unicode="&#xf8;" horiz-adv-x="1169" d="M-39 14l150 136q-76 118 -76 286q0 236 155 391.5t398 155.5q204 0 323 -113l146 136l71 -78l-147 -135q86 -111 86 -283q0 -240 -154.5 -394.5t-402.5 -154.5q-198 0 -328 115l-157 -139zM252 420q0 -63 22 -127l496 448q-97 60 -188 60q-141 0 -235.5 -106.5 t-94.5 -274.5zM328 207q92 -62 182 -62q150 0 245 100.5t95 256.5q0 76 -25 153z" />
<glyph unicode="&#xf9;" horiz-adv-x="1169" d="M92 319q0 39 19 191l57 438h215l-51 -397q-23 -176 -23 -209q0 -93 51.5 -142.5t145.5 -49.5q73 0 121.5 19.5t79.5 65.5t48.5 107.5t30.5 159.5l60 446h215l-64 -481q-9 -64 -14 -96.5t-16.5 -83t-25 -81t-36.5 -66t-53 -64.5q-124 -115 -360 -115q-400 0 -400 358z M369 1442h213l206 -350h-116z" />
<glyph unicode="&#xfa;" horiz-adv-x="1169" d="M92 319q0 39 19 191l57 438h215l-51 -397q-23 -176 -23 -209q0 -93 51.5 -142.5t145.5 -49.5q73 0 121.5 19.5t79.5 65.5t48.5 107.5t30.5 159.5l60 446h215l-64 -481q-9 -64 -14 -96.5t-16.5 -83t-25 -81t-36.5 -66t-53 -64.5q-124 -115 -360 -115q-400 0 -400 358z M496 1092l221 350h213l-303 -350h-131z" />
<glyph unicode="&#xfb;" horiz-adv-x="1169" d="M92 319q0 39 19 191l57 438h215l-51 -397q-23 -176 -23 -209q0 -93 51.5 -142.5t145.5 -49.5q73 0 121.5 19.5t79.5 65.5t48.5 107.5t30.5 159.5l60 446h215l-64 -481q-9 -64 -14 -96.5t-16.5 -83t-25 -81t-36.5 -66t-53 -64.5q-124 -115 -360 -115q-400 0 -400 358z M334 1092l254 350h213l127 -350h-117l-131 200l-217 -200h-129z" />
<glyph unicode="&#xfc;" horiz-adv-x="1169" d="M92 319q0 39 19 191l57 438h215l-51 -397q-23 -176 -23 -209q0 -93 51.5 -142.5t145.5 -49.5q73 0 121.5 19.5t79.5 65.5t48.5 107.5t30.5 159.5l60 446h215l-64 -481q-9 -64 -14 -96.5t-16.5 -83t-25 -81t-36.5 -66t-53 -64.5q-124 -115 -360 -115q-400 0 -400 358z M383 1257q0 46 36.5 82.5t82.5 36.5q50 0 85.5 -35.5t35.5 -83.5q0 -54 -34 -88t-87 -34q-48 0 -83.5 35t-35.5 87zM721 1257q0 46 36.5 82.5t82.5 36.5q50 0 85.5 -35.5t35.5 -83.5q0 -54 -34 -88t-87 -34q-48 0 -83.5 35t-35.5 87z" />
<glyph unicode="&#xfd;" horiz-adv-x="952" d="M-92 -416l362 570l-274 794h223l141 -456q17 -55 31 -181q29 83 80 168l274 469h240l-854 -1364h-223zM348 1092l221 350h213l-303 -350h-131z" />
<glyph unicode="&#xfe;" horiz-adv-x="1175" d="M-8 -449l264 1999h215l-90 -706q113 137 293 137q185 0 286 -115t101 -331q0 -254 -125 -409t-322 -155q-187 0 -331 162l-76 -582h-215zM322 406q0 -121 67 -193t182 -72q124 0 195.5 96t71.5 267q0 138 -62 212.5t-172 74.5q-129 0 -205.5 -101.5t-76.5 -283.5z" />
<glyph unicode="&#xff;" horiz-adv-x="952" d="M-92 -416l362 570l-274 794h223l141 -456q17 -55 31 -181q29 83 80 168l274 469h240l-854 -1364h-223zM256 1257q0 46 36.5 82.5t82.5 36.5q50 0 85.5 -35.5t35.5 -83.5q0 -54 -34 -88t-87 -34q-48 0 -83.5 35t-35.5 87zM594 1257q0 46 36.5 82.5t82.5 36.5 q50 0 85.5 -35.5t35.5 -83.5q0 -54 -34 -88t-87 -34q-48 0 -83.5 35t-35.5 87z" />
<glyph unicode="&#x152;" horiz-adv-x="2277" d="M96 674q0 178 62 333.5t178 268.5q231 223 573 223q183 0 317.5 -63t231.5 -193l29 221h813l-29 -207h-592l-49 -368h594l-29 -205h-591l-62 -473h592l-27 -211h-813l23 170q-199 -211 -510 -211q-213 0 -374.5 89t-249 251.5t-87.5 374.5zM322 682q0 -230 137.5 -373 t357.5 -143q163 0 297 80t211.5 222.5t77.5 317.5q0 228 -139 367t-365 139q-115 0 -218.5 -43t-178.5 -121q-180 -186 -180 -446z" />
<glyph unicode="&#x153;" horiz-adv-x="1871" d="M35 426q0 246 152 401.5t391 155.5q254 0 376 -166q73 81 169.5 123.5t201.5 42.5q209 0 323.5 -115t114.5 -323q0 -60 -4 -109h-723q0 -132 64.5 -207t173.5 -75q76 0 143.5 35.5t114.5 101.5l156 -121q-83 -107 -182.5 -158t-225.5 -51q-124 0 -221 46.5t-148 129.5 q-128 -174 -401 -174q-218 0 -346.5 126t-128.5 337zM258 430q0 -129 67 -202.5t183 -73.5q147 0 236.5 98t89.5 264q0 133 -67 205t-189 72q-139 0 -229.5 -101t-90.5 -262zM1055 588h489q-3 97 -59.5 152t-151.5 55q-108 0 -183 -56t-95 -151z" />
<glyph unicode="&#x178;" horiz-adv-x="1204" d="M51 1464h248l244 -491q2 -4 55 -129q33 60 86 135l334 485h262l-586 -813l-86 -651h-231l88 659zM455 1774q0 46 36 82t82 36q50 0 85.5 -35t35.5 -83q0 -54 -34 -88.5t-87 -34.5q-48 0 -83 35.5t-35 87.5zM793 1774q0 46 36 82t82 36q50 0 85.5 -35t35.5 -83 q0 -54 -34 -88.5t-87 -34.5q-48 0 -83 35.5t-35 87.5z" />
<glyph unicode="&#x2c6;" horiz-adv-x="1024" d="M242 1092l254 350h213l127 -350h-117l-131 200l-217 -200h-129z" />
<glyph unicode="&#x2dc;" horiz-adv-x="1024" d="M276 1133q58 217 213 217q34 0 84 -13l58 -16q50 -12 53 -12q66 0 90 77h109q-30 -109 -81 -162t-130 -53q-36 0 -80 13l-60 18q-38 10 -57 10q-66 0 -90 -79h-109z" />
<glyph unicode="&#x2000;" horiz-adv-x="986" />
<glyph unicode="&#x2001;" horiz-adv-x="1972" />
<glyph unicode="&#x2002;" horiz-adv-x="986" />
<glyph unicode="&#x2003;" horiz-adv-x="1972" />
<glyph unicode="&#x2004;" horiz-adv-x="657" />
<glyph unicode="&#x2005;" horiz-adv-x="493" />
<glyph unicode="&#x2006;" horiz-adv-x="328" />
<glyph unicode="&#x2007;" horiz-adv-x="328" />
<glyph unicode="&#x2008;" horiz-adv-x="246" />
<glyph unicode="&#x2009;" horiz-adv-x="394" />
<glyph unicode="&#x200a;" horiz-adv-x="109" />
<glyph unicode="&#x2010;" horiz-adv-x="749" d="M72 375l24 192h512l-24 -192h-512z" />
<glyph unicode="&#x2011;" horiz-adv-x="749" d="M72 375l24 192h512l-24 -192h-512z" />
<glyph unicode="&#x2012;" horiz-adv-x="749" d="M72 375l24 192h512l-24 -192h-512z" />
<glyph unicode="&#x2013;" horiz-adv-x="1024" d="M-41 401l18 142h1024l-18 -142h-1024z" />
<glyph unicode="&#x2014;" horiz-adv-x="2048" d="M-41 401l18 142h2048l-18 -142h-2048z" />
<glyph unicode="&#x2018;" horiz-adv-x="604" d="M129 1016l348 481l119 -72l-289 -514z" />
<glyph unicode="&#x2019;" horiz-adv-x="604" d="M127 983l289 514l180 -102l-348 -484z" />
<glyph unicode="&#x201a;" horiz-adv-x="604" d="M-74 -221l289 514l178 -105l-348 -481z" />
<glyph unicode="&#x201c;" horiz-adv-x="962" d="M123 1016l348 481l119 -72l-289 -514zM481 1016l348 481l119 -72l-289 -514z" />
<glyph unicode="&#x201d;" horiz-adv-x="962" d="M127 983l289 514l178 -102l-348 -484zM483 983l289 514l180 -102l-350 -484z" />
<glyph unicode="&#x201e;" horiz-adv-x="962" d="M-74 -221l289 514l178 -105l-348 -481zM285 -221l288 514l179 -105l-349 -481z" />
<glyph unicode="&#x2022;" d="M307 762q0 123 87 209t210 86q122 0 208.5 -86t86.5 -209q0 -122 -87 -209.5t-210 -87.5t-209 87t-86 210z" />
<glyph unicode="&#x2026;" horiz-adv-x="2048" d="M135 111q0 55 37.5 93t93.5 38t93.5 -38t37.5 -93q0 -54 -38 -91.5t-93 -37.5t-93 37.5t-38 91.5zM817 111q0 55 37.5 93t93.5 38t93.5 -38t37.5 -93q0 -54 -38 -91.5t-93 -37.5t-93 37.5t-38 91.5zM1501 111q0 55 37.5 93t93.5 38t93.5 -38t37.5 -93q0 -54 -38 -91.5 t-93 -37.5t-93 37.5t-38 91.5z" />
<glyph unicode="&#x202f;" horiz-adv-x="394" />
<glyph unicode="&#x2039;" horiz-adv-x="587" d="M37 477l364 420l121 -100l-293 -332l207 -336l-133 -84z" />
<glyph unicode="&#x203a;" horiz-adv-x="587" d="M0 147l293 332l-207 336l133 82l266 -430l-364 -422z" />
<glyph unicode="&#x205f;" horiz-adv-x="493" />
<glyph unicode="&#x20ac;" d="M0 543l47 110h143q0 65 17 148h-164l49 112h135q67 264 238 415t395 151q210 0 350 -121l-45 -221q-137 137 -303 137q-139 0 -241.5 -92.5t-157.5 -268.5h604l-61 -112h-566q-13 -81 -16 -148h502l-62 -110h-438q3 -188 83.5 -284.5t233.5 -96.5q138 0 304 102l-50 -241 q-127 -62 -278 -62q-255 0 -388.5 147.5t-137.5 434.5h-193z" />
<glyph unicode="&#x2122;" horiz-adv-x="1705" d="M225 1366v94h467v-94h-168v-448h-129v448h-170zM809 918v542h170l141 -360l133 360h170v-542h-114v428l-160 -428h-59l-166 428v-428h-115z" />
<glyph unicode="&#xe000;" horiz-adv-x="952" d="M0 0v952h952v-952h-952z" />
<glyph unicode="&#xfb01;" horiz-adv-x="1128" d="M23 764l24 184h170l33 236q14 106 35.5 175t58 118t90.5 70.5t133 21.5q92 0 172 -35l-24 -186q-70 30 -115 30q-68 0 -95.5 -51t-43.5 -176l-27 -203h193l-25 -184h-192l-101 -764h-215l101 764h-172zM664 0l122 948h218l-125 -948h-215zM811 1333q0 54 36.5 90.5 t90.5 36.5t91.5 -36.5t37.5 -90.5q0 -55 -37.5 -92t-91.5 -37q-55 0 -91 36.5t-36 92.5z" />
<glyph unicode="&#xfb02;" horiz-adv-x="1128" d="M23 764l24 184h170l33 236q14 106 35.5 175t58 118t90.5 70.5t133 21.5q92 0 172 -35l-24 -186q-70 30 -115 30q-68 0 -95.5 -51t-43.5 -176l-27 -203h193l-25 -184h-192l-101 -764h-215l101 764h-172zM664 0l202 1550h215l-202 -1550h-215z" />
</font>
</defs>
</svg>
