<?xml version="1.0" standalone="no"?>
<!DOCTYPE svg PUBLIC "-//W3C//DTD SVG 1.1//EN" "http://www.w3.org/Graphics/SVG/1.1/DTD/svg11.dtd" >
<svg xmlns="http://www.w3.org/2000/svg">
<metadata></metadata>
<defs>
<font id="aig_futurabold" horiz-adv-x="638" >
<font-face units-per-em="2048" ascent="1638" descent="-410" />
<missing-glyph horiz-adv-x="641" />
<glyph horiz-adv-x="2048" />
<glyph horiz-adv-x="2048" />
<glyph unicode="&#xd;" horiz-adv-x="2048" />
<glyph unicode=" "  horiz-adv-x="641" />
<glyph unicode="&#x09;" horiz-adv-x="641" />
<glyph unicode="&#xa0;" horiz-adv-x="641" />
<glyph unicode="!" horiz-adv-x="702" d="M150 164q0 84 57.5 143.5t142.5 59.5t144 -59t59 -144q0 -86 -59 -144.5t-144 -58.5q-84 0 -142 59t-58 144zM166 487v1045h371v-1045h-371z" />
<glyph unicode="&#x22;" horiz-adv-x="712" d="M76 877v561h219v-561h-219zM416 877v561h223v-561h-223z" />
<glyph unicode="#" horiz-adv-x="1574" d="M23 381l86 231h270l82 230h-283l86 229h279l141 395h250l-139 -395h235l141 395h250l-139 -395h270l-86 -229h-268l-80 -230h277l-84 -231h-275l-141 -393h-250l139 393h-235l-141 -393h-250l139 393h-274zM625 610h245l82 232h-245z" />
<glyph unicode="$" horiz-adv-x="1280" d="M57 182l181 293q172 -199 356 -199q77 0 125.5 44t48.5 108q0 81 -50.5 117.5t-180.5 70.5q-214 58 -310 149t-96 259q0 198 124.5 321.5t348.5 145.5v139h129v-137q181 -21 338 -127l-127 -285q-136 115 -280 115q-71 0 -115.5 -34t-44.5 -87q0 -47 32 -78t65.5 -43.5 t114.5 -34.5l21 -6q103 -28 172.5 -60t124 -82t80 -121.5t25.5 -170.5q0 -207 -126 -345.5t-337 -158.5v-243h-129v239q-145 3 -262 53.5t-228 157.5z" />
<glyph unicode="%" horiz-adv-x="1851" d="M49 1075q0 184 102 294t275 110t275 -110t102 -294t-102 -293.5t-275 -109.5t-275 109.5t-102 293.5zM299 1075q0 -128 28.5 -189t98.5 -61q69 0 98 61t29 189t-28.5 189t-98.5 61t-98.5 -61t-28.5 -189zM393 -39l879 1518h188l-885 -1518h-182zM1067 367 q0 184 102 293.5t275 109.5t274 -109.5t101 -293.5t-101.5 -295t-273.5 -111t-274.5 111t-102.5 295zM1317 367q0 -128 28.5 -190t98.5 -62q69 0 98 61.5t29 190.5q0 128 -28.5 188.5t-98.5 60.5t-98.5 -60.5t-28.5 -188.5z" />
<glyph unicode="&#x26;" horiz-adv-x="1650" d="M115 369q0 140 81.5 244t258.5 198q-136 157 -136 301t114.5 244t291.5 100q203 0 316.5 -98.5t113.5 -261.5q0 -211 -250 -369l172 -180q111 92 205 203l209 -215q-103 -125 -201 -207l318 -328h-443l-129 150q-106 -98 -221 -143.5t-258 -45.5q-196 0 -319 116 t-123 292zM467 395q0 -64 44.5 -107.5t111.5 -43.5q97 0 213 104l-236 258q-68 -61 -100.5 -110.5t-32.5 -100.5zM623 1092q0 -23 14.5 -59t38.5 -64l57 -70l47 39q103 83 103 164q0 53 -34 86t-91 33q-63 0 -99 -34.5t-36 -94.5z" />
<glyph unicode="'" horiz-adv-x="370" d="M76 877v561h219v-561h-219z" />
<glyph unicode="(" horiz-adv-x="743" d="M104 518q0 283 88 524.5t273 464.5l227 -147q-154 -186 -221.5 -388.5t-67.5 -453.5q0 -245 68 -448.5t213 -386.5l-219 -152q-185 223 -273 464t-88 523z" />
<glyph unicode=")" horiz-adv-x="743" d="M51 1360l230 147q184 -222 271 -463.5t87 -525.5t-87 -524.5t-271 -462.5l-220 152q145 183 213 386.5t68 448.5q0 250 -68 453t-223 389z" />
<glyph unicode="*" horiz-adv-x="1067" d="M160 995l243 99l-243 96l102 176l205 -158l-37 256h205l-35 -256l205 160l100 -178l-239 -96l241 -99l-102 -176l-205 160l35 -258h-203l33 258l-203 -160z" />
<glyph unicode="+" horiz-adv-x="1705" d="M254 496v231h481v494h238v-494h479v-231h-479v-496h-238v496h-481z" />
<glyph unicode="," d="M27 -295l213 627h372l-309 -627h-276z" />
<glyph unicode="-" horiz-adv-x="933" d="M127 340v326h680v-326h-680z" />
<glyph unicode="." d="M119 164q0 84 57.5 143.5t142.5 59.5t144 -59t59 -144q0 -86 -59 -144.5t-144 -58.5q-84 0 -142 59t-58 144z" />
<glyph unicode="/" horiz-adv-x="937" d="M0 -190l717 1687h221l-715 -1687h-223z" />
<glyph unicode="0" horiz-adv-x="1280" d="M86 721q0 356 149.5 557t405.5 201q260 0 406.5 -201t146.5 -571q0 -349 -149 -547.5t-404 -198.5q-256 0 -405.5 201.5t-149.5 558.5zM455 721q0 -236 44 -348.5t142 -112.5t141 113t43 348t-43.5 348t-140.5 113q-99 0 -142.5 -111.5t-43.5 -349.5z" />
<glyph unicode="1" horiz-adv-x="1280" d="M178 1118l172 332h506v-1450h-364v1118h-314z" />
<glyph unicode="2" horiz-adv-x="1280" d="M39 0l657 778q117 138 117 236q0 77 -48.5 125.5t-127.5 48.5q-93 0 -144 -60.5t-51 -173.5v-18h-352v10q0 248 146.5 391.5t396.5 143.5t394 -129.5t144 -335.5q0 -110 -48.5 -205.5t-149.5 -208.5l-264 -291h448v-311h-1118z" />
<glyph unicode="3" horiz-adv-x="1280" d="M84 465v20h371v-24q0 -95 45 -145t133 -50q92 0 141 48t49 137q0 102 -52 149t-165 47q-29 0 -45 -2v236h21q101 0 155 44.5t54 127.5q0 67 -46 109t-116 42q-76 0 -119 -41.5t-43 -115.5h-354q5 204 143.5 318t390.5 114q227 0 354 -102.5t127 -274.5q0 -111 -59.5 -189 t-171.5 -112q137 -23 213 -118.5t76 -242.5q0 -214 -152 -346.5t-395 -132.5q-255 0 -405 136.5t-150 367.5z" />
<glyph unicode="4" horiz-adv-x="1280" d="M55 328v288l545 840h455v-840h162v-288h-162v-328h-334v328h-666zM362 616h359v426q0 109 10 166q-38 -88 -100 -182z" />
<glyph unicode="5" horiz-adv-x="1280" d="M121 78l26 354l31 -6q53 -80 143.5 -127t194.5 -47q139 0 215 67.5t76 186.5q0 115 -82 189.5t-213 74.5q-174 0 -287 -119l-49 29l121 770h797v-299h-555l-29 -188q105 20 180 20q223 0 352 -133.5t129 -362.5q0 -242 -159 -384t-441 -142q-273 0 -450 117z" />
<glyph unicode="6" horiz-adv-x="1280" d="M90 492q0 81 18.5 159.5t59.5 163.5t79 150t105 168l205 317h408l-342 -516q80 22 153 22q183 0 306.5 -129.5t123.5 -332.5q0 -238 -151.5 -385.5t-409.5 -147.5t-406.5 146t-148.5 385zM420 475q0 -104 59.5 -163.5t161.5 -59.5t161.5 59.5t59.5 163.5t-59.5 164.5 t-161.5 60.5t-161.5 -60.5t-59.5 -164.5z" />
<glyph unicode="7" horiz-adv-x="1280" d="M127 1122v328h1118v-70l-637 -1380h-413l550 1122h-618z" />
<glyph unicode="8" horiz-adv-x="1280" d="M82 403q0 154 79 253.5t222 125.5q-115 26 -178.5 105t-63.5 196q0 184 130 290t368 106q239 0 369.5 -106t130.5 -290q0 -117 -63.5 -196t-178.5 -105q143 -26 222 -125.5t79 -253.5q0 -205 -146 -323.5t-413 -118.5q-266 0 -411.5 118.5t-145.5 323.5zM438 449 q0 -89 54.5 -142t146.5 -53q94 0 147.5 52t53.5 143q0 90 -53.5 141t-147.5 51t-147.5 -51.5t-53.5 -140.5zM467 1069q0 -78 47 -123t125 -45q80 0 127 45t47 123t-46 122t-128 44q-79 0 -125.5 -44.5t-46.5 -121.5z" />
<glyph unicode="9" horiz-adv-x="1280" d="M86 946q0 238 151 386.5t408 148.5q258 0 406.5 -146t148.5 -385q0 -146 -64 -292t-198 -349l-203 -309h-407l342 508q-84 -23 -154 -23q-183 0 -306.5 129t-123.5 332zM430 965q0 -104 59.5 -164t161.5 -60t161.5 60t59.5 164t-59.5 164.5t-161.5 60.5t-161.5 -60.5 t-59.5 -164.5z" />
<glyph unicode=":" horiz-adv-x="702" d="M150 164q0 84 57.5 142.5t142.5 58.5t144 -58t59 -143q0 -86 -59 -144.5t-144 -58.5q-84 0 -142 59t-58 144zM150 799q0 84 57 142t143 58q85 0 144 -58t59 -142q0 -86 -59 -144.5t-144 -58.5q-84 0 -142 59t-58 144z" />
<glyph unicode=";" horiz-adv-x="702" d="M53 -295l213 627h373l-309 -627h-277zM244 799q0 84 58 142t144 58q85 0 143 -57.5t58 -142.5q0 -86 -58 -144.5t-143 -58.5t-143.5 59t-58.5 144z" />
<glyph unicode="&#x3c;" horiz-adv-x="1705" d="M264 494v233l1178 487v-253l-854 -351l854 -348v-254z" />
<glyph unicode="=" horiz-adv-x="1705" d="M254 272v230h1198v-230h-1198zM254 719v231h1198v-231h-1198z" />
<glyph unicode="&#x3e;" horiz-adv-x="1705" d="M264 8v254l854 348l-854 351v253l1178 -487v-233z" />
<glyph unicode="?" horiz-adv-x="1239" d="M127 1104v8q0 191 139 307.5t373 116.5q213 0 342 -123.5t129 -322.5q0 -166 -90 -272t-234 -109v-213h-344v413h107q113 0 172 45.5t59 132.5q0 69 -46 116.5t-111 47.5q-69 0 -110 -38t-44 -109h-342zM399 164q0 84 58.5 143.5t144.5 59.5q85 0 143 -59t58 -144 q0 -86 -58 -144.5t-143 -58.5t-144 59t-59 144z" />
<glyph unicode="@" horiz-adv-x="2048" d="M82 520q0 342 209 598q148 182 359 277.5t468 95.5q173 0 323 -47t257 -131q270 -212 270 -549q0 -167 -65.5 -307t-190.5 -240q-142 -115 -330 -115q-212 0 -221 160q-57 -83 -127.5 -120.5t-167.5 -37.5q-163 0 -247 87.5t-84 257.5q0 161 66 291.5t178 203t247 72.5 q152 0 229 -123l52 92h206l-153 -610q-4 -24 -4 -33q0 -59 63 -59q89 0 168.5 65.5t127.5 176.5t48 237q0 237 -178.5 389t-468.5 152q-296 0 -504 -146q-155 -110 -239 -274.5t-84 -356.5q0 -302 203 -481.5t544 -179.5q336 0 596 186l97 -135q-309 -233 -693 -233 q-389 0 -643 194q-311 241 -311 643zM778 444q0 -84 35 -129t98 -45q83 0 147 58.5t89 158.5l51 209q-9 76 -50.5 116t-109.5 40q-102 0 -181 -121.5t-79 -286.5z" />
<glyph unicode="A" horiz-adv-x="1478" d="M-16 0l505 1464h500l506 -1464h-397l-74 262h-567l-76 -262h-397zM543 547h397l-149 483q-24 91 -50 197q-7 -30 -51 -197z" />
<glyph unicode="B" horiz-adv-x="1388" d="M156 0v1464h444q165 0 261 -9t171 -42q101 -44 154 -125t53 -190q0 -126 -63 -199t-203 -111q157 -12 244.5 -109.5t87.5 -260.5q0 -117 -49.5 -205.5t-141.5 -138.5q-90 -48 -210.5 -61t-334.5 -13h-413zM526 299h140q135 0 197.5 33.5t62.5 120.5q0 99 -58 132t-196 33 h-146v-319zM526 879h80q136 0 197 29.5t61 115.5q0 92 -59 121t-193 29h-86v-295z" />
<glyph unicode="C" horiz-adv-x="1286" d="M94 731q0 218 95 393.5t265.5 275t383.5 99.5q187 0 379 -92v-436q-81 90 -161.5 133t-176.5 43q-172 0 -278.5 -118.5t-106.5 -305.5q0 -173 107 -290.5t278 -117.5q95 0 176 43t162 134v-437q-192 -92 -379 -92q-213 0 -383.5 99.5t-265.5 275t-95 393.5z" />
<glyph unicode="D" horiz-adv-x="1568" d="M156 0v1464h352q101 0 159.5 -1.5t141 -8.5t140 -21.5t122.5 -41.5t121 -66q139 -97 211 -247.5t72 -346.5q0 -194 -72 -344.5t-211 -249.5q-66 -47 -137.5 -75.5t-157 -41.5t-155.5 -16.5t-179 -3.5h-407zM551 328h67q232 0 341.5 95t109.5 308q0 214 -110.5 310 t-340.5 96h-67v-809z" />
<glyph unicode="E" horiz-adv-x="1161" d="M156 0v1464h897v-321h-508v-254h479v-314h-479v-247h508v-328h-897z" />
<glyph unicode="F" horiz-adv-x="1114" d="M156 0v1464h897v-321h-508v-254h479v-314h-479v-575h-389z" />
<glyph unicode="G" horiz-adv-x="1726" d="M94 731q0 164 59.5 306.5t162.5 243.5t248.5 158.5t312.5 57.5q429 0 659 -338l-346 -166q-122 168 -313 168q-177 0 -281 -118t-104 -328t103.5 -329.5t281.5 -119.5q153 0 255 76.5t117 196.5h-397v307h784q2 -31 2 -88q0 -377 -201.5 -585t-559.5 -208 q-351 0 -564 217q-104 106 -161.5 250t-57.5 299z" />
<glyph unicode="H" horiz-adv-x="1642" d="M156 0v1464h399v-569h532v569h400v-1464h-400v596h-532v-596h-399z" />
<glyph unicode="I" horiz-adv-x="735" d="M166 0v1464h403v-1464h-403z" />
<glyph unicode="J" horiz-adv-x="980" d="M-25 195l244 221q9 -65 42 -100t83 -35q67 0 83.5 81t16.5 297v805h398v-948q0 -119 -12.5 -200t-51.5 -150q-56 -99 -151.5 -152t-220.5 -53q-278 0 -431 234z" />
<glyph unicode="K" horiz-adv-x="1484" d="M156 0v1464h395v-665l463 665h465l-541 -714l588 -750h-498l-477 657v-657h-395z" />
<glyph unicode="L" horiz-adv-x="1089" d="M156 0v1464h399v-1122h496v-342h-895z" />
<glyph unicode="M" horiz-adv-x="1894" d="M57 0l226 1464h395l221 -755q37 -123 47 -199q11 87 45 201l223 753h396l225 -1464h-373l-86 633q-18 132 -30 328q-7 -45 -17 -90.5t-18 -72.5t-19 -64t-14 -48l-199 -686h-266l-199 686q-2 8 -13.5 47t-19 65t-17.5 72t-17 91q-10 -156 -33 -328l-86 -633h-371z" />
<glyph unicode="N" horiz-adv-x="1744" d="M156 0v1464h385l553 -753q31 -40 133 -258q-23 189 -23 288v723h383v-1464h-383l-553 756q-33 43 -133 256q23 -189 23 -289v-723h-385z" />
<glyph unicode="O" horiz-adv-x="1753" d="M94 729q0 157 59 295.5t171 247.5q110 107 254.5 166t298.5 59t299.5 -59t255.5 -166q112 -108 169.5 -247t57.5 -296t-58.5 -296.5t-168.5 -246.5q-112 -108 -256.5 -166.5t-298.5 -58.5q-134 0 -263 45.5t-235 130.5q-138 110 -211.5 262.5t-73.5 329.5zM494 729 q0 -185 105.5 -307.5t277.5 -122.5q168 0 275.5 123.5t107.5 306.5q0 181 -109 305.5t-274 124.5q-167 0 -275 -124t-108 -306z" />
<glyph unicode="P" horiz-adv-x="1298" d="M156 0v1464h446q88 0 134.5 -1.5t110.5 -8t111.5 -22.5t88.5 -43q97 -62 150.5 -172t53.5 -250q0 -146 -52 -252.5t-150 -165.5q-69 -41 -150 -53.5t-201 -12.5h-168v-483h-374zM530 805h76q136 0 197 36.5t61 137.5q0 100 -61 135t-193 35h-80v-344z" />
<glyph unicode="Q" horiz-adv-x="1753" d="M94 731q0 156 59 295.5t171 247.5q110 107 253.5 165t299.5 58q157 0 299 -57t254 -166q110 -107 169.5 -247.5t59.5 -295.5q0 -165 -60.5 -306t-175.5 -243l267 -354h-340l-156 205q-130 -68 -311 -68q-168 0 -315.5 60t-251 163t-163 244t-59.5 299zM494 729 q0 -186 108 -310t277 -124q45 0 100 22l-207 267h346l76 -101q66 98 66 236q0 193 -109 317.5t-274 124.5q-163 0 -273 -124t-110 -308z" />
<glyph unicode="R" horiz-adv-x="1312" d="M156 0v1464h442q76 0 118 -1t102 -6t99 -15t83.5 -29t80.5 -47q164 -127 164 -358q0 -170 -83.5 -277t-243.5 -141l399 -590h-451l-336 573v-573h-374zM530 772h74q128 0 188 43t60 139q0 113 -57 158t-185 45h-80v-385z" />
<glyph unicode="S" horiz-adv-x="1189" d="M41 176l180 297q177 -201 348 -201q82 0 132.5 43t50.5 109q0 82 -54.5 120.5t-191.5 73.5q-205 54 -299 146.5t-94 259.5q0 207 139 341t366 134q246 0 435 -131l-125 -287q-138 117 -281 117q-72 0 -117 -35t-45 -88q0 -36 15.5 -62t48.5 -43t68 -28.5t89 -25.5 q9 -2 13 -3q83 -22 142.5 -46.5t111 -59.5t83 -80t49 -107.5t17.5 -142.5q0 -231 -152.5 -373.5t-408.5 -142.5q-155 0 -278 51t-242 164z" />
<glyph unicode="T" horiz-adv-x="1132" d="M41 1118v346h1053v-346h-328v-1118h-399v1118h-326z" />
<glyph unicode="U" horiz-adv-x="1597" d="M147 674v790h398v-794q0 -204 52 -288.5t202 -84.5q41 0 73 6t57.5 16t44 29.5t32 38.5t22 52.5t13.5 62t8 76t3.5 85.5t0.5 99v702h397v-870q0 -333 -152 -483t-499 -150q-372 0 -525 178q-80 91 -103.5 212t-23.5 323z" />
<glyph unicode="V" horiz-adv-x="1456" d="M-39 1464h424l293 -819q8 -21 49 -196q38 160 51 196l291 819h424l-614 -1464h-304z" />
<glyph unicode="W" horiz-adv-x="1986" d="M-20 1464h403l168 -700q27 -111 45 -219q13 73 51 219l184 700h322l184 -696q10 -37 18 -71t13 -58.5t8.5 -42.5t5.5 -30t2 -13q23 116 46 215l172 696h403l-414 -1464h-370l-181 625q-11 41 -49 196q-35 -148 -49 -196l-178 -625h-371z" />
<glyph unicode="X" horiz-adv-x="1445" d="M-29 0l543 768l-491 696h475l176 -340q38 -73 49 -120q6 26 15 48.5t22 46t14 25.5l176 340h473l-489 -704l541 -760h-453l-248 434q-36 64 -51 121q-16 -64 -49 -121l-250 -434h-453z" />
<glyph unicode="Y" horiz-adv-x="1222" d="M-98 1464h460l197 -377q1 -2 9.5 -17.5t14 -27t13 -33.5t12.5 -46q5 23 13 45t13 32.5t14.5 27.5t10.5 19l195 377h459l-512 -796v-668h-385v668z" />
<glyph unicode="Z" horiz-adv-x="1386" d="M4 0l739 1147h-593v317h1232l-737 -1145h653v-319h-1294z" />
<glyph unicode="[" horiz-adv-x="743" d="M180 -461v1958h508v-242h-219v-1474h219v-242h-508z" />
<glyph unicode="\" horiz-adv-x="937" d="M0 1497h223l715 -1687h-221z" />
<glyph unicode="]" horiz-adv-x="743" d="M57 -219h217v1474h-217v242h506v-1958h-506v242z" />
<glyph unicode="^" horiz-adv-x="2048" d="M414 899l465 563h288l465 -563h-264l-344 342l-346 -342h-264z" />
<glyph unicode="_" horiz-adv-x="1024" d="M0 -244h1024v-239h-1024v239z" />
<glyph unicode="`" horiz-adv-x="1024" d="M223 1497h281l182 -350h-154z" />
<glyph unicode="a" horiz-adv-x="1351" d="M80 504q0 246 126 392t341 146q114 0 196 -48t142 -150v166h329v-1008h-327v162q-71 -106 -157 -154.5t-206 -48.5q-200 0 -322 147t-122 396zM432 506q0 -118 62.5 -186t171.5 -68t172 68t63 186q0 117 -63.5 186.5t-171.5 69.5t-171 -69.5t-63 -186.5z" />
<glyph unicode="b" horiz-adv-x="1351" d="M133 0v1493h340v-471q0 -109 -10 -180q67 112 145.5 156t206.5 44q200 0 326.5 -147.5t126.5 -390.5q0 -251 -127 -397t-338 -146q-207 0 -342 203v-164h-328zM449 504q0 -119 61 -186.5t170 -67.5q108 0 170.5 68t62.5 186q0 117 -63 185.5t-170 68.5t-169 -68.5 t-62 -185.5z" />
<glyph unicode="c" horiz-adv-x="944" d="M74 504q0 237 147.5 387.5t378.5 150.5q149 0 256 -63v-301q-101 88 -201 88q-104 0 -167.5 -69.5t-63.5 -190.5q0 -115 64.5 -184.5t175.5 -69.5q107 0 192 88v-309q-128 -70 -260 -70q-112 0 -208 38t-165.5 107t-109 171.5t-39.5 226.5z" />
<glyph unicode="d" horiz-adv-x="1351" d="M84 504q0 243 126.5 390.5t326.5 147.5q127 0 206.5 -44t145.5 -156q-12 85 -12 180v471h342v-1493h-328v164q-135 -203 -342 -203q-211 0 -338 146t-127 397zM438 504q0 -118 62.5 -186t169.5 -68q109 0 171 67.5t62 186.5q0 117 -63 185.5t-170 68.5t-169.5 -68.5 t-62.5 -185.5z" />
<glyph unicode="e" horiz-adv-x="1251" d="M74 494q0 152 70 276.5t199.5 198t293.5 73.5q248 0 394.5 -157.5t146.5 -433.5v-17h-768q1 -118 60 -181t167 -63q162 0 221 121l268 -108q-48 -115 -169.5 -178.5t-299.5 -63.5q-180 0 -313.5 70t-201.5 190t-68 273zM418 635h409q-9 87 -65 138.5t-137 51.5 q-177 0 -207 -190z" />
<glyph unicode="f" horiz-adv-x="718" d="M14 758v252h152v147q0 354 383 354q57 0 145 -18v-272q-49 18 -82 18q-52 0 -74 -31t-22 -96v-102h178v-252h-178v-758h-350v758h-152z" />
<glyph unicode="g" horiz-adv-x="1351" d="M80 512q0 242 126 386t341 144q115 0 196.5 -46.5t141.5 -147.5v162h329v-1008q0 -230 -140 -339t-431 -109l-92 4v231h119q46 0 80 7.5t56 26t35.5 40t20 58t8.5 70.5t2 87v92q-113 -188 -350 -188q-199 0 -320.5 143t-121.5 387zM428 508q0 -116 64 -183t174 -67 t172.5 67t62.5 183t-62.5 183t-172.5 67t-174 -67t-64 -183z" />
<glyph unicode="h" horiz-adv-x="1337" d="M131 0v1493h350v-487q0 -98 -12 -183q69 114 158.5 166.5t216.5 52.5q98 0 175.5 -31.5t123.5 -90.5q47 -59 60.5 -136.5t13.5 -205.5v-578h-357v541q0 120 -39 175.5t-127 55.5q-116 0 -164.5 -85.5t-48.5 -262.5v-424h-350z" />
<glyph unicode="i" d="M123 1325q0 80 57.5 138.5t138.5 58.5q82 0 139.5 -57t57.5 -140t-58.5 -141t-138.5 -58q-82 0 -139 59.5t-57 139.5zM141 0v1010h357v-1010h-357z" />
<glyph unicode="j" d="M123 1325q0 80 57.5 138.5t138.5 58.5q82 0 139.5 -57t57.5 -140t-58.5 -141t-138.5 -58q-82 0 -139 59.5t-57 139.5zM141 -410v1420h357v-1420h-357z" />
<glyph unicode="k" horiz-adv-x="1312" d="M133 0v1493h350v-924l367 441h442l-454 -486l495 -524h-469l-381 449v-449h-350z" />
<glyph unicode="l" d="M141 0v1493h357v-1493h-357z" />
<glyph unicode="m" horiz-adv-x="1941" d="M131 0v1010h350v-176q65 108 146.5 158t193.5 50q247 0 314 -190q121 190 344 190q183 0 274 -122q43 -59 55.5 -127.5t12.5 -174.5v-618h-353v551q0 126 -30 178.5t-115 52.5q-35 0 -62 -8.5t-46 -22.5t-32 -39.5t-20.5 -51t-11.5 -66t-5 -76.5t-1 -90v-428h-344v551 q0 124 -29.5 177.5t-114.5 53.5q-41 0 -71.5 -10t-50 -33.5t-31.5 -50.5t-18 -72t-7.5 -85t-1.5 -103v-428h-346z" />
<glyph unicode="n" horiz-adv-x="1337" d="M131 0v1010h326v-205q72 125 163.5 181t223.5 56q98 0 175.5 -31.5t123.5 -90.5q47 -59 60.5 -136.5t13.5 -205.5v-578h-357v541q0 120 -39 175.5t-127 55.5q-116 0 -164.5 -85.5t-48.5 -262.5v-424h-350z" />
<glyph unicode="o" horiz-adv-x="1275" d="M74 502q0 148 73.5 271.5t203 196t286.5 72.5q117 0 222.5 -42.5t180 -115t118.5 -172.5t44 -210t-44 -210t-118.5 -172.5t-180 -115.5t-222.5 -43q-158 0 -287.5 73t-202.5 197t-73 271zM426 502q0 -113 56.5 -177.5t154.5 -64.5t154.5 64.5t56.5 177.5t-56.5 178 t-154.5 65t-154.5 -65t-56.5 -178z" />
<glyph unicode="p" horiz-adv-x="1351" d="M133 -410v1420h328v-170q135 202 342 202q211 0 338 -144.5t127 -395.5q0 -244 -126.5 -392.5t-326.5 -148.5q-126 0 -205.5 45t-146.5 158q10 -71 10 -180v-394h-340zM449 502q0 -117 62 -185.5t169 -68.5t170 68.5t63 185.5q0 118 -62.5 186t-170.5 68 q-109 0 -170 -67.5t-61 -186.5z" />
<glyph unicode="q" horiz-adv-x="1351" d="M84 502q0 251 127 395.5t338 144.5q207 0 342 -202v170h328v-1420h-342v394q0 95 12 180q-67 -113 -146.5 -158t-205.5 -45q-200 0 -326.5 148.5t-126.5 392.5zM438 502q0 -117 62.5 -185.5t169.5 -68.5t170 68.5t63 185.5q0 119 -62 186.5t-171 67.5q-107 0 -169.5 -68 t-62.5 -186z" />
<glyph unicode="r" horiz-adv-x="915" d="M133 0v1010h336v-238q49 126 139 193t207 67q35 0 100 -6l-34 -324q-75 21 -123 21q-128 0 -199.5 -77.5t-71.5 -227.5v-418h-354z" />
<glyph unicode="s" horiz-adv-x="991" d="M37 84l74 272q77 -68 171.5 -104.5t188.5 -36.5q67 0 102 22t35 62q0 21 -7.5 36t-17.5 24t-33.5 18t-41 13t-54.5 13t-61 15q-157 41 -231 113.5t-74 187.5q0 142 108.5 232.5t301.5 90.5t403 -92l-74 -245q-141 98 -290 98q-123 0 -123 -74q0 -17 8 -30t20 -21.5 t35.5 -17t44 -14t58 -15.5t65.5 -19q148 -44 217.5 -115t69.5 -190q0 -154 -117.5 -250t-316.5 -96q-260 0 -461 123z" />
<glyph unicode="t" horiz-adv-x="722" d="M35 758v252h151v301h351v-301h151v-252h-151v-758h-351v758h-151z" />
<glyph unicode="u" horiz-adv-x="1292" d="M123 494v516h340v-539q0 -123 40 -181.5t138 -58.5t138 58.5t40 181.5v539h348v-516q0 -74 -2.5 -115.5t-13.5 -97t-36.5 -100.5t-67.5 -87q-133 -133 -402 -133q-264 0 -403 133q-77 74 -98 163t-21 237z" />
<glyph unicode="v" horiz-adv-x="1155" d="M-18 1010h380l173 -447q2 -6 11.5 -30.5t14 -38.5t11.5 -39t10 -49q5 31 12.5 57.5t21.5 61.5t15 38l172 447h371l-459 -1010h-279z" />
<glyph unicode="w" horiz-adv-x="1644" d="M-41 1010h367l151 -447q30 -87 43 -157q3 22 9.5 46t11.5 39l13 39l11 33l150 447h215l149 -447q34 -100 45 -157q8 49 43 157l152 447h369l-424 -1010h-252l-150 457q-18 53 -39 157q-18 -90 -41 -157l-149 -457h-252z" />
<glyph unicode="x" horiz-adv-x="1085" d="M-55 0l397 541l-340 469h389l94 -172q36 -65 50 -121q17 68 49 121l96 172h403l-346 -469l404 -541h-402l-151 254q-34 58 -49 121q-19 -71 -50 -121l-149 -254h-395z" />
<glyph unicode="y" horiz-adv-x="1089" d="M-47 1010h395l141 -365q38 -103 48 -160q16 80 47 160l143 365h381l-619 -1420h-395l266 564z" />
<glyph unicode="z" horiz-adv-x="1110" d="M0 0l518 750h-455v260h1006l-537 -736h492v-274h-1024z" />
<glyph unicode="{" horiz-adv-x="1024" d="M152 410v241q6 0 18 -1t18 -1q119 0 168.5 56t49.5 188v254q0 120 19.5 184t86.5 99q93 49 301 49q12 0 38.5 -1t41.5 -1v-242q-7 0 -21 1t-20 1q-102 0 -134 -37.5t-32 -144.5v-240q0 -135 -43.5 -197t-167.5 -88q125 -26 168 -86.5t43 -195.5v-242q0 -106 32 -143 t132 -37q7 0 21.5 1t21.5 1v-242q-15 0 -42 -1t-40 -1q-206 0 -299 49q-67 35 -86.5 98t-19.5 183v256q0 132 -49 187t-169 55q-5 0 -17.5 -1t-18.5 -1z" />
<glyph unicode="|" horiz-adv-x="1024" d="M393 -483v2048h240v-2048h-240z" />
<glyph unicode="}" horiz-adv-x="1024" d="M133 -172q9 0 23 -1t20 -1q101 0 132.5 37t31.5 143v242q0 134 43 195.5t168 86.5q-125 25 -168 87.5t-43 197.5v240q0 105 -31 143.5t-129 38.5q-7 0 -23 -1t-24 -1v242q15 0 41.5 1t38.5 1q206 0 301 -49q67 -35 87 -99t20 -184v-254q0 -133 49 -188.5t168 -55.5 q6 0 18 1t18 1v-241q-6 0 -18 1t-18 1q-119 0 -168 -55.5t-49 -186.5v-256q0 -120 -20 -184t-87 -99q-86 -47 -291 -47q-14 0 -44 1t-46 1v242z" />
<glyph unicode="~" horiz-adv-x="1705" d="M178 401v254q222 144 387 144q119 0 295 -58q12 -4 56.5 -19.5t63 -21t54 -15.5t65.5 -13.5t60 -3.5q163 0 371 151v-254q-199 -137 -377 -137q-90 0 -172 29q-5 2 -47 16.5t-50.5 17.5t-45 15t-49 15t-43.5 12t-48 11.5t-43.5 7t-48.5 6t-45 1.5q-88 0 -179.5 -39 t-203.5 -119z" />
<glyph unicode="&#xa1;" horiz-adv-x="702" d="M150 1329q0 85 58 144t142 59q85 0 144 -58.5t59 -144.5q0 -85 -59 -144t-144 -59t-142.5 59.5t-57.5 143.5zM166 -39v1045h371v-1045h-371z" />
<glyph unicode="&#xa2;" horiz-adv-x="1280" d="M195 713q0 217 122 361.5t334 176.5v170h115v-168q118 -12 211 -63v-303q-104 90 -201 90q-104 0 -167.5 -69.5t-63.5 -192.5q0 -117 64 -186.5t175 -69.5q108 0 193 88v-309q-101 -52 -211 -64v-203h-115v203q-224 40 -340 177t-116 362z" />
<glyph unicode="&#xa3;" horiz-adv-x="1280" d="M82 195q104 147 235 161q60 72 60 162q0 39 -17 105h-233v141h162q-51 72 -80 143.5t-29 165.5q0 81 33.5 153.5t95.5 129t159 90t216 33.5q235 0 364.5 -121.5t133.5 -349.5h-344q-1 93 -42.5 140.5t-117.5 47.5q-65 0 -105.5 -40.5t-40.5 -104.5q0 -34 15 -73.5 t47.5 -104.5t50.5 -109h334v-141h-315q-2 -96 -43.5 -157.5t-128.5 -96.5l4 -21q53 6 82 6q47 0 129.5 -27.5t128.5 -27.5q52 0 82.5 22t60.5 78l240 -190q-106 -248 -377 -248q-72 0 -153 25.5t-151 51t-114 25.5q-46 0 -83.5 -21.5t-78.5 -68.5z" />
<glyph unicode="&#xa4;" horiz-adv-x="1280" d="M0 537l27 122h131q-2 23 -2 66q0 6 4 68h-160l27 125h147q55 265 239 413t453 148q194 0 351 -105v-346q-143 143 -322 143q-123 0 -211 -66t-125 -187h498l-43 -125h-477q-7 -58 -7 -78q0 -27 2 -56h439l-45 -122h-375q29 -124 121.5 -195.5t222.5 -71.5q152 0 330 136 l-13 -351q-171 -94 -350 -94q-274 0 -457.5 153.5t-230.5 422.5h-174z" />
<glyph unicode="&#xa5;" horiz-adv-x="1335" d="M-31 1452h389l250 -414q29 -48 62 -145q27 93 59 143l252 416h383l-256 -395h217v-203h-352l-94 -149h446v-203h-483v-502h-346v502h-486v203h449l-99 149h-350v203h217z" />
<glyph unicode="&#xa6;" horiz-adv-x="1024" d="M393 -350v758h240v-758h-240zM393 674v758h240v-758h-240z" />
<glyph unicode="&#xa7;" horiz-adv-x="1218" d="M66 514q0 123 56.5 209t160.5 121q-78 37 -115 101t-37 163q0 175 133 283t361 108t352.5 -110.5t130.5 -313.5h-371v21q0 67 -37 103t-102 36q-63 0 -101 -37t-38 -98q0 -28 5.5 -48.5t21 -34.5t29.5 -22.5t43 -14.5t49.5 -8.5t62 -7t67.5 -8.5q213 -30 313.5 -128.5 t100.5 -290.5q0 -125 -55 -210t-160 -122q78 -38 114.5 -102t36.5 -162q0 -175 -132.5 -284.5t-360.5 -109.5q-231 0 -356 114.5t-127 322.5h370v-23q0 -72 36 -110.5t104 -38.5q63 0 101 37t38 98q0 25 -5.5 43.5t-14 31.5t-25 22.5t-31.5 15t-41.5 10.5t-46.5 7.5t-55 6.5 t-60 8q-213 30 -314 129.5t-101 292.5zM434 528q0 -87 50.5 -138.5t121.5 -51.5q76 0 128 53t52 129q0 80 -51 133.5t-123 53.5q-77 0 -127.5 -50.5t-50.5 -128.5z" />
<glyph unicode="&#xa8;" horiz-adv-x="1024" d="M172 1333q0 56 43.5 99t101.5 43q60 0 101 -41.5t41 -100.5q0 -63 -40 -104t-102 -41q-60 0 -102.5 42.5t-42.5 102.5zM563 1333q0 56 43 99t101 43q60 0 101.5 -41.5t41.5 -100.5q0 -63 -40.5 -104t-102.5 -41q-60 0 -102 42.5t-42 102.5z" />
<glyph unicode="&#xa9;" horiz-adv-x="1705" d="M106 737q0 148 57.5 285t164.5 246q214 217 524 217q313 0 532 -219q215 -215 215 -529t-213 -524q-110 -108 -248 -165.5t-286 -57.5t-283.5 57t-242.5 164t-163.5 242t-56.5 284zM242 737q0 -120 47 -231t135 -199q180 -180 430 -180q121 0 233.5 46.5t202.5 135.5 q174 171 174 428q0 256 -176 432q-181 181 -434 181q-254 0 -430 -179q-88 -90 -135 -201.5t-47 -232.5zM446 731q0 208 111.5 329.5t298.5 121.5q158 0 257.5 -80t107.5 -211h-213q-6 67 -47 104t-109 37q-81 0 -128.5 -76.5t-47.5 -216.5t47.5 -212t138.5 -72q66 0 106 40 t46 115h215q-6 -143 -107.5 -230t-263.5 -87q-190 0 -301 117.5t-111 320.5z" />
<glyph unicode="&#xaa;" horiz-adv-x="1013" d="M59 1110q0 172 95 274.5t256 102.5q169 0 254 -139v116h247v-704h-245v112q-54 -74 -118.5 -107.5t-154.5 -33.5q-150 0 -242 103t-92 276zM324 1112q0 -83 47 -130.5t129 -47.5t129 47.5t47 130.5q0 82 -47 130t-129 48t-129 -48t-47 -130z" />
<glyph unicode="&#xab;" horiz-adv-x="1114" d="M45 502l358 489l193 -133l-264 -356l264 -348l-193 -140zM518 502l361 489l190 -133l-262 -356l262 -348l-190 -140z" />
<glyph unicode="&#xac;" horiz-adv-x="1705" d="M254 639v227h1198v-501h-229v274h-969z" />
<glyph unicode="&#xad;" horiz-adv-x="933" d="M127 340v326h680v-326h-680z" />
<glyph unicode="&#xae;" horiz-adv-x="1705" d="M106 737q0 150 59 289.5t169 247.5q214 211 518 211q156 0 294 -57.5t245 -167.5q102 -103 155 -238t53 -285q0 -155 -57 -291t-164 -239q-110 -106 -245.5 -161.5t-280.5 -55.5q-151 0 -287 58.5t-243 168.5q-105 108 -160.5 241t-55.5 279zM244 737q0 -247 174 -424 q88 -91 199.5 -138.5t234.5 -47.5q121 0 232 45t200 131q180 174 180 434q0 253 -172 428q-182 185 -438 185q-251 0 -426 -172q-90 -90 -137 -203.5t-47 -237.5zM537 344v819h329q176 0 265.5 -60.5t89.5 -176.5q0 -80 -45.5 -138t-128.5 -83l182 -361h-248l-154 326h-65 v-326h-225zM762 803h80q147 0 147 106q0 59 -38.5 86t-121.5 27h-67v-219z" />
<glyph unicode="&#xaf;" horiz-adv-x="1024" d="M205 1247v168h614v-168h-614z" />
<glyph unicode="&#xb0;" horiz-adv-x="673" d="M27 1155q0 131 90.5 221t220.5 90q128 0 219.5 -90.5t91.5 -220.5q0 -128 -91.5 -219.5t-221.5 -91.5q-129 0 -219 90.5t-90 220.5zM172 1157q0 -69 48 -117.5t118 -48.5q68 0 116 49t48 117t-47.5 116t-116.5 48q-68 0 -117 -48t-49 -116z" />
<glyph unicode="&#xb1;" horiz-adv-x="1705" d="M254 -18v231h1198v-231h-1198zM254 690v232h481v319h238v-319h479v-232h-479v-319h-238v319h-481z" />
<glyph unicode="&#xb2;" horiz-adv-x="845" d="M27 575l432 467q78 84 78 142q0 46 -32 75t-85 29q-60 0 -93.5 -36t-33.5 -103v-12h-234v6q0 149 97 235t262 86t260.5 -77.5t95.5 -200.5q0 -66 -32 -124.5t-99 -125.5l-176 -174h297v-187h-737z" />
<glyph unicode="&#xb3;" horiz-adv-x="845" d="M55 854v12h246v-14q0 -117 117 -117q125 0 125 111q0 62 -34.5 90.5t-109.5 28.5q-18 0 -28 -2v141h12q67 0 103 26t36 76q0 41 -30.5 66.5t-75.5 25.5q-51 0 -80 -25t-29 -69h-233q3 122 95.5 190t258.5 68q150 0 233.5 -61t83.5 -164q0 -66 -40 -113t-113 -67 q90 -13 140 -71t50 -146q0 -127 -100 -207t-260 -80q-169 0 -268 81.5t-99 219.5z" />
<glyph unicode="&#xb4;" horiz-adv-x="1024" d="M338 1147l182 350h281l-309 -350h-154z" />
<glyph unicode="&#xb5;" horiz-adv-x="1314" d="M-45 -428l238 1518h358l-80 -529q-12 -82 -12 -143q0 -170 143 -170q89 0 139 70t74 219l88 553h357l-175 -1090h-321l18 125q-40 -74 -89.5 -107.5t-119.5 -33.5q-123 0 -184 120l-82 -532h-352z" />
<glyph unicode="&#xb6;" horiz-adv-x="1024" d="M29 1130q0 156 105 252.5t284 96.5h579v-123h-106v-1356h-174v1356h-152v-1356h-174v784q-166 6 -264 101.5t-98 244.5z" />
<glyph unicode="&#xb7;" d="M119 721q0 84 57.5 142.5t142.5 58.5t144 -58t59 -143q0 -86 -59 -144.5t-144 -58.5q-84 0 -142 59t-58 144z" />
<glyph unicode="&#xb8;" horiz-adv-x="1024" d="M272 -301q161 -45 271 -45q86 0 86 72q0 63 -119 63q-35 0 -55 -2v213h114v-84h19q112 0 170.5 -49.5t58.5 -142.5q0 -98 -65.5 -153.5t-188.5 -55.5q-131 0 -291 45v139z" />
<glyph unicode="&#xb9;" horiz-adv-x="845" d="M117 1247l112 199h334v-871h-239v672h-207z" />
<glyph unicode="&#xba;" horiz-adv-x="956" d="M55 1108q0 159 121.5 269t300.5 110t301.5 -110t122.5 -269q0 -158 -122.5 -267.5t-301.5 -109.5t-300.5 110t-121.5 267zM319 1108q0 -78 42.5 -123t115.5 -45q74 0 117 45t43 123q0 79 -43 125.5t-117 46.5q-73 0 -115.5 -46t-42.5 -126z" />
<glyph unicode="&#xbb;" horiz-adv-x="1114" d="M45 154l262 348l-262 356l191 133l358 -489l-358 -488zM518 154l262 348l-262 356l191 133l360 -489l-360 -488z" />
<glyph unicode="&#xbc;" horiz-adv-x="1955" d="M113 1260l108 184h318v-811h-230v627h-196zM465 -39l835 1518h189l-840 -1518h-184zM1184 184v162l344 469h284v-469h103v-162h-103v-184h-208v184h-420zM1378 346h226v238q0 61 6 92q-28 -54 -64 -101z" />
<glyph unicode="&#xbd;" horiz-adv-x="1955" d="M113 1260l108 184h318v-811h-230v627h-196zM465 -39l835 1518h189l-840 -1518h-184zM1174 0l413 436q74 77 74 131q0 43 -30.5 71t-80.5 28q-59 0 -91 -34t-32 -97v-11h-221v6q0 138 92.5 218.5t249.5 80.5t247.5 -72.5t90.5 -187.5q0 -62 -30.5 -115.5t-94.5 -115.5 l-166 -164h283v-174h-704z" />
<glyph unicode="&#xbe;" horiz-adv-x="1955" d="M53 893v12h234v-14q0 -109 112 -109q57 0 88 27t31 76q0 58 -33 84t-104 26q-17 0 -27 -2v133h13q63 0 97 25.5t34 71.5q0 37 -29.5 60.5t-73.5 23.5q-46 0 -73 -23t-27 -65h-223q3 115 90 178t246 63q144 0 223.5 -57t79.5 -154q0 -62 -38 -105.5t-108 -62.5 q87 -12 135 -65t48 -137q0 -119 -96.5 -194t-248.5 -75q-161 0 -255.5 77t-94.5 206zM465 -39l835 1518h189l-840 -1518h-184zM1184 184v162l344 469h284v-469h103v-162h-103v-184h-208v184h-420zM1378 346h226v238q0 61 6 92q-28 -54 -64 -101z" />
<glyph unicode="&#xbf;" horiz-adv-x="1239" d="M123 403q0 166 89.5 272t233.5 109v213h345v-413h-107q-113 0 -172 -47t-59 -134q0 -68 46 -114.5t111 -46.5q69 0 110 38t44 109h342v-8q0 -192 -139.5 -309t-372.5 -117q-212 0 -341.5 124.5t-129.5 323.5zM430 1329q0 86 58 144.5t143 58.5t144 -59t59 -144 q0 -84 -58.5 -143.5t-144.5 -59.5q-85 0 -143 59t-58 144z" />
<glyph unicode="&#xc0;" horiz-adv-x="1478" d="M-16 0l505 1464h500l506 -1464h-397l-74 262h-567l-76 -262h-397zM451 1970h280l182 -350h-153zM543 547h397l-149 483q-24 91 -50 197q-7 -30 -51 -197z" />
<glyph unicode="&#xc1;" horiz-adv-x="1478" d="M-16 0l505 1464h500l506 -1464h-397l-74 262h-567l-76 -262h-397zM543 547h397l-149 483q-24 91 -50 197q-7 -30 -51 -197zM565 1620l183 350h280l-309 -350h-154z" />
<glyph unicode="&#xc2;" horiz-adv-x="1478" d="M-16 0l505 1464h500l506 -1464h-397l-74 262h-567l-76 -262h-397zM418 1620l182 350h277l182 -350h-154l-166 180l-168 -180h-153zM543 547h397l-149 483q-24 91 -50 197q-7 -30 -51 -197z" />
<glyph unicode="&#xc3;" horiz-adv-x="1478" d="M-16 0l505 1464h500l506 -1464h-397l-74 262h-567l-76 -262h-397zM408 1665q28 125 80 185.5t135 60.5q27 0 90 -17l94 -26q24 -8 57 -8q67 0 88 86h119q-31 -131 -82.5 -192.5t-136.5 -61.5q-42 0 -76 10l-92 27q-54 14 -68 14q-64 0 -90 -78h-118zM543 547h397 l-149 483q-24 91 -50 197q-7 -30 -51 -197z" />
<glyph unicode="&#xc4;" horiz-adv-x="1478" d="M-16 0l505 1464h500l506 -1464h-397l-74 262h-567l-76 -262h-397zM399 1806q0 56 44 99t102 43q60 0 100.5 -41.5t40.5 -100.5q0 -63 -40 -104t-101 -41q-60 0 -103 42.5t-43 102.5zM543 547h397l-149 483q-24 91 -50 197q-7 -30 -51 -197zM791 1806q0 56 42.5 99 t100.5 43q60 0 101.5 -41.5t41.5 -100.5q0 -63 -40.5 -104t-102.5 -41q-60 0 -101.5 42.5t-41.5 102.5z" />
<glyph unicode="&#xc5;" horiz-adv-x="1478" d="M-16 0l516 1464l159 -4v4q-81 20 -131.5 89t-50.5 157q0 109 76 185.5t186 76.5t187.5 -77t77.5 -185q0 -86 -47.5 -152t-129.5 -94v-4l154 4l514 -1464h-397l-74 262h-567l-76 -262h-397zM543 547h397l-149 483q-24 91 -50 197q-7 -30 -51 -197zM629 1708 q0 -44 32.5 -76.5t77.5 -32.5q46 0 79.5 32.5t33.5 76.5q0 46 -33.5 79.5t-79.5 33.5q-44 0 -77 -33.5t-33 -79.5z" />
<glyph unicode="&#xc6;" horiz-adv-x="1763" d="M-33 0l506 1464h875l98 -321h-473l84 -254h467l96 -314h-461l82 -247h455l98 -328h-831l-76 262h-451l-74 -262h-395zM514 547h289l-94 321q-17 55 -50 197q-17 -77 -51 -197z" />
<glyph unicode="&#xc7;" horiz-adv-x="1286" d="M94 731q0 218 95 393.5t265.5 275t383.5 99.5q187 0 379 -92v-436q-81 90 -161.5 133t-176.5 43q-172 0 -278.5 -118.5t-106.5 -305.5q0 -173 107 -290.5t278 -117.5q95 0 176 43t162 134v-437q-192 -92 -379 -92q-213 0 -383.5 99.5t-265.5 275t-95 393.5zM553 -301 q161 -45 270 -45q86 0 86 72q0 33 -28.5 48t-89.5 15q-36 0 -56 -2v213h115v-84h18q112 0 171 -49.5t59 -142.5q0 -98 -65.5 -153.5t-188.5 -55.5q-131 0 -291 45v139z" />
<glyph unicode="&#xc8;" horiz-adv-x="1161" d="M156 0v1464h897v-321h-508v-254h479v-314h-479v-247h508v-328h-897zM326 1970h280l182 -350h-153z" />
<glyph unicode="&#xc9;" horiz-adv-x="1161" d="M156 0v1464h897v-321h-508v-254h479v-314h-479v-247h508v-328h-897zM440 1620l183 350h280l-309 -350h-154z" />
<glyph unicode="&#xca;" horiz-adv-x="1161" d="M156 0v1464h897v-321h-508v-254h479v-314h-479v-247h508v-328h-897zM293 1620l182 350h277l182 -350h-154l-166 180l-168 -180h-153z" />
<glyph unicode="&#xcb;" horiz-adv-x="1161" d="M156 0v1464h897v-321h-508v-254h479v-314h-479v-247h508v-328h-897zM274 1806q0 56 44 99t102 43q60 0 100.5 -41.5t40.5 -100.5q0 -63 -40 -104t-101 -41q-60 0 -103 42.5t-43 102.5zM666 1806q0 56 42.5 99t100.5 43q60 0 101.5 -41.5t41.5 -100.5q0 -63 -40.5 -104 t-102.5 -41q-60 0 -101.5 42.5t-41.5 102.5z" />
<glyph unicode="&#xcc;" horiz-adv-x="735" d="M80 1970h280l183 -350h-154zM166 0v1464h403v-1464h-403z" />
<glyph unicode="&#xcd;" horiz-adv-x="735" d="M166 0v1464h403v-1464h-403zM195 1620l182 350h280l-309 -350h-153z" />
<glyph unicode="&#xce;" horiz-adv-x="735" d="M47 1620l182 350h277l182 -350h-153l-166 180l-168 -180h-154zM166 0v1464h403v-1464h-403z" />
<glyph unicode="&#xcf;" horiz-adv-x="735" d="M29 1806q0 56 43.5 99t101.5 43q60 0 100.5 -41.5t40.5 -100.5q0 -63 -40 -104t-101 -41q-60 0 -102.5 42.5t-42.5 102.5zM166 0v1464h403v-1464h-403zM420 1806q0 56 42.5 99t100.5 43q60 0 102 -41.5t42 -100.5q0 -63 -41 -104t-103 -41q-60 0 -101.5 42.5t-41.5 102.5 z" />
<glyph unicode="&#xd0;" horiz-adv-x="1591" d="M0 614v258h178v592h350q101 0 159.5 -1.5t141.5 -8.5t140.5 -21.5t123 -41.5t121.5 -66q139 -97 211 -247.5t72 -346.5q0 -194 -72 -344.5t-211 -249.5q-53 -38 -113.5 -64t-115 -40t-128 -21.5t-130 -9.5t-143.5 -2h-406v614h-178zM571 328h70q232 0 341.5 95t109.5 308 q0 214 -110.5 310t-340.5 96h-70v-265h273v-258h-273v-286z" />
<glyph unicode="&#xd1;" horiz-adv-x="1744" d="M156 0v1464h385l553 -753q31 -40 133 -258q-23 189 -23 288v723h383v-1464h-383l-553 756q-33 43 -133 256q23 -189 23 -289v-723h-385zM541 1665q28 125 80 185.5t135 60.5q27 0 90 -17l94 -26q24 -8 57 -8q67 0 88 86h119q-31 -131 -82.5 -192.5t-136.5 -61.5 q-42 0 -76 10l-92 27q-54 14 -67 14q-65 0 -91 -78h-118z" />
<glyph unicode="&#xd2;" horiz-adv-x="1753" d="M94 729q0 157 59 295.5t171 247.5q110 107 254.5 166t298.5 59t299.5 -59t255.5 -166q112 -108 169.5 -247t57.5 -296t-58.5 -296.5t-168.5 -246.5q-112 -108 -256.5 -166.5t-298.5 -58.5q-134 0 -263 45.5t-235 130.5q-138 110 -211.5 262.5t-73.5 329.5zM494 729 q0 -185 105.5 -307.5t277.5 -122.5q168 0 275.5 123.5t107.5 306.5q0 181 -109 305.5t-274 124.5q-167 0 -275 -124t-108 -306zM588 1970h280l183 -350h-154z" />
<glyph unicode="&#xd3;" horiz-adv-x="1753" d="M94 729q0 157 59 295.5t171 247.5q110 107 254.5 166t298.5 59t299.5 -59t255.5 -166q112 -108 169.5 -247t57.5 -296t-58.5 -296.5t-168.5 -246.5q-112 -108 -256.5 -166.5t-298.5 -58.5q-134 0 -263 45.5t-235 130.5q-138 110 -211.5 262.5t-73.5 329.5zM494 729 q0 -185 105.5 -307.5t277.5 -122.5q168 0 275.5 123.5t107.5 306.5q0 181 -109 305.5t-274 124.5q-167 0 -275 -124t-108 -306zM702 1620l183 350h280l-309 -350h-154z" />
<glyph unicode="&#xd4;" horiz-adv-x="1753" d="M94 729q0 157 59 295.5t171 247.5q110 107 254.5 166t298.5 59t299.5 -59t255.5 -166q112 -108 169.5 -247t57.5 -296t-58.5 -296.5t-168.5 -246.5q-112 -108 -256.5 -166.5t-298.5 -58.5q-134 0 -263 45.5t-235 130.5q-138 110 -211.5 262.5t-73.5 329.5zM494 729 q0 -185 105.5 -307.5t277.5 -122.5q168 0 275.5 123.5t107.5 306.5q0 181 -109 305.5t-274 124.5q-167 0 -275 -124t-108 -306zM555 1620l182 350h277l182 -350h-154l-165 180l-168 -180h-154z" />
<glyph unicode="&#xd5;" horiz-adv-x="1753" d="M94 729q0 157 59 295.5t171 247.5q110 107 254.5 166t298.5 59t299.5 -59t255.5 -166q112 -108 169.5 -247t57.5 -296t-58.5 -296.5t-168.5 -246.5q-112 -108 -256.5 -166.5t-298.5 -58.5q-134 0 -263 45.5t-235 130.5q-138 110 -211.5 262.5t-73.5 329.5zM494 729 q0 -185 105.5 -307.5t277.5 -122.5q168 0 275.5 123.5t107.5 306.5q0 181 -109 305.5t-274 124.5q-167 0 -275 -124t-108 -306zM545 1665q28 125 80 185.5t135 60.5q27 0 90 -17l94 -26q24 -8 57 -8q68 0 89 86h118q-31 -131 -82.5 -192.5t-136.5 -61.5q-42 0 -76 10l-92 27 q-54 14 -67 14q-64 0 -90 -78h-119z" />
<glyph unicode="&#xd6;" horiz-adv-x="1753" d="M94 729q0 157 59 295.5t171 247.5q110 107 254.5 166t298.5 59t299.5 -59t255.5 -166q112 -108 169.5 -247t57.5 -296t-58.5 -296.5t-168.5 -246.5q-112 -108 -256.5 -166.5t-298.5 -58.5q-134 0 -263 45.5t-235 130.5q-138 110 -211.5 262.5t-73.5 329.5zM494 729 q0 -185 105.5 -307.5t277.5 -122.5q168 0 275.5 123.5t107.5 306.5q0 181 -109 305.5t-274 124.5q-167 0 -275 -124t-108 -306zM537 1806q0 56 43.5 99t101.5 43q60 0 100.5 -41.5t40.5 -100.5q0 -63 -40 -104t-101 -41q-60 0 -102.5 42.5t-42.5 102.5zM928 1806 q0 56 42.5 99t100.5 43q60 0 101.5 -41.5t41.5 -100.5q0 -63 -40.5 -104t-102.5 -41q-60 0 -101.5 42.5t-41.5 102.5z" />
<glyph unicode="&#xd7;" horiz-adv-x="1705" d="M268 170l441 440l-441 443l162 161l440 -440l441 440l162 -161l-441 -443l441 -440l-162 -162l-441 441l-440 -441z" />
<glyph unicode="&#xd8;" horiz-adv-x="1753" d="M94 731q0 158 61 299.5t166 244.5t253 163.5t315 60.5q263 0 469 -162l155 162l97 -94l-152 -158q96 -98 148.5 -233t52.5 -283q0 -156 -58.5 -295.5t-170.5 -247.5q-110 -107 -253.5 -165t-299.5 -58q-288 0 -496 170l-176 -182l-92 94l170 176q-189 226 -189 508z M479 731q0 -127 70 -233l549 569q-103 72 -221 72q-165 0 -281.5 -119t-116.5 -289zM643 403q96 -77 234 -77q166 0 282.5 119t116.5 292q0 145 -80 238z" />
<glyph unicode="&#xd9;" horiz-adv-x="1597" d="M147 674v790h398v-794q0 -204 52 -288.5t202 -84.5q41 0 73 6t57.5 16t44 29.5t32 38.5t22 52.5t13.5 62t8 76t3.5 85.5t0.5 99v702h397v-870q0 -333 -152 -483t-499 -150q-372 0 -525 178q-80 91 -103.5 212t-23.5 323zM510 1970h281l182 -350h-154z" />
<glyph unicode="&#xda;" horiz-adv-x="1597" d="M147 674v790h398v-794q0 -204 52 -288.5t202 -84.5q41 0 73 6t57.5 16t44 29.5t32 38.5t22 52.5t13.5 62t8 76t3.5 85.5t0.5 99v702h397v-870q0 -333 -152 -483t-499 -150q-372 0 -525 178q-80 91 -103.5 212t-23.5 323zM625 1620l182 350h280l-309 -350h-153z" />
<glyph unicode="&#xdb;" horiz-adv-x="1597" d="M147 674v790h398v-794q0 -204 52 -288.5t202 -84.5q41 0 73 6t57.5 16t44 29.5t32 38.5t22 52.5t13.5 62t8 76t3.5 85.5t0.5 99v702h397v-870q0 -333 -152 -483t-499 -150q-372 0 -525 178q-80 91 -103.5 212t-23.5 323zM477 1620l182 350h277l182 -350h-153l-166 180 l-168 -180h-154z" />
<glyph unicode="&#xdc;" horiz-adv-x="1597" d="M147 674v790h398v-794q0 -204 52 -288.5t202 -84.5q41 0 73 6t57.5 16t44 29.5t32 38.5t22 52.5t13.5 62t8 76t3.5 85.5t0.5 99v702h397v-870q0 -333 -152 -483t-499 -150q-372 0 -525 178q-80 91 -103.5 212t-23.5 323zM459 1806q0 56 43.5 99t101.5 43 q60 0 100.5 -41.5t40.5 -100.5q0 -63 -40 -104t-101 -41q-60 0 -102.5 42.5t-42.5 102.5zM850 1806q0 56 42.5 99t100.5 43q60 0 102 -41.5t42 -100.5q0 -63 -41 -104t-103 -41q-60 0 -101.5 42.5t-41.5 102.5z" />
<glyph unicode="&#xdd;" horiz-adv-x="1222" d="M-98 1464h460l197 -377q1 -2 9.5 -17.5t14 -27t13 -33.5t12.5 -46q5 23 13 45t13 32.5t14.5 27.5t10.5 19l195 377h459l-512 -796v-668h-385v668zM438 1620l183 350h280l-309 -350h-154z" />
<glyph unicode="&#xde;" horiz-adv-x="1298" d="M156 0v1464h374v-223h43q128 0 191 -2.5t144.5 -20.5t138.5 -55q97 -63 150.5 -172.5t53.5 -249.5q0 -295 -202 -415q-69 -41 -150 -53.5t-201 -12.5h-168v-260h-374zM530 582h76q136 0 197 35.5t61 136.5q0 100 -61 135t-193 35h-80v-342z" />
<glyph unicode="&#xdf;" horiz-adv-x="1351" d="M137 0v1028q0 140 20 229.5t83 159.5t174 111t250 41q251 0 389.5 -104t138.5 -287q0 -116 -63 -194t-185 -112q157 -15 246.5 -121.5t89.5 -279.5q0 -234 -141 -364t-404 -130q-21 0 -58 1.5t-54 1.5v266q33 -2 61 -2q118 0 180 65t62 187q0 121 -68 184t-199 63l-12 -1 q-12 -1 -24 -1v226h8q237 0 237 182q0 75 -47.5 118.5t-130.5 43.5q-41 0 -71.5 -8t-52 -21t-36 -38.5t-23.5 -51.5t-13 -69.5t-5.5 -83t-1.5 -101.5v-938h-350z" />
<glyph unicode="&#xe0;" horiz-adv-x="1351" d="M80 504q0 246 126 392t341 146q114 0 196 -48t142 -150v166h329v-1008h-327v162q-71 -106 -157 -154.5t-206 -48.5q-200 0 -322 147t-122 396zM387 1497h281l182 -350h-154zM432 506q0 -118 62.5 -186t171.5 -68t172 68t63 186q0 117 -63.5 186.5t-171.5 69.5t-171 -69.5 t-63 -186.5z" />
<glyph unicode="&#xe1;" horiz-adv-x="1351" d="M80 504q0 246 126 392t341 146q114 0 196 -48t142 -150v166h329v-1008h-327v162q-71 -106 -157 -154.5t-206 -48.5q-200 0 -322 147t-122 396zM432 506q0 -118 62.5 -186t171.5 -68t172 68t63 186q0 117 -63.5 186.5t-171.5 69.5t-171 -69.5t-63 -186.5zM502 1147 l182 350h281l-310 -350h-153z" />
<glyph unicode="&#xe2;" horiz-adv-x="1351" d="M80 504q0 246 126 392t341 146q114 0 196 -48t142 -150v166h329v-1008h-327v162q-71 -106 -157 -154.5t-206 -48.5q-200 0 -322 147t-122 396zM354 1147l183 350h276l182 -350h-153l-166 180l-168 -180h-154zM432 506q0 -118 62.5 -186t171.5 -68t172 68t63 186 q0 117 -63.5 186.5t-171.5 69.5t-171 -69.5t-63 -186.5z" />
<glyph unicode="&#xe3;" horiz-adv-x="1351" d="M80 504q0 246 126 392t341 146q114 0 196 -48t142 -150v166h329v-1008h-327v162q-71 -106 -157 -154.5t-206 -48.5q-200 0 -322 147t-122 396zM344 1192q28 125 80 185.5t135 60.5q27 0 90 -17l94 -26q27 -9 58 -9q67 0 88 87h119q-31 -131 -83 -192.5t-137 -61.5 q-41 0 -75 10l-92 26q-58 15 -68 15q-64 0 -90 -78h-119zM432 506q0 -118 62.5 -186t171.5 -68t172 68t63 186q0 117 -63.5 186.5t-171.5 69.5t-171 -69.5t-63 -186.5z" />
<glyph unicode="&#xe4;" horiz-adv-x="1351" d="M80 504q0 246 126 392t341 146q114 0 196 -48t142 -150v166h329v-1008h-327v162q-71 -106 -157 -154.5t-206 -48.5q-200 0 -322 147t-122 396zM336 1333q0 56 43.5 99t101.5 43q60 0 101 -41.5t41 -100.5q0 -63 -40 -104t-102 -41q-60 0 -102.5 42.5t-42.5 102.5z M432 506q0 -118 62.5 -186t171.5 -68t172 68t63 186q0 117 -63.5 186.5t-171.5 69.5t-171 -69.5t-63 -186.5zM727 1333q0 56 42.5 99t100.5 43q60 0 102 -41.5t42 -100.5q0 -63 -41 -104t-103 -41q-60 0 -101.5 42.5t-41.5 102.5z" />
<glyph unicode="&#xe5;" horiz-adv-x="1351" d="M80 504q0 246 126 392t341 146q114 0 196 -48t142 -150v166h329v-1008h-327v162q-71 -106 -157 -154.5t-206 -48.5q-200 0 -322 147t-122 396zM418 1370q0 110 78 188t188 78q109 0 186.5 -78t77.5 -188t-77 -188t-187 -78t-188 78t-78 188zM432 506q0 -118 62.5 -186 t171.5 -68t172 68t63 186q0 117 -63.5 186.5t-171.5 69.5t-171 -69.5t-63 -186.5zM571 1370q0 -46 33.5 -79.5t79.5 -33.5q47 0 79 33.5t32 79.5q0 47 -32 80t-79 33q-46 0 -79.5 -33.5t-33.5 -79.5z" />
<glyph unicode="&#xe6;" horiz-adv-x="1863" d="M66 303q0 157 103 250.5t269 93.5q169 0 289 -76q0 5 1 14.5t1 14.5q0 95 -63 140.5t-191 45.5q-199 0 -332 -75l-2 262q183 65 369 65q127 0 212 -33t144 -110q129 149 355 149q252 0 402.5 -157t150.5 -432v-21h-768q0 -118 59.5 -181t167.5 -63q165 0 221 119 l268 -106q-48 -116 -169.5 -179t-303.5 -63q-144 0 -241.5 38t-159.5 122q-119 -152 -377 -152q-195 0 -300 89.5t-105 244.5zM401 317q0 -67 38 -102t110 -35q84 0 130 35t46 94t-43 94t-119 35q-73 0 -117.5 -34.5t-44.5 -86.5zM1014 633h409q-9 87 -65 138.5t-137 51.5 q-177 0 -207 -190z" />
<glyph unicode="&#xe7;" horiz-adv-x="944" d="M74 504q0 237 147.5 387.5t378.5 150.5q149 0 256 -63v-301q-101 88 -201 88q-104 0 -167.5 -69.5t-63.5 -190.5q0 -115 64.5 -184.5t175.5 -69.5q107 0 192 88v-309q-128 -70 -260 -70q-112 0 -208 38t-165.5 107t-109 171.5t-39.5 226.5zM309 -301q161 -45 271 -45 q86 0 86 72q0 63 -119 63q-35 0 -55 -2v213h114v-84h19q112 0 170.5 -49.5t58.5 -142.5q0 -98 -65.5 -153.5t-188.5 -55.5q-131 0 -291 45v139z" />
<glyph unicode="&#xe8;" horiz-adv-x="1251" d="M74 494q0 152 70 276.5t199.5 198t293.5 73.5q248 0 394.5 -157.5t146.5 -433.5v-17h-768q1 -118 60 -181t167 -63q162 0 221 121l268 -108q-48 -115 -169.5 -178.5t-299.5 -63.5q-180 0 -313.5 70t-201.5 190t-68 273zM338 1497h280l183 -350h-154zM418 635h409 q-9 87 -65 138.5t-137 51.5q-177 0 -207 -190z" />
<glyph unicode="&#xe9;" horiz-adv-x="1251" d="M74 494q0 152 70 276.5t199.5 198t293.5 73.5q248 0 394.5 -157.5t146.5 -433.5v-17h-768q1 -118 60 -181t167 -63q162 0 221 121l268 -108q-48 -115 -169.5 -178.5t-299.5 -63.5q-180 0 -313.5 70t-201.5 190t-68 273zM418 635h409q-9 87 -65 138.5t-137 51.5 q-177 0 -207 -190zM453 1147l182 350h280l-309 -350h-153z" />
<glyph unicode="&#xea;" horiz-adv-x="1251" d="M74 494q0 152 70 276.5t199.5 198t293.5 73.5q248 0 394.5 -157.5t146.5 -433.5v-17h-768q1 -118 60 -181t167 -63q162 0 221 121l268 -108q-48 -115 -169.5 -178.5t-299.5 -63.5q-180 0 -313.5 70t-201.5 190t-68 273zM305 1147l182 350h277l182 -350h-153l-166 180 l-168 -180h-154zM418 635h409q-9 87 -65 138.5t-137 51.5q-177 0 -207 -190z" />
<glyph unicode="&#xeb;" horiz-adv-x="1251" d="M74 494q0 152 70 276.5t199.5 198t293.5 73.5q248 0 394.5 -157.5t146.5 -433.5v-17h-768q1 -118 60 -181t167 -63q162 0 221 121l268 -108q-48 -115 -169.5 -178.5t-299.5 -63.5q-180 0 -313.5 70t-201.5 190t-68 273zM287 1333q0 56 43.5 99t101.5 43q60 0 100.5 -41.5 t40.5 -100.5q0 -63 -40 -104t-101 -41q-60 0 -102.5 42.5t-42.5 102.5zM418 635h409q-9 87 -65 138.5t-137 51.5q-177 0 -207 -190zM678 1333q0 56 42.5 99t100.5 43q60 0 102 -41.5t42 -100.5q0 -63 -41 -104t-103 -41q-60 0 -101.5 42.5t-41.5 102.5z" />
<glyph unicode="&#xec;" d="M31 1497h280l183 -350h-154zM141 0v1010h357v-1010h-357z" />
<glyph unicode="&#xed;" d="M141 0v1010h357v-1010h-357zM145 1147l183 350h280l-309 -350h-154z" />
<glyph unicode="&#xee;" d="M-2 1147l182 350h277l182 -350h-154l-166 180l-167 -180h-154zM141 0v1010h357v-1010h-357z" />
<glyph unicode="&#xef;" d="M-20 1333q0 56 43.5 99t101.5 43q60 0 100.5 -41.5t40.5 -100.5q0 -63 -40 -104t-101 -41q-60 0 -102.5 42.5t-42.5 102.5zM141 0v1010h357v-1010h-357zM371 1333q0 56 42.5 99t100.5 43q60 0 101.5 -41.5t41.5 -100.5q0 -63 -40.5 -104t-102.5 -41q-60 0 -101.5 42.5 t-41.5 102.5z" />
<glyph unicode="&#xf0;" horiz-adv-x="1275" d="M74 465q0 137 69 252.5t188.5 182.5t260.5 67q116 0 223 -68q-86 142 -219 254l-297 -137l-70 127l242 106q-89 53 -162 90l119 209q139 -61 313 -178l314 146l71 -130l-262 -118q338 -320 338 -719q0 -277 -148.5 -432.5t-416.5 -155.5q-160 0 -290 69.5t-201.5 185 t-71.5 249.5zM426 473q0 -98 57 -156.5t154 -58.5t154 58.5t57 156.5q0 99 -56 158t-155 59t-155 -59t-56 -158z" />
<glyph unicode="&#xf1;" horiz-adv-x="1337" d="M131 0v1010h326v-205q72 125 163.5 181t223.5 56q98 0 175.5 -31.5t123.5 -90.5q47 -59 60.5 -136.5t13.5 -205.5v-578h-357v541q0 120 -39 175.5t-127 55.5q-116 0 -164.5 -85.5t-48.5 -262.5v-424h-350zM338 1192q28 125 80 185.5t135 60.5q27 0 90 -17l94 -26 q27 -9 58 -9q67 0 88 87h118q-31 -131 -82.5 -192.5t-136.5 -61.5q-41 0 -75 10l-93 26q-58 15 -67 15q-64 0 -90 -78h-119z" />
<glyph unicode="&#xf2;" horiz-adv-x="1275" d="M74 502q0 148 73.5 271.5t203 196t286.5 72.5q117 0 222.5 -42.5t180 -115t118.5 -172.5t44 -210t-44 -210t-118.5 -172.5t-180 -115.5t-222.5 -43q-158 0 -287.5 73t-202.5 197t-73 271zM350 1497h281l182 -350h-154zM426 502q0 -113 56.5 -177.5t154.5 -64.5 t154.5 64.5t56.5 177.5t-56.5 178t-154.5 65t-154.5 -65t-56.5 -178z" />
<glyph unicode="&#xf3;" horiz-adv-x="1275" d="M74 502q0 148 73.5 271.5t203 196t286.5 72.5q117 0 222.5 -42.5t180 -115t118.5 -172.5t44 -210t-44 -210t-118.5 -172.5t-180 -115.5t-222.5 -43q-158 0 -287.5 73t-202.5 197t-73 271zM426 502q0 -113 56.5 -177.5t154.5 -64.5t154.5 64.5t56.5 177.5t-56.5 178 t-154.5 65t-154.5 -65t-56.5 -178zM465 1147l182 350h281l-310 -350h-153z" />
<glyph unicode="&#xf4;" horiz-adv-x="1275" d="M74 502q0 148 73.5 271.5t203 196t286.5 72.5q117 0 222.5 -42.5t180 -115t118.5 -172.5t44 -210t-44 -210t-118.5 -172.5t-180 -115.5t-222.5 -43q-158 0 -287.5 73t-202.5 197t-73 271zM317 1147l183 350h276l182 -350h-153l-166 180l-168 -180h-154zM426 502 q0 -113 56.5 -177.5t154.5 -64.5t154.5 64.5t56.5 177.5t-56.5 178t-154.5 65t-154.5 -65t-56.5 -178z" />
<glyph unicode="&#xf5;" horiz-adv-x="1275" d="M74 502q0 148 73.5 271.5t203 196t286.5 72.5q117 0 222.5 -42.5t180 -115t118.5 -172.5t44 -210t-44 -210t-118.5 -172.5t-180 -115.5t-222.5 -43q-158 0 -287.5 73t-202.5 197t-73 271zM307 1192q28 125 80 185.5t135 60.5q27 0 90 -17l95 -26q27 -9 57 -9q67 0 88 87 h119q-31 -131 -82.5 -192.5t-136.5 -61.5q-42 0 -76 10l-92 26q-58 15 -68 15q-64 0 -90 -78h-119zM426 502q0 -113 56.5 -177.5t154.5 -64.5t154.5 64.5t56.5 177.5t-56.5 178t-154.5 65t-154.5 -65t-56.5 -178z" />
<glyph unicode="&#xf6;" horiz-adv-x="1275" d="M74 502q0 148 73.5 271.5t203 196t286.5 72.5q117 0 222.5 -42.5t180 -115t118.5 -172.5t44 -210t-44 -210t-118.5 -172.5t-180 -115.5t-222.5 -43q-158 0 -287.5 73t-202.5 197t-73 271zM299 1333q0 56 43.5 99t101.5 43q60 0 101 -41.5t41 -100.5q0 -63 -40 -104 t-102 -41q-60 0 -102.5 42.5t-42.5 102.5zM426 502q0 -113 56.5 -177.5t154.5 -64.5t154.5 64.5t56.5 177.5t-56.5 178t-154.5 65t-154.5 -65t-56.5 -178zM690 1333q0 56 43 99t101 43q60 0 101.5 -41.5t41.5 -100.5q0 -63 -40.5 -104t-102.5 -41q-60 0 -102 42.5t-42 102.5 z" />
<glyph unicode="&#xf7;" horiz-adv-x="1705" d="M254 496v231h1198v-231h-1198zM688 205q0 69 49 117.5t117 48.5t116 -48.5t48 -117.5q0 -67 -47.5 -115.5t-116.5 -48.5q-68 0 -117 48t-49 116zM688 1016q0 69 49 117.5t117 48.5q66 0 115 -49t49 -117q0 -67 -48 -115.5t-118 -48.5q-69 0 -116.5 48t-47.5 116z" />
<glyph unicode="&#xf8;" horiz-adv-x="1275" d="M74 504q0 147 74.5 271.5t204 196.5t284.5 72q197 0 344 -110l133 137l86 -76l-131 -139q64 -67 98.5 -158.5t34.5 -193.5q0 -147 -75.5 -271.5t-205.5 -197t-284 -72.5q-210 0 -336 107l-117 -117l-84 84l111 113q-137 168 -137 354zM416 500q0 -82 24 -127l336 344 q-55 43 -141 43q-98 0 -158.5 -70.5t-60.5 -189.5zM502 293q50 -47 139 -47q99 0 160 70t61 190q0 65 -22 129z" />
<glyph unicode="&#xf9;" horiz-adv-x="1292" d="M123 494v516h340v-539q0 -123 40 -181.5t138 -58.5t138 58.5t40 181.5v539h348v-516q0 -74 -2.5 -115.5t-13.5 -97t-36.5 -100.5t-67.5 -87q-133 -133 -402 -133q-264 0 -403 133q-77 74 -98 163t-21 237zM358 1497h281l182 -350h-153z" />
<glyph unicode="&#xfa;" horiz-adv-x="1292" d="M123 494v516h340v-539q0 -123 40 -181.5t138 -58.5t138 58.5t40 181.5v539h348v-516q0 -74 -2.5 -115.5t-13.5 -97t-36.5 -100.5t-67.5 -87q-133 -133 -402 -133q-264 0 -403 133q-77 74 -98 163t-21 237zM473 1147l182 350h281l-309 -350h-154z" />
<glyph unicode="&#xfb;" horiz-adv-x="1292" d="M123 494v516h340v-539q0 -123 40 -181.5t138 -58.5t138 58.5t40 181.5v539h348v-516q0 -74 -2.5 -115.5t-13.5 -97t-36.5 -100.5t-67.5 -87q-133 -133 -402 -133q-264 0 -403 133q-77 74 -98 163t-21 237zM326 1147l182 350h276l183 -350h-154l-166 180l-168 -180h-153z " />
<glyph unicode="&#xfc;" horiz-adv-x="1292" d="M123 494v516h340v-539q0 -123 40 -181.5t138 -58.5t138 58.5t40 181.5v539h348v-516q0 -74 -2.5 -115.5t-13.5 -97t-36.5 -100.5t-67.5 -87q-133 -133 -402 -133q-264 0 -403 133q-77 74 -98 163t-21 237zM307 1333q0 56 44 99t102 43q60 0 100.5 -41.5t40.5 -100.5 q0 -63 -40 -104t-101 -41q-60 0 -103 42.5t-43 102.5zM698 1333q0 56 43 99t101 43q60 0 101.5 -41.5t41.5 -100.5q0 -63 -40.5 -104t-102.5 -41q-60 0 -102 42.5t-42 102.5z" />
<glyph unicode="&#xfd;" horiz-adv-x="1089" d="M-47 1010h395l141 -365q38 -103 48 -160q16 80 47 160l143 365h381l-619 -1420h-395l266 564zM371 1147l182 350h281l-310 -350h-153z" />
<glyph unicode="&#xfe;" horiz-adv-x="1351" d="M133 -446v1996h340v-540q0 -107 -12 -170q71 104 153 153t189 49q210 0 337.5 -145t127.5 -395q0 -244 -126.5 -392.5t-326.5 -148.5q-127 0 -206.5 44.5t-145.5 158.5q10 -66 10 -180v-430h-340zM449 502q0 -117 62 -185.5t169 -68.5t170 68.5t63 185.5q0 118 -62.5 186 t-170.5 68q-109 0 -170 -67.5t-61 -186.5z" />
<glyph unicode="&#xff;" horiz-adv-x="1089" d="M-47 1010h395l141 -365q38 -103 48 -160q16 80 47 160l143 365h381l-619 -1420h-395l266 564zM205 1333q0 56 43.5 99t101.5 43q60 0 101 -41.5t41 -100.5q0 -63 -40 -104t-102 -41q-60 0 -102.5 42.5t-42.5 102.5zM596 1333q0 56 42.5 99t100.5 43q60 0 102 -41.5 t42 -100.5q0 -63 -41 -104t-103 -41q-60 0 -101.5 42.5t-41.5 102.5z" />
<glyph unicode="&#x152;" horiz-adv-x="2224" d="M94 731q0 162 54.5 304t152.5 245.5t240.5 163t310.5 59.5q288 0 444 -207v168h861v-321h-508v-254h479v-314h-479v-247h508v-328h-861v199q-91 -123 -206.5 -180.5t-274.5 -57.5q-294 0 -496 205q-225 228 -225 565zM481 731q0 -190 109.5 -316t286.5 -126 q175 0 285 122.5t110 319.5q0 200 -112 322.5t-283 122.5q-172 0 -284 -129t-112 -316z" />
<glyph unicode="&#x153;" horiz-adv-x="2009" d="M74 492q0 158 73.5 285t198.5 197t275 70q259 0 397 -161q124 164 375 164q249 0 396.5 -159t147.5 -437v-27l-766 -4q0 -102 63 -161.5t167 -59.5q162 0 219 123l268 -111q-48 -119 -170.5 -184.5t-304.5 -65.5q-144 0 -241.5 38t-159.5 122q-62 -86 -155 -123t-234 -37 q-238 0 -393.5 149t-155.5 382zM426 502q0 -123 59.5 -193.5t161.5 -70.5t160.5 70t58.5 194q0 123 -59 194.5t-160 71.5t-161 -71.5t-60 -194.5zM1178 625l409 4q-9 86 -65.5 138t-137.5 52q-176 0 -206 -194z" />
<glyph unicode="&#x178;" horiz-adv-x="1222" d="M-98 1464h460l197 -377q1 -2 9.5 -17.5t14 -27t13 -33.5t12.5 -46q5 23 13 45t13 32.5t14.5 27.5t10.5 19l195 377h459l-512 -796v-668h-385v668zM272 1806q0 56 44 99t102 43q60 0 100.5 -41.5t40.5 -100.5q0 -63 -40 -104t-101 -41q-60 0 -103 42.5t-43 102.5z M664 1806q0 56 42.5 99t100.5 43q60 0 101.5 -41.5t41.5 -100.5q0 -63 -40.5 -104t-102.5 -41q-60 0 -101.5 42.5t-41.5 102.5z" />
<glyph unicode="&#x2c6;" horiz-adv-x="1024" d="M190 1147l183 350h276l182 -350h-153l-166 180l-168 -180h-154z" />
<glyph unicode="&#x2dc;" horiz-adv-x="1024" d="M180 1192q28 125 80 185.5t135 60.5q27 0 90 -17l95 -26q27 -9 57 -9q67 0 88 87h119q-31 -131 -82.5 -192.5t-136.5 -61.5q-42 0 -76 10l-92 26q-58 15 -68 15q-64 0 -90 -78h-119z" />
<glyph unicode="&#x2000;" horiz-adv-x="986" />
<glyph unicode="&#x2001;" horiz-adv-x="1972" />
<glyph unicode="&#x2002;" horiz-adv-x="986" />
<glyph unicode="&#x2003;" horiz-adv-x="1972" />
<glyph unicode="&#x2004;" horiz-adv-x="657" />
<glyph unicode="&#x2005;" horiz-adv-x="493" />
<glyph unicode="&#x2006;" horiz-adv-x="328" />
<glyph unicode="&#x2007;" horiz-adv-x="328" />
<glyph unicode="&#x2008;" horiz-adv-x="246" />
<glyph unicode="&#x2009;" horiz-adv-x="394" />
<glyph unicode="&#x200a;" horiz-adv-x="109" />
<glyph unicode="&#x2010;" horiz-adv-x="933" d="M127 340v326h680v-326h-680z" />
<glyph unicode="&#x2011;" horiz-adv-x="933" d="M127 340v326h680v-326h-680z" />
<glyph unicode="&#x2012;" horiz-adv-x="933" d="M127 340v326h680v-326h-680z" />
<glyph unicode="&#x2013;" horiz-adv-x="1024" d="M0 367v272h1024v-272h-1024z" />
<glyph unicode="&#x2014;" horiz-adv-x="2048" d="M0 367v272h2048v-272h-2048z" />
<glyph unicode="&#x2018;" d="M27 838l309 626h276l-211 -626h-374z" />
<glyph unicode="&#x2019;" d="M27 838l213 626h372l-309 -626h-276z" />
<glyph unicode="&#x201a;" d="M27 -295l213 627h372l-309 -627h-276z" />
<glyph unicode="&#x201c;" horiz-adv-x="1157" d="M27 838l309 626h276l-211 -626h-374zM545 838l309 626h276l-212 -626h-373z" />
<glyph unicode="&#x201d;" horiz-adv-x="1157" d="M27 838l213 626h372l-309 -626h-276zM545 838l211 626h374l-309 -626h-276z" />
<glyph unicode="&#x201e;" horiz-adv-x="1157" d="M27 -295l213 627h372l-309 -627h-276zM545 -295l211 627h374l-309 -627h-276z" />
<glyph unicode="&#x2022;" horiz-adv-x="1208" d="M307 762q0 123 87 209t210 86q122 0 208.5 -86t86.5 -209q0 -122 -87 -209.5t-210 -87.5t-209 87t-86 210z" />
<glyph unicode="&#x2026;" horiz-adv-x="2048" d="M141 164q0 84 58 143.5t143 59.5t144 -59t59 -144q0 -86 -59 -144.5t-144 -58.5t-143 59t-58 144zM823 164q0 84 58 143.5t143 59.5t144 -59t59 -144q0 -86 -59 -144.5t-144 -58.5t-143 59t-58 144zM1507 164q0 84 58 143.5t143 59.5t144 -59t59 -144q0 -86 -59 -144.5 t-144 -58.5t-143 59t-58 144z" />
<glyph unicode="&#x202f;" horiz-adv-x="394" />
<glyph unicode="&#x2039;" d="M45 502l358 489l193 -139l-264 -350l264 -355l-193 -133z" />
<glyph unicode="&#x203a;" d="M45 147l262 355l-262 350l191 139l360 -489l-360 -488z" />
<glyph unicode="&#x205f;" horiz-adv-x="493" />
<glyph unicode="&#x20ac;" horiz-adv-x="1280" d="M0 537l27 122h131q-2 23 -2 66q0 6 4 68h-160l27 125h147q55 265 239 413t453 148q194 0 351 -105v-346q-143 143 -322 143q-123 0 -211 -66t-125 -187h498l-43 -125h-477q-7 -58 -7 -78q0 -27 2 -56h439l-45 -122h-375q29 -124 121.5 -195.5t222.5 -71.5q152 0 330 136 l-13 -351q-171 -94 -350 -94q-274 0 -457.5 153.5t-230.5 422.5h-174z" />
<glyph unicode="&#x2122;" horiz-adv-x="1705" d="M188 1337v127h502v-127h-164v-424h-174v424h-164zM797 913v551h223l113 -303l114 303h221v-551h-155v390l-146 -390h-65l-150 390v-390h-155z" />
<glyph unicode="&#xe000;" horiz-adv-x="1013" d="M0 0v1014h1014v-1014h-1014z" />
<glyph unicode="&#xfb01;" horiz-adv-x="1345" d="M14 758v252h152v207q0 354 383 354q52 0 145 -19v-272q-49 18 -82 18q-52 0 -74 -31t-22 -96v-161h178v-252h-178v-758h-350v758h-152zM829 1325q0 80 58 138.5t139 58.5q82 0 139.5 -57t57.5 -140t-58.5 -141t-138.5 -58q-82 0 -139.5 60t-57.5 139zM848 0v1010h356 v-1010h-356z" />
<glyph unicode="&#xfb02;" horiz-adv-x="1345" d="M14 758v252h152v207q0 354 383 354q52 0 145 -19v-272q-49 18 -82 18q-52 0 -74 -31t-22 -96v-161h178v-252h-178v-758h-350v758h-152zM848 0v1550h356v-1550h-356z" />
</font>
</defs>
</svg>
