<?xml version="1.0" standalone="no"?>
<!DOCTYPE svg PUBLIC "-//W3C//DTD SVG 1.1//EN" "http://www.w3.org/Graphics/SVG/1.1/DTD/svg11.dtd" >
<svg xmlns="http://www.w3.org/2000/svg">
<metadata></metadata>
<defs>
<font id="aig_futura_lightitalic" horiz-adv-x="1146" >
<font-face units-per-em="2048" ascent="1638" descent="-410" />
<missing-glyph horiz-adv-x="573" />
<glyph horiz-adv-x="2048" />
<glyph horiz-adv-x="2048" />
<glyph unicode="&#xd;" horiz-adv-x="2048" />
<glyph unicode=" "  horiz-adv-x="573" />
<glyph unicode="&#x09;" horiz-adv-x="573" />
<glyph unicode="&#xa0;" horiz-adv-x="573" />
<glyph unicode="!" horiz-adv-x="620" d="M121 63q0 43 29.5 73t72.5 30t73 -30t30 -73t-30 -72.5t-73 -29.5t-72.5 29.5t-29.5 72.5zM193 291l157 1206h121l-160 -1206h-118z" />
<glyph unicode="&#x22;" horiz-adv-x="550" d="M100 881v553h86v-553h-86zM365 881v553h86v-553h-86z" />
<glyph unicode="#" horiz-adv-x="1574" d="M129 494l31 90h336l100 282h-360l28 90h365l176 498h110l-174 -498h271l176 498h110l-174 -498h322l-31 -90h-323l-101 -282h348l-30 -90h-351l-174 -494h-112l176 494h-270l-179 -494h-110l174 494h-334zM610 584h269l100 282h-270z" />
<glyph unicode="$" d="M72 258l86 84q54 -116 124 -179.5t164 -80.5l82 618q-152 74 -221 167.5t-69 228.5q0 160 105.5 264.5t285.5 114.5l20 147h78l-20 -152q94 -10 167 -62t134 -148l-80 -72q-102 164 -236 170l-74 -565q162 -72 237 -170t75 -240q0 -185 -113 -299t-309 -123l-23 -172h-77 l24 178q-119 15 -205.5 85.5t-154.5 205.5zM358 1092q0 -89 43.5 -148.5t143.5 -114.5l69 533q-118 -9 -187 -83t-69 -187zM524 78q133 10 206 90t73 215q0 95 -49 162t-154 117z" />
<glyph unicode="%" horiz-adv-x="1466" d="M86 1014q0 205 93 334t227 129q253 0 253 -306q0 -201 -93 -330.5t-222 -129.5q-258 0 -258 303zM188 1001q0 -105 37.5 -159t108.5 -54q95 0 158 111.5t63 294.5q0 107 -33.5 157t-109.5 50q-92 0 -158 -112.5t-66 -287.5zM274 -39l824 1518h86l-824 -1518h-86zM809 272 q0 205 92.5 334t226.5 129q254 0 254 -307q0 -201 -92.5 -330t-222.5 -129q-258 0 -258 303zM913 260q0 -213 144 -213q93 0 157 111.5t64 294.5q0 107 -33.5 156.5t-107.5 49.5q-93 0 -158.5 -111.5t-65.5 -287.5z" />
<glyph unicode="&#x26;" horiz-adv-x="1232" d="M29 365q0 146 101.5 263t318.5 234q-119 193 -119 312q0 135 89.5 222t227.5 87q131 0 214 -76.5t83 -194.5q0 -110 -83.5 -200.5t-258.5 -182.5l322 -452q82 75 202 213l76 -84q-33 -36 -209 -225l201 -281h-139l-148 201q-129 -123 -245 -182.5t-236 -59.5 q-170 0 -283.5 118t-113.5 288zM147 360q0 -123 77.5 -203.5t199.5 -80.5q103 0 202 54t216 167l-336 473q-186 -102 -272.5 -198t-86.5 -212zM444 1169q0 -103 103 -251q143 75 212.5 144.5t69.5 143.5q0 73 -52 123.5t-134 50.5q-89 0 -144 -58t-55 -153z" />
<glyph unicode="'" horiz-adv-x="284" d="M100 881v553h86v-553h-86z" />
<glyph unicode="(" horiz-adv-x="634" d="M160 352q0 319 101.5 619.5t297.5 556.5l76 -72q-182 -237 -277.5 -524t-95.5 -602q0 -331 152 -676l-92 -51q-162 366 -162 749z" />
<glyph unicode=")" horiz-adv-x="634" d="M-47 -328q182 237 277.5 525t95.5 604q0 331 -152 676l92 51q162 -366 162 -750q0 -319 -101.5 -619t-297.5 -556z" />
<glyph unicode="*" horiz-adv-x="854" d="M154 1040l245 95l-217 155l54 74l208 -174l27 274l86 -10l-39 -272l244 114l33 -79l-248 -101l217 -149l-55 -72l-209 166l-25 -266l-84 12l39 260l-244 -109z" />
<glyph unicode="+" horiz-adv-x="1705" d="M254 569v80h559v570h80v-570h559v-80h-559v-569h-80v569h-559z" />
<glyph unicode="," horiz-adv-x="573" d="M-59 -229l266 508l135 -80l-324 -478z" />
<glyph unicode="-" horiz-adv-x="616" d="M41 385l14 111h437l-15 -111h-436z" />
<glyph unicode="." horiz-adv-x="573" d="M98 84q0 43 30 72.5t73 29.5t72.5 -29.5t29.5 -72.5t-29.5 -72.5t-72.5 -29.5t-73 29.5t-30 72.5z" />
<glyph unicode="/" horiz-adv-x="886" d="M0 -190l782 1687h105l-783 -1687h-104z" />
<glyph unicode="0" d="M86 539q0 207 46 389t126 311q148 240 404 240q186 0 293.5 -151.5t107.5 -428.5q0 -205 -46.5 -386.5t-127.5 -311.5q-73 -118 -174.5 -180t-220.5 -62q-193 0 -300.5 150.5t-107.5 429.5zM213 512q0 -218 71 -329t208 -111q187 0 312.5 235.5t125.5 626.5 q0 432 -277 432q-86 0 -160 -47.5t-126 -138.5q-69 -120 -111.5 -297.5t-42.5 -370.5z" />
<glyph unicode="1" d="M346 1341l51 109h351l-191 -1450h-125l178 1341h-264z" />
<glyph unicode="2" d="M2 0l526 483q89 82 142.5 134.5t111 117.5t87.5 116.5t49.5 111t19.5 120.5q0 137 -84.5 212t-239.5 75q-146 0 -242 -96t-102 -256h-120q9 219 134 341t343 122q205 0 320.5 -104t115.5 -287q0 -69 -14.5 -131.5t-47.5 -122.5t-70.5 -111.5t-99 -114.5t-116 -113.5 t-138.5 -126.5q-25 -22 -38 -34l-246 -221h643l-14 -115h-920z" />
<glyph unicode="3" d="M59 369h119q12 -141 96 -219t222 -78q161 0 259.5 94t98.5 246q0 136 -94 208t-273 72h-22l16 115q18 -2 56 -2q186 0 286.5 81.5t100.5 227.5q0 116 -80.5 186t-216.5 70q-126 0 -209.5 -69.5t-95.5 -180.5h-132q23 161 145 260t294 99q188 0 303 -100t115 -259 q0 -143 -84 -242t-240 -139q124 -32 191 -117.5t67 -211.5q0 -197 -132 -323t-349 -126q-201 0 -316.5 107t-124.5 301z" />
<glyph unicode="4" d="M4 358l916 1106h24l-131 -995h156l-15 -111h-155l-49 -358h-121l49 358h-674zM219 469h471l103 705z" />
<glyph unicode="5" d="M37 178l84 96q69 -103 154.5 -152.5t195.5 -49.5q172 0 290 116.5t118 280.5q0 169 -98.5 267t-268.5 98q-173 0 -301 -101l-43 31l254 686h594l-15 -119h-495l-166 -432q96 41 190 41q220 0 350 -126t130 -333q0 -145 -69 -265t-189.5 -188.5t-266.5 -68.5 q-148 0 -255 52t-193 167z" />
<glyph unicode="6" d="M82 389q0 166 91 321.5t286 366.5l385 420l88 -84l-549 -602q121 59 238 59q173 0 278 -112t105 -303q0 -211 -141.5 -352.5t-356.5 -141.5q-193 0 -308.5 116.5t-115.5 311.5zM205 393q0 -144 85 -229.5t226 -85.5q160 0 262.5 105.5t102.5 271.5q0 151 -84 234t-238 83 q-151 0 -252.5 -110t-101.5 -269z" />
<glyph unicode="7" d="M170 10l739 1317h-702l18 123h893l-839 -1503z" />
<glyph unicode="8" d="M84 383q0 161 84.5 267t247.5 147q-101 56 -150 131t-49 178q0 161 116 267t290 106q182 0 285.5 -92t103.5 -252q0 -141 -74 -234.5t-205 -118.5q256 -76 256 -358q0 -200 -133 -331.5t-344 -131.5q-199 0 -313.5 114t-114.5 308zM205 371q0 -132 84.5 -213.5 t220.5 -81.5q159 0 258.5 99.5t99.5 258.5q0 132 -87 210.5t-230 78.5q-150 0 -248 -99t-98 -253zM338 1094q0 -114 70.5 -180t193.5 -66q131 0 212 72.5t81 191.5q0 122 -70.5 190t-195.5 68q-130 0 -210.5 -77t-80.5 -199z" />
<glyph unicode="9" d="M133 985q0 211 141.5 352.5t356.5 141.5q193 0 308.5 -116.5t115.5 -311.5q0 -114 -47.5 -229.5t-124.5 -219t-205 -242.5l-385 -417l-88 84l549 602q-123 -60 -238 -60q-173 0 -278 112.5t-105 303.5zM256 985q0 -151 84 -234t238 -83q152 0 254 108.5t102 267.5 q0 144 -86 231t-227 87q-160 0 -262.5 -105.5t-102.5 -271.5z" />
<glyph unicode=":" horiz-adv-x="620" d="M127 90q0 43 29.5 73t72.5 30t73 -30t30 -73t-30 -72.5t-73 -29.5t-72.5 29.5t-29.5 72.5zM211 760q0 43 29.5 72.5t72.5 29.5t73 -29.5t30 -72.5t-30 -73t-73 -30t-72.5 30t-29.5 73z" />
<glyph unicode=";" horiz-adv-x="620" d="M-33 -229l266 508l136 -80l-324 -478zM211 760q0 43 29.5 72.5t72.5 29.5t73 -29.5t30 -72.5t-30 -73t-73 -30t-72.5 30t-29.5 73z" />
<glyph unicode="&#x3c;" horiz-adv-x="1705" d="M264 580v61l1178 483v-90l-1045 -424l1045 -424v-88z" />
<glyph unicode="=" horiz-adv-x="1705" d="M254 389v80h1198v-80h-1198zM254 752v79h1198v-79h-1198z" />
<glyph unicode="&#x3e;" horiz-adv-x="1705" d="M264 98v88l1045 424l-1045 424v90l1178 -483v-61z" />
<glyph unicode="?" horiz-adv-x="1013" d="M170 578q0 199 229 286q99 37 145.5 56t109.5 50.5t89 58t46 66t20 87.5q0 95 -65.5 153t-174.5 58q-209 0 -274 -242l-115 33q41 155 144 236t260 81q155 0 251.5 -91.5t96.5 -242.5q0 -102 -70.5 -188.5t-199.5 -136.5q-22 -8 -62 -24q-56 -22 -82 -32t-66.5 -28 t-59 -30t-43 -30t-35 -35t-18 -39.5t-7.5 -48.5q0 -71 50.5 -115t135.5 -44q83 0 133.5 42.5t73.5 131.5l117 -27q-34 -128 -114 -190t-210 -62q-137 0 -221 74t-84 193zM309 63q0 43 30 73t73 30q42 0 71 -30t29 -73t-28.5 -72.5t-71.5 -29.5t-73 29.5t-30 72.5z" />
<glyph unicode="@" horiz-adv-x="2048" d="M121 522q0 329 198 572q143 175 344.5 265.5t450.5 90.5q162 0 306.5 -45t246.5 -123q128 -98 194 -226.5t66 -277.5q0 -169 -63 -308t-181 -232q-139 -111 -305 -111q-192 0 -192 145q0 11 4 39q-49 -89 -125 -136.5t-166 -47.5q-154 0 -233.5 83t-79.5 243 q0 151 62.5 276.5t168 196.5t230.5 71q194 0 256 -170l61 129h80l-137 -553q-21 -93 -21 -108q0 -43 30.5 -67.5t86.5 -24.5q98 0 203 76q100 73 161.5 205.5t61.5 283.5q0 271 -199 438.5t-526 167.5q-336 0 -569 -192q-310 -257 -310 -672q0 -325 220.5 -521t592.5 -196 q160 0 323 50t300 143l29 -45q-296 -220 -648 -220q-375 0 -620 185q-301 228 -301 616zM690 446q0 -116 57.5 -180.5t159.5 -64.5q111 0 196 72.5t116 193.5l63 254q-45 203 -233 203q-152 0 -255.5 -138.5t-103.5 -339.5z" />
<glyph unicode="A" horiz-adv-x="1175" d="M-147 0l843 1464h31l442 -1464h-137l-139 479h-631l-270 -479h-139zM326 586h536l-182 641z" />
<glyph unicode="B" horiz-adv-x="1103" d="M82 0l192 1464h230q140 0 219.5 -15t138.5 -69q107 -96 107 -258q0 -268 -242 -336q262 -78 262 -354q0 -103 -47.5 -196.5t-130.5 -151.5q-79 -56 -188 -70t-310 -14h-231zM221 115h182q104 0 168.5 7.5t120.5 33.5q76 36 120 112t44 176q0 79 -31 139.5t-88 94.5 q-36 21 -90 31.5t-98 12t-137 1.5h-111zM315 834h131q65 0 101 1.5t81 9t77 23.5q65 31 102 97.5t37 152.5q0 131 -101 197q-39 25 -87 32t-130 7h-143z" />
<glyph unicode="C" horiz-adv-x="1421" d="M106 676q0 178 63.5 333.5t180.5 268.5q230 219 578 219q290 0 487 -162l-35 -135q-171 186 -456 186q-288 0 -473 -188q-101 -103 -156 -239.5t-55 -286.5q0 -271 165 -433.5t447 -162.5q185 0 428 135l-35 -154q-236 -96 -426 -96q-212 0 -374.5 89.5t-250.5 252 t-88 373.5z" />
<glyph unicode="D" horiz-adv-x="1402" d="M82 0l192 1464h195q89 0 133.5 -1t117 -7.5t119.5 -19t104 -37.5t106 -62q119 -90 184 -233.5t65 -323.5q0 -159 -49.5 -297.5t-140.5 -242.5q-135 -150 -326 -205q-123 -35 -315 -35h-385zM221 109h92q99 0 150 1t127.5 7t124.5 18t103 35t100 57q116 88 180.5 232.5 t64.5 320.5q0 152 -51.5 271t-148.5 196q-85 68 -193 88.5t-283 20.5h-102z" />
<glyph unicode="E" horiz-adv-x="1042" d="M82 0l192 1464h721l-14 -112h-596l-63 -480h579l-14 -110h-580l-84 -647h611l-17 -115h-735z" />
<glyph unicode="F" horiz-adv-x="1013" d="M82 0l192 1464h721l-14 -112h-596l-63 -480h579l-14 -110h-580l-100 -762h-125z" />
<glyph unicode="G" horiz-adv-x="1669" d="M106 674q0 180 63.5 337t180.5 267q232 221 580 221q203 0 353.5 -72.5t268.5 -228.5l-88 -82q-202 273 -538 273q-137 0 -259 -50.5t-216 -144.5q-101 -101 -156 -237t-55 -285q0 -266 161 -431t424 -165q252 0 416 147.5t174 384.5h-493l14 109h620v-4 q0 -350 -197.5 -551t-535.5 -201q-322 0 -519.5 196.5t-197.5 516.5z" />
<glyph unicode="H" horiz-adv-x="1411" d="M82 0l192 1464h125l-80 -604h803l80 604h125l-192 -1464h-125l98 752h-803l-98 -752h-125z" />
<glyph unicode="I" horiz-adv-x="493" d="M86 0l195 1464h125l-193 -1464h-127z" />
<glyph unicode="J" horiz-adv-x="770" d="M-68 117l105 76q69 -109 182 -109q101 0 149 85q44 78 75 300q8 53 23 175l17 130l90 690h129l-114 -870q-3 -20 -10 -76.5t-9.5 -74.5t-9 -64.5t-10 -65t-10.5 -54.5t-13 -54.5t-14.5 -44t-18 -44.5t-20.5 -36q-79 -119 -264 -119q-96 0 -163 37.5t-114 118.5z" />
<glyph unicode="K" horiz-adv-x="1128" d="M82 0l192 1464h125l-92 -700l697 700h161l-716 -712l608 -752h-166l-588 735l-96 -735h-125z" />
<glyph unicode="L" horiz-adv-x="843" d="M82 0l192 1464h125l-178 -1349h565l-14 -115h-690z" />
<glyph unicode="M" horiz-adv-x="1705" d="M2 0l436 1464h23l342 -1222l655 1222h23l61 -1464h-123l-39 1106l-594 -1106h-36l-308 1108l-307 -1108h-133z" />
<glyph unicode="N" horiz-adv-x="1515" d="M82 0l192 1464h35l848 -1185l156 1185h121l-193 -1464h-35l-846 1184l-155 -1184h-123z" />
<glyph unicode="O" horiz-adv-x="1761" d="M106 674q0 180 63.5 337t180.5 267q110 106 260 162.5t318 56.5q332 0 529.5 -195t197.5 -518q0 -175 -64 -329.5t-184 -268.5q-113 -108 -266 -166.5t-324 -58.5q-210 0 -371.5 89.5t-250.5 251.5t-89 372zM240 672q0 -266 163 -431t431 -165q285 0 479 194 q100 100 154.5 234.5t54.5 283.5q0 266 -164 432t-434 166q-136 0 -258 -49.5t-215 -142.5q-102 -103 -156.5 -237.5t-54.5 -284.5z" />
<glyph unicode="P" horiz-adv-x="1034" d="M82 0l192 1464h209q63 0 94.5 -0.5t82 -4.5t81.5 -12.5t68 -24.5t68 -40q129 -101 129 -280q0 -214 -152 -330q-77 -57 -171 -72.5t-253 -15.5h-133l-90 -684h-125zM311 793h154q64 0 99 1.5t80 9.5t79 25q72 34 113 104.5t41 162.5q0 149 -109 213q-42 25 -94.5 33 t-132.5 8h-74h-82z" />
<glyph unicode="Q" horiz-adv-x="1761" d="M106 676q0 179 63 334t181 268q230 219 578 219q330 0 527.5 -193t197.5 -511q0 -219 -93 -398.5t-268 -296.5l211 -245h-147l-164 192q-200 -82 -367 -82q-325 0 -522 196.5t-197 516.5zM240 672q0 -269 164 -432.5t440 -163.5q127 0 266 59l-295 346h148l249 -291 q148 100 229 257.5t81 345.5q0 263 -164 428t-432 165q-283 0 -475 -192q-101 -101 -156 -237t-55 -285z" />
<glyph unicode="R" horiz-adv-x="1081" d="M82 0l192 1464h209q63 0 94.5 -0.5t82 -4.5t81.5 -12.5t68 -24.5t68 -40q129 -101 129 -280q0 -196 -124.5 -306.5t-349.5 -111.5l453 -684h-145l-447 684h-96l-90 -684h-125zM311 793h154q64 0 99 1.5t80 9.5t79 25q72 34 113 104.5t41 162.5q0 149 -109 213 q-42 25 -94.5 33t-132.5 8h-74h-82z" />
<glyph unicode="S" horiz-adv-x="1019" d="M4 264l86 84q64 -136 149 -202t201 -66q137 0 219 84t82 225q0 60 -14.5 104t-48.5 80t-74 62.5t-108 62.5q-71 38 -115.5 66t-88.5 65t-67.5 75.5t-38 90.5t-14.5 117q0 167 115 276t297 109q118 0 206 -52t160 -165l-84 -74q-109 180 -284 180q-127 0 -209 -78 t-82 -198q0 -47 12.5 -84.5t30.5 -64.5t56 -55.5t70 -47.5t91 -51q69 -37 113 -65t87 -65.5t66.5 -76t38 -91.5t14.5 -118q0 -190 -120 -309t-312 -119q-298 0 -434 301z" />
<glyph unicode="T" horiz-adv-x="995" d="M86 1348l16 116h930l-16 -116h-385l-176 -1348h-127l178 1348h-420z" />
<glyph unicode="U" horiz-adv-x="1384" d="M133 391q0 91 31 324l98 749h125l-119 -901q-10 -71 -10 -139q0 -167 90.5 -259.5t253.5 -92.5q236 0 356 166q12 17 23 36.5t19.5 35t16.5 41t13 39.5t11.5 45t9.5 43t8.5 49t7 47t7.5 53.5t7 52.5l103 784h125l-109 -823q-2 -17 -9.5 -75.5t-11 -78t-11.5 -67.5 t-16 -72t-20.5 -60.5t-29 -65.5t-37.5 -56q-75 -100 -196.5 -154.5t-274.5 -54.5q-219 0 -340 114t-121 320z" />
<glyph unicode="V" horiz-adv-x="1157" d="M61 1464h132l294 -1192l600 1192h134l-754 -1464h-31z" />
<glyph unicode="W" horiz-adv-x="1849" d="M76 1464h129l258 -1149l487 1149h29l262 -1151l496 1151h133l-639 -1464h-35l-260 1157l-492 -1157h-34z" />
<glyph unicode="X" horiz-adv-x="1052" d="M-86 0l539 756l-342 708h139l291 -620l430 620h147l-520 -735l369 -729h-142l-315 639l-438 -639h-158z" />
<glyph unicode="Y" horiz-adv-x="1013" d="M41 1464h137l330 -661l455 661h141l-541 -786l-90 -678h-127l90 684z" />
<glyph unicode="Z" horiz-adv-x="1138" d="M-43 0l969 1348h-729l16 116h940l-969 -1347h787l-15 -117h-999z" />
<glyph unicode="[" horiz-adv-x="634" d="M123 -369l246 1866h274l-12 -102h-170l-217 -1659h168l-15 -105h-274z" />
<glyph unicode="\" horiz-adv-x="886" d="M162 1497h104l459 -1687h-104z" />
<glyph unicode="]" horiz-adv-x="634" d="M-49 -369l14 105h168l219 1659h-170l15 102h274l-246 -1866h-274z" />
<glyph unicode="^" horiz-adv-x="2048" d="M424 901l539 557h118l541 -557h-125l-473 469l-475 -469h-125z" />
<glyph unicode="_" horiz-adv-x="1024" d="M0 -403h1024v-80h-1024v80z" />
<glyph unicode="`" horiz-adv-x="1024" d="M299 1380h147l224 -350h-90z" />
<glyph unicode="a" horiz-adv-x="1095" d="M53 412q0 218 126.5 363t316.5 145q115 0 191 -51.5t120 -159.5l24 178h119l-116 -887h-119l18 133q-111 -172 -309 -172q-161 0 -266 125t-105 326zM178 406q0 -158 76.5 -250.5t202.5 -92.5q136 0 228.5 116.5t92.5 299.5q0 154 -76 247t-198 93q-139 0 -232.5 -115.5 t-93.5 -297.5z" />
<glyph unicode="b" horiz-adv-x="1095" d="M66 0l196 1493h119l-96 -741q120 166 307 166q163 0 268 -124t105 -325q0 -218 -127 -363t-316 -145q-227 0 -313 213l-23 -174h-120zM240 403q0 -154 76 -247t198 -93q138 0 232 116.5t94 297.5q0 156 -78 249t-203 93q-136 0 -227.5 -116.5t-91.5 -299.5z" />
<glyph unicode="c" horiz-adv-x="909" d="M45 408q0 221 144.5 366.5t367.5 145.5q166 0 297 -91l-31 -112q-131 96 -272 96q-165 0 -272 -112.5t-107 -286.5q0 -154 91 -249t239 -95q129 0 264 102l-25 -145q-126 -66 -243 -66q-206 0 -329.5 123.5t-123.5 323.5z" />
<glyph unicode="d" horiz-adv-x="1095" d="M53 414q0 220 126.5 364t318.5 144q115 0 190 -52t119 -161l104 784h119l-194 -1493h-121l18 133q-114 -172 -307 -172q-161 0 -267 126t-106 327zM178 408q0 -158 77.5 -251.5t201.5 -93.5q136 0 228.5 117.5t92.5 300.5q0 154 -76 247t-198 93q-139 0 -232.5 -115.5 t-93.5 -297.5z" />
<glyph unicode="e" horiz-adv-x="1046" d="M47 387q0 237 134.5 385t346.5 148q187 0 290.5 -106t103.5 -298q0 -29 -7 -90h-743v-23q0 -161 81.5 -249t229.5 -88q181 0 293 167l82 -79q-73 -99 -165 -146t-212 -47q-198 0 -316 117.5t-118 308.5zM184 526h619q0 139 -68.5 215t-193.5 76q-138 0 -228.5 -74 t-128.5 -217z" />
<glyph unicode="f" horiz-adv-x="544" d="M45 782l14 105h160l47 350q21 155 69.5 220t162.5 65q78 0 141 -29l-16 -107q-73 27 -107 27q-63 0 -90 -41.5t-41 -144.5l-45 -340h211l-14 -105h-211l-103 -782h-121l105 782h-162z" />
<glyph unicode="g" horiz-adv-x="1095" d="M16 420q0 214 126 357t317 143q115 0 191 -51t120 -158l25 176h118l-112 -862q-31 -238 -133 -337.5t-312 -99.5h-20l14 107h15q157 0 224.5 75t92.5 269l14 108q-111 -170 -307 -170q-162 0 -267.5 123t-105.5 320zM141 416q0 -155 76.5 -246.5t202.5 -91.5 q136 0 228.5 115t92.5 294q0 151 -76 242.5t-198 91.5q-139 0 -232.5 -113t-93.5 -292z" />
<glyph unicode="h" horiz-adv-x="1054" d="M66 0l196 1493h119l-102 -750q137 177 329 177q127 0 201 -68.5t74 -189.5q0 -34 -9 -99l-73 -563h-121l74 555q6 44 6 86q0 86 -52 130t-151 44q-264 0 -313 -373l-58 -442h-120z" />
<glyph unicode="i" horiz-adv-x="460" d="M76 0l117 887h120l-116 -887h-121zM201 1214q0 38 26 64.5t64 26.5t64 -26.5t26 -64.5t-26 -64t-64 -26t-64 26t-26 64z" />
<glyph unicode="j" horiz-adv-x="460" d="M16 -412l172 1299h121l-172 -1299h-121zM197 1214q0 38 26 64.5t64 26.5t64 -26.5t26 -64.5t-26 -64t-64 -26t-64 26t-26 64z" />
<glyph unicode="k" horiz-adv-x="923" d="M66 0l196 1493h119l-129 -995l489 389h187l-531 -410l432 -477h-147l-434 471l-62 -471h-120z" />
<glyph unicode="l" horiz-adv-x="460" d="M76 0l196 1493h119l-196 -1493h-119z" />
<glyph unicode="m" horiz-adv-x="1583" d="M66 0l114 887h113l-23 -139q130 176 312 176q100 0 165 -49.5t87 -143.5q132 193 319 193q118 0 186 -68.5t68 -189.5q0 -39 -8 -99l-72 -567h-117l72 559q6 38 6 86q0 85 -48.5 129.5t-139.5 44.5q-122 0 -192 -92.5t-95 -280.5l-57 -446h-119l74 559q6 44 6 80 q0 88 -48.5 134t-140.5 46q-123 0 -192 -92t-94 -281l-58 -446h-118z" />
<glyph unicode="n" horiz-adv-x="1054" d="M66 0l116 887h117l-20 -144q137 177 329 177q127 0 201 -68.5t74 -189.5q0 -34 -9 -99l-73 -563h-121l74 555q6 44 6 86q0 86 -52 130t-151 44q-264 0 -313 -373l-58 -442h-120z" />
<glyph unicode="o" horiz-adv-x="1118" d="M45 406q0 221 143.5 367.5t360.5 146.5q200 0 325 -124t125 -317q0 -226 -141.5 -372t-359.5 -146q-205 0 -329 123t-124 322zM172 412q0 -152 91 -247t237 -95q158 0 264 114t106 285q0 150 -91.5 246t-235.5 96q-160 0 -265.5 -112.5t-105.5 -286.5z" />
<glyph unicode="p" horiz-adv-x="1095" d="M6 -412l172 1299h117l-19 -137q65 88 139.5 129t170.5 41q163 0 269 -125.5t106 -325.5q0 -144 -57.5 -261t-159 -183t-226.5 -66q-225 0 -313 213l-78 -584h-121zM236 403q0 -154 76 -248t198 -94q137 0 231.5 117t94.5 299q0 157 -78 249.5t-203 92.5 q-136 0 -227.5 -116.5t-91.5 -299.5z" />
<glyph unicode="q" horiz-adv-x="1095" d="M53 412q0 219 126 363.5t317 144.5q115 0 190 -51t121 -160l24 178h121l-172 -1299h-121l74 541q-117 -168 -307 -168q-162 0 -267.5 125.5t-105.5 325.5zM178 406q0 -158 77.5 -251.5t201.5 -93.5q136 0 228.5 117.5t92.5 300.5q0 154 -76 247t-198 93 q-139 0 -232.5 -115.5t-93.5 -297.5z" />
<glyph unicode="r" horiz-adv-x="626" d="M66 0l116 887h117l-23 -150q126 185 269 185q54 0 104 -19l-28 -121q-73 25 -97 25q-119 0 -188 -88t-92 -268l-58 -451h-120z" />
<glyph unicode="s" horiz-adv-x="806" d="M-8 135l78 76q118 -150 278 -150q89 0 145 47t56 115q0 36 -10.5 61.5t-37.5 45.5t-53.5 33t-78.5 34q-70 28 -112.5 50t-78.5 52t-51.5 67t-15.5 87q0 120 82 194.5t217 74.5q151 0 288 -131l-71 -80q-105 114 -230 114q-78 0 -126 -45t-48 -116q0 -21 4.5 -38t17 -31.5 t23 -24t35 -21.5t39.5 -18.5t49.5 -20t52.5 -21.5q118 -51 171 -108.5t53 -142.5q0 -124 -87.5 -200.5t-238.5 -76.5q-113 0 -198 42t-152 132z" />
<glyph unicode="t" horiz-adv-x="497" d="M37 782l12 105h150l47 364h119l-48 -364h181l-15 -105h-180l-102 -782h-119l102 782h-147z" />
<glyph unicode="u" horiz-adv-x="1052" d="M100 250q0 70 23 239l53 398h119l-49 -377q-25 -186 -25 -246q0 -90 59 -141t164 -51q72 0 122.5 23t84.5 74t54 120t34 172l58 426h118l-57 -436q-21 -151 -45 -235t-78 -144q-102 -111 -295 -111q-159 0 -249.5 78t-90.5 211z" />
<glyph unicode="v" horiz-adv-x="890" d="M2 887h127l215 -694l397 694h136l-533 -887h-51z" />
<glyph unicode="w" horiz-adv-x="1327" d="M8 887h129l191 -664l311 664h45l154 -662l372 662h133l-516 -887h-45l-153 655l-303 -655h-41z" />
<glyph unicode="x" horiz-adv-x="825" d="M-63 0l376 455l-270 432h135l215 -363l291 363h156l-387 -447l268 -440h-137l-209 365l-283 -365h-155z" />
<glyph unicode="y" horiz-adv-x="890" d="M-45 -412l289 482l-258 817h131l207 -701l403 701h135l-776 -1299h-131z" />
<glyph unicode="z" horiz-adv-x="815" d="M-59 0l643 782h-518l14 105h725l-637 -781h545l-15 -106h-757z" />
<glyph unicode="{" horiz-adv-x="1024" d="M176 485v90q18 -2 49 -2q140 0 197 65.5t57 221.5v240q0 88 8 147t28.5 106t57.5 72.5t93.5 38.5t138.5 13h43v-88h-37q-74 0 -118 -12.5t-69.5 -46t-33.5 -80t-8 -126.5v-241q0 -162 -39 -240.5t-156 -112.5q118 -35 156.5 -112t38.5 -240v-241q0 -79 8 -125.5t33 -79.5 t69 -45.5t117 -12.5h39v-88h-43q-103 0 -166 18.5t-99 65.5t-48.5 113.5t-12.5 177.5v240q0 157 -57 221.5t-201 64.5q-7 0 -22 -1t-23 -1z" />
<glyph unicode="|" horiz-adv-x="1024" d="M467 -483v2048h90v-2048h-90z" />
<glyph unicode="}" horiz-adv-x="1024" d="M176 -326h39q73 0 117 12.5t69 45.5t33 79.5t8 125.5v241q0 162 39 239.5t158 112.5q-119 34 -158 112t-39 241v241q0 80 -8 126.5t-33.5 80t-69.5 46t-118 12.5h-37v88h43q82 0 138.5 -13t93.5 -38.5t57.5 -72.5t28.5 -106t8 -147v-240q0 -157 57.5 -222t200.5 -65 q7 0 22 1t23 1v-90q-8 0 -23 1t-22 1q-144 0 -201 -64.5t-57 -221.5v-240q0 -111 -12.5 -177.5t-48.5 -113.5t-99 -65.5t-166 -18.5h-43v88z" />
<glyph unicode="~" horiz-adv-x="1705" d="M178 481v92q211 148 387 148q19 0 39.5 -2t36.5 -4t38.5 -7.5t34.5 -8.5t37 -11.5t33 -11.5t36 -13t34 -12q142 -52 203 -63q45 -8 86 -8q87 0 180 39.5t207 119.5v-92q-210 -147 -387 -147q-51 0 -109 12.5t-84 21.5t-96 35q-4 1 -40 14.5t-44 16t-38 12t-43.5 12.5 t-38 8.5t-44.5 7t-41 1.5q-87 0 -180 -40t-207 -120z" />
<glyph unicode="&#xa1;" horiz-adv-x="620" d="M141 -39l158 1208h119l-158 -1208h-119zM285 1395q0 43 29.5 72.5t72.5 29.5t72.5 -29.5t29.5 -72.5t-29.5 -73t-72.5 -30t-72.5 30t-29.5 73z" />
<glyph unicode="&#xa2;" d="M141 434q0 214 127.5 357t339.5 163l23 170h78l-23 -170q148 -9 266 -90l-30 -112q-127 92 -250 98l-99 -744q5 0 15.5 -1t15.5 -1q128 0 260 105l-24 -146q-127 -65 -258 -65h-23l-27 -203h-75l26 213q-157 32 -249.5 148.5t-92.5 277.5zM272 451q0 -124 59 -209.5 t169 -122.5l94 727q-150 -28 -236 -133.5t-86 -261.5z" />
<glyph unicode="&#xa3;" d="M57 66q33 48 150 116q62 75 89.5 144t27.5 155q0 18 -9 119h-252l11 84h221q-40 98 -60 172.5t-20 151.5q0 130 63 238t172 169.5t240 61.5q193 0 304.5 -109.5t111.5 -302.5q0 -41 -2 -61h-123v28q0 159 -76.5 245.5t-212.5 86.5q-146 0 -248 -106.5t-102 -258.5 q0 -26 3.5 -53t12.5 -62.5t15.5 -57t22.5 -71.5t22 -71h405l-10 -84h-375q6 -47 6 -86q0 -98 -33.5 -177.5t-107.5 -154.5q30 6 62 6q60 0 131 -22q32 -11 86.5 -36t99 -40.5t86.5 -15.5q56 0 104 26.5t119 87.5l76 -77q-147 -150 -305 -150q-31 0 -66 7.5t-57 15t-66 24.5 q-13 5 -48 19.5t-52 20.5t-46 15.5t-55 13t-53 3.5q-103 0 -217 -105z" />
<glyph unicode="&#xa4;" d="M-20 549l45 98h145q3 77 16 162h-161l47 100h133q67 279 206.5 424.5t372.5 145.5q186 0 330 -136l-29 -135q-125 158 -309 158q-170 0 -279 -114t-163 -343h667l-55 -100h-633q-13 -87 -16 -162h559l-55 -98h-506v-35q0 -204 78 -323t200 -119q196 0 373 116l-31 -153 q-91 -44 -168 -60t-172 -16q-107 0 -188 45.5t-127.5 124t-69 174.5t-22.5 207v39h-188z" />
<glyph unicode="&#xa5;" d="M2 623l10 96h473l-88 174h-360l12 96h297l-235 463h129l335 -676l467 676h132l-318 -463h297l-12 -96h-353l-124 -174h454l-12 -96h-479l-82 -623h-127l82 623h-498z" />
<glyph unicode="&#xa6;" horiz-adv-x="1024" d="M467 -350v758h90v-758h-90zM467 674v758h90v-758h-90z" />
<glyph unicode="&#xa7;" horiz-adv-x="1042" d="M45 -25h117v-24q0 -125 58.5 -189.5t172.5 -64.5q107 0 171.5 64.5t64.5 170.5q0 96 -57 153.5t-189 113.5q-152 65 -219.5 140t-67.5 202q0 148 85 247t235 125q-183 86 -183 261q0 140 98.5 233.5t248.5 93.5q154 0 241.5 -89.5t87.5 -248.5v-30h-108v18 q0 119 -59 183.5t-167 64.5q-101 0 -165 -59.5t-64 -151.5q0 -90 56.5 -143.5t189.5 -108.5q152 -63 220.5 -141t68.5 -211q0 -297 -326 -365q190 -82 190 -278q0 -150 -98 -248.5t-252 -98.5q-169 0 -259.5 93t-90.5 266v22zM213 551q0 -117 69.5 -185.5t188.5 -68.5 q128 0 207.5 78.5t79.5 208.5q0 117 -70.5 188.5t-185.5 71.5q-128 0 -208.5 -81.5t-80.5 -211.5z" />
<glyph unicode="&#xa8;" horiz-adv-x="1024" d="M326 1190q0 32 27 59t61 27q35 0 60.5 -25.5t25.5 -60.5q0 -38 -24.5 -63t-61.5 -25q-36 0 -62 26t-26 62zM647 1190q0 32 27 59t61 27q35 0 60.5 -25.5t25.5 -60.5q0 -38 -24.5 -63t-61.5 -25q-36 0 -62 26t-26 62z" />
<glyph unicode="&#xa9;" horiz-adv-x="1705" d="M123 721q0 145 56 279t161 241q208 211 512 211q149 0 282.5 -55.5t237.5 -159.5q103 -103 157 -235.5t54 -280.5q0 -304 -211 -512q-107 -106 -241 -162.5t-279 -56.5t-277 56t-237 161q-104 104 -159.5 236t-55.5 278zM195 721q0 -130 50 -249.5t144 -213.5 t213.5 -144.5t249.5 -50.5q129 0 250.5 51t218.5 146q190 187 190 461q0 134 -49 253.5t-141 211.5q-194 194 -469 194q-133 0 -251.5 -49t-209.5 -141q-95 -97 -145.5 -217.5t-50.5 -251.5zM471 725q0 207 107.5 329t281.5 122q132 0 223 -72t103 -186h-105 q-20 82 -79.5 127t-147.5 45q-125 0 -195.5 -97t-70.5 -274q0 -171 72 -268t194 -97q91 0 156 52t84 141h102q-10 -123 -107.5 -201t-240.5 -78q-171 0 -274 122t-103 335z" />
<glyph unicode="&#xaa;" horiz-adv-x="821" d="M41 1133q0 152 94.5 253t237.5 101q86 0 142.5 -36.5t90.5 -111.5l19 125h88l-88 -620h-88l14 92q-82 -119 -234 -119q-121 0 -198.5 87.5t-77.5 228.5zM133 1128q0 -111 57.5 -175t151.5 -64q103 0 172.5 81.5t69.5 209.5q0 107 -57 172t-148 65q-104 0 -175 -81 t-71 -208z" />
<glyph unicode="&#xab;" horiz-adv-x="915" d="M45 446l365 416l69 -67l-311 -363l217 -352l-80 -55zM391 442l365 418l69 -67l-311 -365l217 -350l-80 -55z" />
<glyph unicode="&#xac;" horiz-adv-x="1705" d="M254 776v80h1198v-502h-80v422h-1118z" />
<glyph unicode="&#xad;" horiz-adv-x="616" d="M41 385l14 111h437l-15 -111h-436z" />
<glyph unicode="&#xae;" horiz-adv-x="1705" d="M123 721q0 145 56 279t161 241q208 211 512 211q149 0 282.5 -55.5t237.5 -159.5q103 -103 157 -235.5t54 -280.5q0 -304 -211 -512q-107 -106 -241 -162.5t-279 -56.5t-277 56t-237 161q-104 104 -159.5 236t-55.5 278zM195 721q0 -130 50 -249.5t144 -213.5 t213.5 -144.5t249.5 -50.5q129 0 250.5 51t218.5 146q190 187 190 461q0 134 -49 253.5t-141 211.5q-194 194 -469 194q-133 0 -251.5 -49t-209.5 -141q-95 -97 -145.5 -217.5t-50.5 -251.5zM569 309v846h305q177 0 263 -56t86 -177q0 -89 -55 -149.5t-148 -70.5l190 -393 h-131l-182 377h-213v-377h-115zM684 764h168q139 0 196.5 34t57.5 128q0 79 -62.5 115t-191.5 36h-168v-313z" />
<glyph unicode="&#xaf;" horiz-adv-x="1024" d="M313 1130l15 117h512l-15 -117h-512z" />
<glyph unicode="&#xb0;" horiz-adv-x="673" d="M63 1176q0 115 80.5 194.5t194.5 79.5q113 0 192.5 -80t79.5 -194q0 -113 -79.5 -193t-194.5 -80t-194 79.5t-79 193.5zM125 1176q0 -89 62.5 -151t150.5 -62q89 0 151 62.5t62 150.5t-62.5 150.5t-150.5 62.5q-89 0 -151 -62t-62 -151z" />
<glyph unicode="&#xb1;" horiz-adv-x="1705" d="M254 61v80h1198v-80h-1198zM254 727v80h559v354h80v-354h559v-80h-559v-352h-80v352h-559z" />
<glyph unicode="&#xb2;" horiz-adv-x="757" d="M2 575l346 291q145 120 207.5 197t62.5 162q0 83 -54.5 127.5t-157.5 44.5q-96 0 -160 -57.5t-68 -153.5h-80q6 131 89 204.5t227 73.5q135 0 211.5 -62.5t76.5 -172.5q0 -37 -9.5 -72.5t-21.5 -64t-40.5 -64t-49 -58t-66.5 -62.5t-72.5 -62t-86.5 -70l-163 -131h425 l-10 -70h-606z" />
<glyph unicode="&#xb3;" horiz-adv-x="757" d="M39 797h78q9 -85 64 -132t147 -47q106 0 170.5 56.5t64.5 148.5q0 80 -62 124t-179 44h-15l10 68h37q122 0 189 48.5t67 135.5q0 70 -53 112t-143 42q-84 0 -138.5 -41.5t-62.5 -108.5h-88q15 96 96 155.5t195 59.5q124 0 199 -59.5t75 -155.5q0 -86 -55 -145t-158 -82 q82 -20 126 -72t44 -127q0 -118 -87 -193t-230 -75q-132 0 -208.5 63.5t-82.5 180.5z" />
<glyph unicode="&#xb4;" horiz-adv-x="1024" d="M422 1030l244 350h147l-299 -350h-92z" />
<glyph unicode="&#xb5;" horiz-adv-x="1093" d="M-111 -424l316 1487h121l-123 -590q-17 -87 -17 -141q0 -126 60 -192t174 -66q125 0 218 107.5t138 314.5l125 567h121l-166 -787q-25 -121 -25 -135q0 -63 68 -63q16 0 39 2l-18 -96q-63 -13 -76 -13q-133 0 -133 127q0 13 4 45q-43 -83 -124 -127.5t-188 -44.5 q-98 0 -170 45t-104 127l-119 -567h-121z" />
<glyph unicode="&#xb6;" horiz-adv-x="1024" d="M90 1130q0 155 107.5 252t287.5 97h447v-64h-129v-1415h-70v1415h-192v-1415h-70v782q-177 7 -279 102t-102 246z" />
<glyph unicode="&#xb7;" horiz-adv-x="573" d="M184 719q0 43 30 72.5t73 29.5t72.5 -29.5t29.5 -72.5t-29.5 -73t-72.5 -30t-73 30t-30 73z" />
<glyph unicode="&#xb8;" horiz-adv-x="1024" d="M160 -416l26 78q133 -39 211 -39q69 0 105.5 29t36.5 82q0 48 -40 68t-130 20h-31l59 178h66l-37 -111h20q101 0 153 -40t52 -115q0 -91 -61.5 -143t-175.5 -52q-108 0 -254 45z" />
<glyph unicode="&#xb9;" horiz-adv-x="757" d="M229 1380l33 66h232l-125 -871h-84l118 805h-174z" />
<glyph unicode="&#xba;" horiz-adv-x="839" d="M35 1128q0 154 107.5 256.5t269.5 102.5q150 0 244 -86.5t94 -220.5q0 -158 -106.5 -260.5t-270.5 -102.5q-153 0 -245.5 85.5t-92.5 225.5zM129 1133q0 -107 68.5 -173.5t177.5 -66.5q119 0 198.5 79t79.5 199q0 104 -69 172t-176 68q-120 0 -199.5 -78.5t-79.5 -199.5z " />
<glyph unicode="&#xbb;" horiz-adv-x="915" d="M16 88l310 365l-217 352l79 55l261 -422l-363 -415zM362 86l310 365l-217 350l80 57l260 -422l-363 -416z" />
<glyph unicode="&#xbc;" horiz-adv-x="1787" d="M219 1384l31 60h221l-121 -811h-78l113 751h-166zM381 -39l930 1518h94l-930 -1518h-94zM1067 201l596 639l-86 -578h98l-8 -61h-98l-31 -201h-78l33 201h-426zM1202 262h297l66 395z" />
<glyph unicode="&#xbd;" horiz-adv-x="1787" d="M219 1384l31 60h221l-121 -811h-78l113 751h-166zM381 -39l930 1518h94l-930 -1518h-94zM1067 0l332 270q138 111 198 183.5t60 152.5q0 77 -53.5 119.5t-151.5 42.5q-92 0 -152.5 -54.5t-64.5 -144.5h-76q6 123 84.5 191.5t216.5 68.5q129 0 202 -58t73 -161 q0 -57 -18 -105t-71 -104.5t-89 -87.5t-130 -107l-7.5 -6t-6.5 -5.5t-8 -6.5l-156 -125h406l-10 -63h-578z" />
<glyph unicode="&#xbe;" horiz-adv-x="1787" d="M37 840h76q7 -79 59 -122.5t139 -43.5q103 0 165.5 52t62.5 138q0 75 -59.5 115.5t-172.5 40.5h-14l10 65q12 -2 35 -2q118 0 181 46t63 128q0 65 -50.5 104.5t-136.5 39.5q-81 0 -132.5 -38.5t-59.5 -102.5h-82q13 90 89.5 145t184.5 55q119 0 191.5 -55t72.5 -145 q0 -80 -52.5 -135t-151.5 -78q78 -19 120.5 -67t42.5 -118q0 -110 -83.5 -181t-219.5 -71q-127 0 -199.5 60.5t-78.5 169.5zM381 -39l930 1518h94l-930 -1518h-94zM1067 201l596 639l-86 -578h98l-8 -61h-98l-31 -201h-78l33 201h-426zM1202 262h297l66 395z" />
<glyph unicode="&#xbf;" horiz-adv-x="1013" d="M84 293q0 103 70 189t200 136q22 8 62 24q56 22 82 32t66.5 28t59 30t43 30t35 35t18 39.5t7.5 48.5q0 71 -50.5 115t-135.5 44q-83 0 -133.5 -42.5t-73.5 -131.5l-117 27q34 128 114 190t210 62q137 0 221 -73.5t84 -192.5q0 -98 -59.5 -171t-172.5 -116 q-57 -21 -84 -31.5t-72.5 -29t-67 -29t-54.5 -28.5t-48 -32t-34.5 -33.5t-28 -39t-14.5 -43.5t-6 -51q0 -94 66 -152.5t175 -58.5q209 0 273 239l117 -31q-41 -155 -144 -236t-260 -81q-155 0 -251.5 91.5t-96.5 242.5zM502 1395q0 43 29.5 72.5t72.5 29.5t73 -29.5 t30 -72.5t-30 -73t-73 -30t-72.5 30t-29.5 73z" />
<glyph unicode="&#xc0;" horiz-adv-x="1175" d="M-147 0l843 1464h31l442 -1464h-137l-139 479h-631l-270 -479h-139zM326 586h536l-182 641zM469 1958h147l224 -350h-90z" />
<glyph unicode="&#xc1;" horiz-adv-x="1175" d="M-147 0l843 1464h31l442 -1464h-137l-139 479h-631l-270 -479h-139zM326 586h536l-182 641zM592 1608l244 350h147l-299 -350h-92z" />
<glyph unicode="&#xc2;" horiz-adv-x="1175" d="M-147 0l843 1464h31l442 -1464h-137l-139 479h-631l-270 -479h-139zM326 586h536l-182 641zM440 1608l267 350h133l153 -350h-82l-145 247l-234 -247h-92z" />
<glyph unicode="&#xc3;" horiz-adv-x="1175" d="M-147 0l843 1464h31l442 -1464h-137l-139 479h-631l-270 -479h-139zM326 586h536l-182 641zM461 1659q37 99 79 142.5t109 43.5q32 0 56 -8l92 -29q46 -12 57 -12q66 0 92 72h80q-33 -95 -76.5 -137.5t-111.5 -42.5q-30 0 -68 10l-94 28q-39 11 -45 11q-61 0 -90 -78h-80 z" />
<glyph unicode="&#xc4;" horiz-adv-x="1175" d="M-147 0l843 1464h31l442 -1464h-137l-139 479h-631l-270 -479h-139zM326 586h536l-182 641zM496 1767q0 32 27 59t61 27q35 0 60.5 -25.5t25.5 -60.5q0 -38 -24.5 -63t-61.5 -25q-36 0 -62 26t-26 62zM817 1767q0 32 27 59t61 27q35 0 60.5 -25.5t25.5 -60.5 q0 -38 -24.5 -63t-61.5 -25q-36 0 -62 26t-26 62z" />
<glyph unicode="&#xc5;" horiz-adv-x="1175" d="M-147 0l841 1464h31l444 -1464h-137l-139 479h-631l-270 -479h-139zM326 586h536l-182 641zM487 1739q0 97 67.5 164t164.5 67t165 -67t68 -164t-68 -164.5t-165 -67.5q-95 0 -163.5 68.5t-68.5 163.5zM571 1739q0 -60 44 -104t104 -44q62 0 105.5 43.5t43.5 104.5 t-43.5 104t-105.5 43t-105 -43t-43 -104z" />
<glyph unicode="&#xc6;" horiz-adv-x="1757" d="M-94 0l817 1464h688l23 -112h-627l123 -480h614l29 -110h-615l164 -647h615l28 -115h-741l-133 520h-551l-295 -520h-139zM399 633h465l-141 602z" />
<glyph unicode="&#xc7;" horiz-adv-x="1421" d="M106 676q0 178 63.5 333.5t180.5 268.5q230 219 578 219q290 0 487 -162l-35 -135q-171 186 -456 186q-288 0 -473 -188q-101 -103 -156 -239.5t-55 -286.5q0 -271 165 -433.5t447 -162.5q185 0 428 135l-35 -154q-236 -96 -426 -96q-212 0 -374.5 89.5t-250.5 252 t-88 373.5zM532 -416l27 78q133 -39 211 -39q68 0 104.5 29t36.5 82q0 48 -40 68t-130 20h-30l59 178h66l-37 -111h20q101 0 153 -40t52 -115q0 -91 -62 -143t-176 -52q-108 0 -254 45z" />
<glyph unicode="&#xc8;" horiz-adv-x="1042" d="M82 0l192 1464h721l-14 -112h-596l-63 -480h579l-14 -110h-580l-84 -647h611l-17 -115h-735zM399 1958h148l223 -350h-90z" />
<glyph unicode="&#xc9;" horiz-adv-x="1042" d="M82 0l192 1464h721l-14 -112h-596l-63 -480h579l-14 -110h-580l-84 -647h611l-17 -115h-735zM522 1608l244 350h147l-299 -350h-92z" />
<glyph unicode="&#xca;" horiz-adv-x="1042" d="M82 0l192 1464h721l-14 -112h-596l-63 -480h579l-14 -110h-580l-84 -647h611l-17 -115h-735zM371 1608l266 350h133l154 -350h-82l-146 247l-233 -247h-92z" />
<glyph unicode="&#xcb;" horiz-adv-x="1042" d="M82 0l192 1464h721l-14 -112h-596l-63 -480h579l-14 -110h-580l-84 -647h611l-17 -115h-735zM426 1767q0 32 27 59t61 27q35 0 60.5 -25.5t25.5 -60.5q0 -38 -24.5 -63t-61.5 -25q-36 0 -62 26t-26 62zM748 1767q0 32 27 59t61 27q35 0 60.5 -25.5t25.5 -60.5 q0 -38 -24.5 -63t-61.5 -25q-36 0 -62 26t-26 62z" />
<glyph unicode="&#xcc;" horiz-adv-x="493" d="M86 0l195 1464h125l-193 -1464h-127zM92 1958h148l223 -350h-90z" />
<glyph unicode="&#xcd;" horiz-adv-x="493" d="M86 0l195 1464h125l-193 -1464h-127zM215 1608l244 350h147l-299 -350h-92z" />
<glyph unicode="&#xce;" horiz-adv-x="493" d="M63 1608l267 350h133l153 -350h-81l-146 247l-233 -247h-93zM86 0l195 1464h125l-193 -1464h-127z" />
<glyph unicode="&#xcf;" horiz-adv-x="493" d="M86 0l195 1464h125l-193 -1464h-127zM119 1767q0 32 27 59t61 27q35 0 60.5 -25.5t25.5 -60.5q0 -38 -24.5 -63t-61.5 -25q-36 0 -62 26t-26 62zM440 1767q0 32 27 59t61 27q35 0 60.5 -25.5t25.5 -60.5q0 -38 -24.5 -63t-61.5 -25q-36 0 -62 26t-26 62z" />
<glyph unicode="&#xd0;" horiz-adv-x="1413" d="M-6 758l12 100h199l80 606h194q89 0 133.5 -1t117 -7.5t119.5 -19t104 -37.5t106 -62q119 -90 183.5 -233.5t64.5 -323.5q0 -159 -49 -298t-140 -242q-135 -151 -325 -205q-123 -35 -318 -35h-383l101 758h-199zM229 109h95q99 0 150 1t127.5 7t124.5 18t102.5 35 t99.5 57q116 88 181 232.5t65 320.5q0 151 -52 270.5t-149 196.5q-85 68 -192.5 88.5t-282.5 20.5h-103l-65 -498h438l-12 -100h-441z" />
<glyph unicode="&#xd1;" horiz-adv-x="1515" d="M82 0l192 1464h35l848 -1185l156 1185h121l-193 -1464h-35l-846 1184l-155 -1184h-123zM594 1659q37 99 79 142.5t109 43.5q32 0 56 -8l92 -29q46 -12 57 -12q66 0 92 72h80q-33 -95 -76.5 -137.5t-111.5 -42.5q-30 0 -68 10l-94 28q-39 11 -45 11q-61 0 -90 -78h-80z " />
<glyph unicode="&#xd2;" horiz-adv-x="1761" d="M106 674q0 180 63.5 337t180.5 267q110 106 260 162.5t318 56.5q332 0 529.5 -195t197.5 -518q0 -175 -64 -329.5t-184 -268.5q-113 -108 -266 -166.5t-324 -58.5q-210 0 -371.5 89.5t-250.5 251.5t-89 372zM240 672q0 -266 163 -431t431 -165q285 0 479 194 q100 100 154.5 234.5t54.5 283.5q0 266 -164 432t-434 166q-136 0 -258 -49.5t-215 -142.5q-102 -103 -156.5 -237.5t-54.5 -284.5zM688 1958h148l223 -350h-90z" />
<glyph unicode="&#xd3;" horiz-adv-x="1761" d="M106 674q0 180 63.5 337t180.5 267q110 106 260 162.5t318 56.5q332 0 529.5 -195t197.5 -518q0 -175 -64 -329.5t-184 -268.5q-113 -108 -266 -166.5t-324 -58.5q-210 0 -371.5 89.5t-250.5 251.5t-89 372zM240 672q0 -266 163 -431t431 -165q285 0 479 194 q100 100 154.5 234.5t54.5 283.5q0 266 -164 432t-434 166q-136 0 -258 -49.5t-215 -142.5q-102 -103 -156.5 -237.5t-54.5 -284.5zM811 1608l244 350h147l-299 -350h-92z" />
<glyph unicode="&#xd4;" horiz-adv-x="1761" d="M106 674q0 180 63.5 337t180.5 267q110 106 260 162.5t318 56.5q332 0 529.5 -195t197.5 -518q0 -175 -64 -329.5t-184 -268.5q-113 -108 -266 -166.5t-324 -58.5q-210 0 -371.5 89.5t-250.5 251.5t-89 372zM240 672q0 -266 163 -431t431 -165q285 0 479 194 q100 100 154.5 234.5t54.5 283.5q0 266 -164 432t-434 166q-136 0 -258 -49.5t-215 -142.5q-102 -103 -156.5 -237.5t-54.5 -284.5zM659 1608l267 350h133l153 -350h-82l-145 247l-233 -247h-93z" />
<glyph unicode="&#xd5;" horiz-adv-x="1761" d="M106 674q0 180 63.5 337t180.5 267q110 106 260 162.5t318 56.5q332 0 529.5 -195t197.5 -518q0 -175 -64 -329.5t-184 -268.5q-113 -108 -266 -166.5t-324 -58.5q-210 0 -371.5 89.5t-250.5 251.5t-89 372zM240 672q0 -266 163 -431t431 -165q285 0 479 194 q100 100 154.5 234.5t54.5 283.5q0 266 -164 432t-434 166q-136 0 -258 -49.5t-215 -142.5q-102 -103 -156.5 -237.5t-54.5 -284.5zM680 1659q37 99 79 142.5t109 43.5q32 0 56 -8l92 -29q46 -12 57 -12q66 0 92 72h80q-33 -95 -76.5 -137.5t-111.5 -42.5q-30 0 -68 10 l-94 28q-38 11 -45 11q-61 0 -90 -78h-80z" />
<glyph unicode="&#xd6;" horiz-adv-x="1761" d="M106 674q0 180 63.5 337t180.5 267q110 106 260 162.5t318 56.5q332 0 529.5 -195t197.5 -518q0 -175 -64 -329.5t-184 -268.5q-113 -108 -266 -166.5t-324 -58.5q-210 0 -371.5 89.5t-250.5 251.5t-89 372zM240 672q0 -266 163 -431t431 -165q285 0 479 194 q100 100 154.5 234.5t54.5 283.5q0 266 -164 432t-434 166q-136 0 -258 -49.5t-215 -142.5q-102 -103 -156.5 -237.5t-54.5 -284.5zM715 1767q0 32 27 59t61 27q35 0 60.5 -25.5t25.5 -60.5q0 -38 -24.5 -63t-61.5 -25q-36 0 -62 26t-26 62zM1036 1767q0 32 27 59t61 27 q35 0 60.5 -25.5t25.5 -60.5q0 -38 -24.5 -63t-61.5 -25q-36 0 -62 26t-26 62z" />
<glyph unicode="&#xd7;" horiz-adv-x="1705" d="M309 123l488 487l-488 488l58 57l487 -487l487 487l58 -57l-488 -488l488 -487l-58 -57l-487 487l-487 -487z" />
<glyph unicode="&#xd8;" horiz-adv-x="1761" d="M66 12l196 191q-158 161 -158 459q0 380 248 622q113 108 261.5 165.5t318.5 57.5q314 0 502 -176l170 164l55 -63l-168 -160q162 -195 162 -488q0 -178 -63 -332t-183 -270q-112 -109 -263.5 -166t-324.5 -57q-315 0 -500 182l-198 -190zM242 653q0 -214 114 -360 l985 950q-155 152 -415 152q-283 0 -475 -195q-209 -212 -209 -547zM412 229q152 -155 426 -155q284 0 475 194q100 100 154.5 236t54.5 289q0 223 -125 389z" />
<glyph unicode="&#xd9;" horiz-adv-x="1384" d="M133 391q0 91 31 324l98 749h125l-119 -901q-10 -71 -10 -139q0 -167 90.5 -259.5t253.5 -92.5q236 0 356 166q12 17 23 36.5t19.5 35t16.5 41t13 39.5t11.5 45t9.5 43t8.5 49t7 47t7.5 53.5t7 52.5l103 784h125l-109 -823q-2 -17 -9.5 -75.5t-11 -78t-11.5 -67.5 t-16 -72t-20.5 -60.5t-29 -65.5t-37.5 -56q-75 -100 -196.5 -154.5t-274.5 -54.5q-219 0 -340 114t-121 320zM537 1958h147l223 -350h-90z" />
<glyph unicode="&#xda;" horiz-adv-x="1384" d="M133 391q0 91 31 324l98 749h125l-119 -901q-10 -71 -10 -139q0 -167 90.5 -259.5t253.5 -92.5q236 0 356 166q12 17 23 36.5t19.5 35t16.5 41t13 39.5t11.5 45t9.5 43t8.5 49t7 47t7.5 53.5t7 52.5l103 784h125l-109 -823q-2 -17 -9.5 -75.5t-11 -78t-11.5 -67.5 t-16 -72t-20.5 -60.5t-29 -65.5t-37.5 -56q-75 -100 -196.5 -154.5t-274.5 -54.5q-219 0 -340 114t-121 320zM659 1608l244 350h148l-299 -350h-93z" />
<glyph unicode="&#xdb;" horiz-adv-x="1384" d="M133 391q0 91 31 324l98 749h125l-119 -901q-10 -71 -10 -139q0 -167 90.5 -259.5t253.5 -92.5q236 0 356 166q12 17 23 36.5t19.5 35t16.5 41t13 39.5t11.5 45t9.5 43t8.5 49t7 47t7.5 53.5t7 52.5l103 784h125l-109 -823q-2 -17 -9.5 -75.5t-11 -78t-11.5 -67.5 t-16 -72t-20.5 -60.5t-29 -65.5t-37.5 -56q-75 -100 -196.5 -154.5t-274.5 -54.5q-219 0 -340 114t-121 320zM508 1608l266 350h133l154 -350h-82l-145 247l-234 -247h-92z" />
<glyph unicode="&#xdc;" horiz-adv-x="1384" d="M133 391q0 91 31 324l98 749h125l-119 -901q-10 -71 -10 -139q0 -167 90.5 -259.5t253.5 -92.5q236 0 356 166q12 17 23 36.5t19.5 35t16.5 41t13 39.5t11.5 45t9.5 43t8.5 49t7 47t7.5 53.5t7 52.5l103 784h125l-109 -823q-2 -17 -9.5 -75.5t-11 -78t-11.5 -67.5 t-16 -72t-20.5 -60.5t-29 -65.5t-37.5 -56q-75 -100 -196.5 -154.5t-274.5 -54.5q-219 0 -340 114t-121 320zM563 1767q0 32 27 59t61 27q35 0 60.5 -25.5t25.5 -60.5q0 -38 -24.5 -63t-61.5 -25q-36 0 -62 26t-26 62zM885 1767q0 32 27 59t61 27q35 0 60.5 -25.5 t25.5 -60.5q0 -38 -24.5 -63t-61.5 -25q-36 0 -62 26t-26 62z" />
<glyph unicode="&#xdd;" horiz-adv-x="1013" d="M41 1464h137l330 -661l455 661h141l-541 -786l-90 -678h-127l90 684zM475 1608l244 350h147l-299 -350h-92z" />
<glyph unicode="&#xde;" horiz-adv-x="1034" d="M82 0l192 1464h125l-43 -313h80q76 0 117.5 -2t97 -9.5t97 -25t79.5 -47.5q131 -103 131 -281q0 -210 -151 -327q-74 -57 -165 -72.5t-241 -15.5h-149l-45 -371h-125zM268 479h150q95 0 152.5 6.5t105.5 30.5q71 34 111 103.5t40 162.5q0 149 -106 211 q-45 28 -100.5 35.5t-147.5 7.5h-55h-76z" />
<glyph unicode="&#xdf;" horiz-adv-x="1064" d="M25 778l14 103h149l29 225q10 75 16 111.5t18.5 89.5t32 89t48.5 66q98 107 262 107q166 0 259 -100t93 -281q0 -134 -76 -232.5t-208 -128.5q141 -38 208.5 -130.5t67.5 -247.5q0 -219 -107 -353.5t-278 -134.5q-65 0 -184 33l6 115q73 -37 145 -37q132 0 213.5 98.5 t81.5 259.5q0 170 -87 257t-259 87h-25l15 109h35q159 0 242 80t83 233q0 130 -58 198t-167 68q-49 0 -85.5 -11t-63 -37.5t-44.5 -57t-31.5 -85t-22 -104.5t-19.5 -131l-135 -1036h-121l102 778h-149z" />
<glyph unicode="&#xe0;" horiz-adv-x="1095" d="M53 412q0 218 126.5 363t316.5 145q115 0 191 -51.5t120 -159.5l24 178h119l-116 -887h-119l18 133q-111 -172 -309 -172q-161 0 -266 125t-105 326zM178 406q0 -158 76.5 -250.5t202.5 -92.5q136 0 228.5 116.5t92.5 299.5q0 154 -76 247t-198 93q-139 0 -232.5 -115.5 t-93.5 -297.5zM311 1380h148l223 -350h-90z" />
<glyph unicode="&#xe1;" horiz-adv-x="1095" d="M53 412q0 218 126.5 363t316.5 145q115 0 191 -51.5t120 -159.5l24 178h119l-116 -887h-119l18 133q-111 -172 -309 -172q-161 0 -266 125t-105 326zM178 406q0 -158 76.5 -250.5t202.5 -92.5q136 0 228.5 116.5t92.5 299.5q0 154 -76 247t-198 93q-139 0 -232.5 -115.5 t-93.5 -297.5zM434 1030l244 350h147l-299 -350h-92z" />
<glyph unicode="&#xe2;" horiz-adv-x="1095" d="M53 412q0 218 126.5 363t316.5 145q115 0 191 -51.5t120 -159.5l24 178h119l-116 -887h-119l18 133q-111 -172 -309 -172q-161 0 -266 125t-105 326zM178 406q0 -158 76.5 -250.5t202.5 -92.5q136 0 228.5 116.5t92.5 299.5q0 154 -76 247t-198 93q-139 0 -232.5 -115.5 t-93.5 -297.5zM283 1030l266 350h133l154 -350h-82l-146 248l-233 -248h-92z" />
<glyph unicode="&#xe3;" horiz-adv-x="1095" d="M53 412q0 218 126.5 363t316.5 145q115 0 191 -51.5t120 -159.5l24 178h119l-116 -887h-119l18 133q-111 -172 -309 -172q-161 0 -266 125t-105 326zM178 406q0 -158 76.5 -250.5t202.5 -92.5q136 0 228.5 116.5t92.5 299.5q0 154 -76 247t-198 93q-139 0 -232.5 -115.5 t-93.5 -297.5zM303 1081q36 99 79 143t110 44q31 0 55 -8l92 -29q46 -12 57 -12q66 0 92 71h80q-33 -95 -76.5 -137.5t-111.5 -42.5q-30 0 -68 10l-94 29q-35 10 -45 10q-61 0 -90 -78h-80z" />
<glyph unicode="&#xe4;" horiz-adv-x="1095" d="M53 412q0 218 126.5 363t316.5 145q115 0 191 -51.5t120 -159.5l24 178h119l-116 -887h-119l18 133q-111 -172 -309 -172q-161 0 -266 125t-105 326zM178 406q0 -158 76.5 -250.5t202.5 -92.5q136 0 228.5 116.5t92.5 299.5q0 154 -76 247t-198 93q-139 0 -232.5 -115.5 t-93.5 -297.5zM338 1190q0 32 27 59t61 27q35 0 60.5 -25.5t25.5 -60.5q0 -38 -24.5 -63t-61.5 -25q-36 0 -62 26t-26 62zM659 1190q0 32 27.5 59t61.5 27q35 0 60.5 -25.5t25.5 -60.5q0 -38 -24.5 -63t-61.5 -25q-36 0 -62.5 26t-26.5 62z" />
<glyph unicode="&#xe5;" horiz-adv-x="1095" d="M53 412q0 218 126.5 363t316.5 145q115 0 191 -51.5t120 -159.5l24 178h119l-116 -887h-119l18 133q-111 -172 -309 -172q-161 0 -266 125t-105 326zM178 406q0 -158 76.5 -250.5t202.5 -92.5q136 0 228.5 116.5t92.5 299.5q0 154 -76 247t-198 93q-139 0 -232.5 -115.5 t-93.5 -297.5zM340 1217q0 97 68 164t165 67t164.5 -67t67.5 -164t-67.5 -165.5t-164.5 -68.5q-95 0 -164 69.5t-69 164.5zM424 1217q0 -60 43.5 -104t103.5 -44q62 0 106 43.5t44 104.5t-44 104t-106 43q-61 0 -104 -43t-43 -104z" />
<glyph unicode="&#xe6;" horiz-adv-x="1622" d="M20 246q0 123 95 204.5t243 81.5q194 0 289 -92l8 92q9 101 9 119q0 170 -218 170q-136 0 -290 -71l10 108q151 62 266 62q289 0 313 -191q133 191 357 191q186 0 287.5 -106t101.5 -298q0 -38 -6 -90h-729v-18q0 -163 80 -252.5t225 -89.5q175 0 287 167l79 -79 q-74 -100 -164.5 -147.5t-211.5 -47.5q-228 0 -353 186q-119 -186 -350 -186q-150 0 -239 78.5t-89 208.5zM139 244q0 -82 65 -133.5t173 -51.5q117 0 196.5 60.5t79.5 146.5q0 84 -71 130t-201 46q-108 0 -175 -55t-67 -143zM768 526h608q0 141 -69 216t-197 75t-217.5 -76 t-124.5 -215z" />
<glyph unicode="&#xe7;" horiz-adv-x="909" d="M45 408q0 221 144.5 366.5t367.5 145.5q166 0 297 -91l-31 -112q-131 96 -272 96q-165 0 -272 -112.5t-107 -286.5q0 -154 91 -249t239 -95q129 0 264 102l-25 -145q-126 -66 -243 -66q-206 0 -329.5 123.5t-123.5 323.5zM203 -416l26 78q133 -39 211 -39q69 0 105.5 29 t36.5 82q0 48 -40 68t-130 20h-31l59 178h66l-37 -111h20q101 0 153 -40t52 -115q0 -91 -61.5 -143t-175.5 -52q-108 0 -254 45z" />
<glyph unicode="&#xe8;" horiz-adv-x="1046" d="M47 387q0 237 134.5 385t346.5 148q187 0 290.5 -106t103.5 -298q0 -29 -7 -90h-743v-23q0 -161 81.5 -249t229.5 -88q181 0 293 167l82 -79q-73 -99 -165 -146t-212 -47q-198 0 -316 117.5t-118 308.5zM184 526h619q0 139 -68.5 215t-193.5 76q-138 0 -228.5 -74 t-128.5 -217zM295 1380h147l224 -350h-91z" />
<glyph unicode="&#xe9;" horiz-adv-x="1046" d="M47 387q0 237 134.5 385t346.5 148q187 0 290.5 -106t103.5 -298q0 -29 -7 -90h-743v-23q0 -161 81.5 -249t229.5 -88q181 0 293 167l82 -79q-73 -99 -165 -146t-212 -47q-198 0 -316 117.5t-118 308.5zM184 526h619q0 139 -68.5 215t-193.5 76q-138 0 -228.5 -74 t-128.5 -217zM418 1030l244 350h147l-299 -350h-92z" />
<glyph unicode="&#xea;" horiz-adv-x="1046" d="M47 387q0 237 134.5 385t346.5 148q187 0 290.5 -106t103.5 -298q0 -29 -7 -90h-743v-23q0 -161 81.5 -249t229.5 -88q181 0 293 167l82 -79q-73 -99 -165 -146t-212 -47q-198 0 -316 117.5t-118 308.5zM184 526h619q0 139 -68.5 215t-193.5 76q-138 0 -228.5 -74 t-128.5 -217zM266 1030l266 350h134l153 -350h-82l-145 248l-234 -248h-92z" />
<glyph unicode="&#xeb;" horiz-adv-x="1046" d="M47 387q0 237 134.5 385t346.5 148q187 0 290.5 -106t103.5 -298q0 -29 -7 -90h-743v-23q0 -161 81.5 -249t229.5 -88q181 0 293 167l82 -79q-73 -99 -165 -146t-212 -47q-198 0 -316 117.5t-118 308.5zM184 526h619q0 139 -68.5 215t-193.5 76q-138 0 -228.5 -74 t-128.5 -217zM322 1190q0 32 27 59t61 27q35 0 60.5 -25.5t25.5 -60.5q0 -38 -24.5 -63t-61.5 -25q-36 0 -62 26t-26 62zM643 1190q0 32 27 59t61 27q35 0 60.5 -25.5t25.5 -60.5q0 -38 -24.5 -63t-61.5 -25q-36 0 -62 26t-26 62z" />
<glyph unicode="&#xec;" horiz-adv-x="460" d="M18 1380h148l223 -350h-90zM76 0l117 887h120l-116 -887h-121z" />
<glyph unicode="&#xed;" horiz-adv-x="460" d="M76 0l117 887h120l-116 -887h-121zM141 1030l244 350h147l-299 -350h-92z" />
<glyph unicode="&#xee;" horiz-adv-x="460" d="M-10 1030l266 350h133l154 -350h-82l-146 248l-233 -248h-92zM76 0l117 887h120l-116 -887h-121z" />
<glyph unicode="&#xef;" horiz-adv-x="460" d="M45 1190q0 32 27 59t61 27q35 0 60.5 -25.5t25.5 -60.5q0 -38 -24.5 -63t-61.5 -25q-36 0 -62 26t-26 62zM76 0l117 887h120l-116 -887h-121zM367 1190q0 32 27 59t61 27q35 0 60.5 -25.5t25.5 -60.5q0 -38 -24.5 -63t-61.5 -25q-36 0 -62 26t-26 62z" />
<glyph unicode="&#xf0;" horiz-adv-x="1118" d="M45 399q0 209 140.5 348.5t351.5 139.5q253 0 364 -205v12q0 299 -135 518l-299 -69l-29 90l269 65q-49 69 -170 164l65 84q130 -88 232 -221l249 57l31 -88l-223 -55q129 -237 129 -563q0 -347 -134 -532t-380 -185q-211 0 -336 121t-125 319zM174 401 q0 -150 90.5 -242.5t241.5 -92.5q155 0 256.5 108t101.5 270q0 152 -91.5 246t-240.5 94q-154 0 -256 -109.5t-102 -273.5z" />
<glyph unicode="&#xf1;" horiz-adv-x="1054" d="M66 0l116 887h117l-20 -144q137 177 329 177q127 0 201 -68.5t74 -189.5q0 -34 -9 -99l-73 -563h-121l74 555q6 44 6 86q0 86 -52 130t-151 44q-264 0 -313 -373l-58 -442h-120zM299 1081q37 99 79 143t109 44q32 0 56 -8l92 -29q46 -12 57 -12q66 0 92 71h80 q-33 -95 -76.5 -137.5t-111.5 -42.5q-30 0 -68 10l-94 29q-35 10 -45 10q-61 0 -90 -78h-80z" />
<glyph unicode="&#xf2;" horiz-adv-x="1118" d="M45 406q0 221 143.5 367.5t360.5 146.5q200 0 325 -124t125 -317q0 -226 -141.5 -372t-359.5 -146q-205 0 -329 123t-124 322zM172 412q0 -152 91 -247t237 -95q158 0 264 114t106 285q0 150 -91.5 246t-235.5 96q-160 0 -265.5 -112.5t-105.5 -286.5zM311 1380h148 l223 -350h-90z" />
<glyph unicode="&#xf3;" horiz-adv-x="1118" d="M45 406q0 221 143.5 367.5t360.5 146.5q200 0 325 -124t125 -317q0 -226 -141.5 -372t-359.5 -146q-205 0 -329 123t-124 322zM172 412q0 -152 91 -247t237 -95q158 0 264 114t106 285q0 150 -91.5 246t-235.5 96q-160 0 -265.5 -112.5t-105.5 -286.5zM434 1030l244 350 h147l-299 -350h-92z" />
<glyph unicode="&#xf4;" horiz-adv-x="1118" d="M45 406q0 221 143.5 367.5t360.5 146.5q200 0 325 -124t125 -317q0 -226 -141.5 -372t-359.5 -146q-205 0 -329 123t-124 322zM172 412q0 -152 91 -247t237 -95q158 0 264 114t106 285q0 150 -91.5 246t-235.5 96q-160 0 -265.5 -112.5t-105.5 -286.5zM283 1030l266 350 h133l154 -350h-82l-146 248l-233 -248h-92z" />
<glyph unicode="&#xf5;" horiz-adv-x="1118" d="M45 406q0 221 143.5 367.5t360.5 146.5q200 0 325 -124t125 -317q0 -226 -141.5 -372t-359.5 -146q-205 0 -329 123t-124 322zM172 412q0 -152 91 -247t237 -95q158 0 264 114t106 285q0 150 -91.5 246t-235.5 96q-160 0 -265.5 -112.5t-105.5 -286.5zM303 1081 q36 99 79 143t110 44q31 0 55 -8l92 -29q46 -12 57 -12q66 0 92 71h80q-33 -95 -76.5 -137.5t-111.5 -42.5q-30 0 -68 10l-94 29q-35 10 -45 10q-61 0 -90 -78h-80z" />
<glyph unicode="&#xf6;" horiz-adv-x="1118" d="M45 406q0 221 143.5 367.5t360.5 146.5q200 0 325 -124t125 -317q0 -226 -141.5 -372t-359.5 -146q-205 0 -329 123t-124 322zM172 412q0 -152 91 -247t237 -95q158 0 264 114t106 285q0 150 -91.5 246t-235.5 96q-160 0 -265.5 -112.5t-105.5 -286.5zM338 1190 q0 32 27 59t61 27q35 0 60.5 -25.5t25.5 -60.5q0 -38 -24.5 -63t-61.5 -25q-36 0 -62 26t-26 62zM659 1190q0 32 27.5 59t61.5 27q35 0 60.5 -25.5t25.5 -60.5q0 -38 -24.5 -63t-61.5 -25q-36 0 -62.5 26t-26.5 62z" />
<glyph unicode="&#xf7;" horiz-adv-x="1705" d="M254 571v80h1198v-80h-1198zM756 266q0 40 29.5 70.5t68.5 30.5q41 0 69.5 -30.5t28.5 -70.5q0 -41 -28.5 -69.5t-69.5 -28.5q-42 0 -70 28t-28 70zM756 956q0 41 29 70t69 29q41 0 69.5 -29t28.5 -70q0 -40 -28.5 -70t-69.5 -30t-69.5 29.5t-28.5 70.5z" />
<glyph unicode="&#xf8;" horiz-adv-x="1118" d="M-20 10l143 127q-80 121 -80 269q0 221 145 367.5t363 146.5q186 0 311 -113l135 121l52 -58l-136 -122q86 -122 86 -275q0 -221 -140.5 -365.5t-360.5 -144.5q-102 0 -180 27.5t-146 89.5l-141 -125zM172 422q0 -119 47 -197l551 498q-85 88 -225 88 q-160 0 -266.5 -111.5t-106.5 -277.5zM264 166q93 -96 234 -96q161 0 266.5 113t105.5 276q0 103 -53 203z" />
<glyph unicode="&#xf9;" horiz-adv-x="1052" d="M100 250q0 70 23 239l53 398h119l-49 -377q-25 -186 -25 -246q0 -90 59 -141t164 -51q72 0 122.5 23t84.5 74t54 120t34 172l58 426h118l-57 -436q-21 -151 -45 -235t-78 -144q-102 -111 -295 -111q-159 0 -249.5 78t-90.5 211zM313 1380h148l223 -350h-90z" />
<glyph unicode="&#xfa;" horiz-adv-x="1052" d="M100 250q0 70 23 239l53 398h119l-49 -377q-25 -186 -25 -246q0 -90 59 -141t164 -51q72 0 122.5 23t84.5 74t54 120t34 172l58 426h118l-57 -436q-21 -151 -45 -235t-78 -144q-102 -111 -295 -111q-159 0 -249.5 78t-90.5 211zM436 1030l244 350h147l-299 -350h-92z" />
<glyph unicode="&#xfb;" horiz-adv-x="1052" d="M100 250q0 70 23 239l53 398h119l-49 -377q-25 -186 -25 -246q0 -90 59 -141t164 -51q72 0 122.5 23t84.5 74t54 120t34 172l58 426h118l-57 -436q-21 -151 -45 -235t-78 -144q-102 -111 -295 -111q-159 0 -249.5 78t-90.5 211zM285 1030l266 350h133l154 -350h-82 l-146 248l-233 -248h-92z" />
<glyph unicode="&#xfc;" horiz-adv-x="1052" d="M100 250q0 70 23 239l53 398h119l-49 -377q-25 -186 -25 -246q0 -90 59 -141t164 -51q72 0 122.5 23t84.5 74t54 120t34 172l58 426h118l-57 -436q-21 -151 -45 -235t-78 -144q-102 -111 -295 -111q-159 0 -249.5 78t-90.5 211zM340 1190q0 32 27 59t61 27 q35 0 60.5 -25.5t25.5 -60.5q0 -38 -24.5 -63t-61.5 -25q-36 0 -62 26t-26 62zM662 1190q0 32 27 59t61 27q35 0 60.5 -25.5t25.5 -60.5q0 -38 -24.5 -63t-61.5 -25q-36 0 -62 26t-26 62z" />
<glyph unicode="&#xfd;" horiz-adv-x="890" d="M-45 -412l289 482l-258 817h131l207 -701l403 701h135l-776 -1299h-131zM336 1030l244 350h147l-299 -350h-92z" />
<glyph unicode="&#xfe;" horiz-adv-x="1095" d="M6 -446l264 1996h117l-106 -800q106 172 303 172q167 0 274 -125.5t107 -327.5q0 -144 -57.5 -261t-159 -183t-226.5 -66q-225 0 -313 213l-82 -618h-121zM240 401q0 -155 75 -247.5t199 -92.5q137 0 231.5 117t94.5 299q0 158 -77.5 250t-203.5 92q-136 0 -227.5 -117.5 t-91.5 -300.5z" />
<glyph unicode="&#xff;" horiz-adv-x="890" d="M-45 -412l289 482l-258 817h131l207 -701l403 701h135l-776 -1299h-131zM260 1190q0 32 27 59t61 27q35 0 60.5 -25.5t25.5 -60.5q0 -38 -24.5 -63t-61.5 -25q-36 0 -62 26t-26 62zM582 1190q0 32 27 59t61 27q35 0 60.5 -25.5t25.5 -60.5q0 -38 -24.5 -63t-61.5 -25 q-36 0 -62 26t-26 62z" />
<glyph unicode="&#x152;" horiz-adv-x="2347" d="M113 674q0 181 61.5 339t175.5 271q224 221 565 221q229 0 384.5 -90.5t242.5 -277.5l45 327h719l-14 -112h-596l-64 -480h580l-14 -110h-580l-84 -647h610l-16 -115h-735l34 244q-109 -140 -266 -212.5t-350 -72.5q-209 0 -367.5 89t-244.5 251.5t-86 374.5zM242 674 q0 -271 160 -436.5t423 -165.5q135 0 255 50.5t212 145.5q99 102 153 237.5t54 285.5q0 272 -161.5 438t-426.5 166q-132 0 -252.5 -50.5t-209.5 -144.5q-100 -103 -153.5 -239t-53.5 -287z" />
<glyph unicode="&#x153;" horiz-adv-x="1837" d="M47 410q0 217 142 363.5t354 146.5q130 0 228.5 -57t154.5 -163q67 107 170 163.5t231 56.5q183 0 286 -106t103 -294q0 -38 -6 -94h-743v-23q0 -161 81.5 -248t229.5 -87q182 0 293 165l82 -79q-75 -100 -166.5 -146.5t-212.5 -46.5q-273 0 -379 213 q-70 -104 -173 -158.5t-228 -54.5q-204 0 -325.5 123.5t-121.5 325.5zM174 414q0 -154 89.5 -250t232.5 -96q154 0 257 114t103 287q0 151 -89 246.5t-230 95.5q-156 0 -259.5 -112.5t-103.5 -284.5zM979 526h620q0 140 -70 215.5t-200 75.5q-131 0 -222 -75.5t-128 -215.5z " />
<glyph unicode="&#x178;" horiz-adv-x="1013" d="M41 1464h137l330 -661l455 661h141l-541 -786l-90 -678h-127l90 684zM379 1767q0 32 27 59t61 27q35 0 60.5 -25.5t25.5 -60.5q0 -38 -24.5 -63t-61.5 -25q-36 0 -62 26t-26 62zM700 1767q0 32 27 59t61 27q35 0 60.5 -25.5t25.5 -60.5q0 -38 -24.5 -63t-61.5 -25 q-36 0 -62 26t-26 62z" />
<glyph unicode="&#x2c6;" horiz-adv-x="1024" d="M270 1030l267 350h133l153 -350h-82l-145 248l-234 -248h-92z" />
<glyph unicode="&#x2dc;" horiz-adv-x="1024" d="M291 1081q37 99 79 143t109 44q32 0 56 -8l92 -29q46 -12 57 -12q66 0 92 71h80q-33 -95 -76.5 -137.5t-111.5 -42.5q-30 0 -68 10l-94 29q-35 10 -45 10q-61 0 -90 -78h-80z" />
<glyph unicode="&#x2000;" horiz-adv-x="985" />
<glyph unicode="&#x2001;" horiz-adv-x="1970" />
<glyph unicode="&#x2002;" horiz-adv-x="985" />
<glyph unicode="&#x2003;" horiz-adv-x="1970" />
<glyph unicode="&#x2004;" horiz-adv-x="656" />
<glyph unicode="&#x2005;" horiz-adv-x="492" />
<glyph unicode="&#x2006;" horiz-adv-x="328" />
<glyph unicode="&#x2007;" horiz-adv-x="328" />
<glyph unicode="&#x2008;" horiz-adv-x="246" />
<glyph unicode="&#x2009;" horiz-adv-x="394" />
<glyph unicode="&#x200a;" horiz-adv-x="109" />
<glyph unicode="&#x2010;" horiz-adv-x="616" d="M41 385l14 111h437l-15 -111h-436z" />
<glyph unicode="&#x2011;" horiz-adv-x="616" d="M41 385l14 111h437l-15 -111h-436z" />
<glyph unicode="&#x2012;" horiz-adv-x="616" d="M41 385l14 111h437l-15 -111h-436z" />
<glyph unicode="&#x2013;" horiz-adv-x="1024" d="M-45 401l10 80h1024l-10 -80h-1024z" />
<glyph unicode="&#x2014;" horiz-adv-x="2048" d="M-45 401l10 80h2048l-10 -80h-2048z" />
<glyph unicode="&#x2018;" horiz-adv-x="573" d="M154 1020l323 477l80 -47l-268 -508z" />
<glyph unicode="&#x2019;" horiz-adv-x="573" d="M150 989l266 508l135 -78l-324 -477z" />
<glyph unicode="&#x201a;" horiz-adv-x="573" d="M-59 -229l266 508l135 -80l-324 -478z" />
<glyph unicode="&#x201c;" horiz-adv-x="929" d="M160 1020l323 477l80 -47l-268 -508zM489 1020l326 477l78 -47l-266 -508z" />
<glyph unicode="&#x201d;" horiz-adv-x="929" d="M156 989l266 508l137 -78l-326 -477zM485 989l269 508l135 -78l-324 -477z" />
<glyph unicode="&#x201e;" horiz-adv-x="929" d="M-43 -229l266 508l137 -80l-325 -478zM287 -229l268 508l135 -80l-323 -478z" />
<glyph unicode="&#x2022;" horiz-adv-x="1208" d="M307 762q0 123 87 209t210 86q122 0 208.5 -86t86.5 -209q0 -122 -87 -209.5t-210 -87.5t-209 87t-86 210z" />
<glyph unicode="&#x2026;" horiz-adv-x="2048" d="M154 84q0 43 29.5 72.5t72.5 29.5t72.5 -29.5t29.5 -72.5t-29.5 -72.5t-72.5 -29.5t-72.5 29.5t-29.5 72.5zM836 84q0 43 29.5 72.5t72.5 29.5t72.5 -29.5t29.5 -72.5t-29.5 -72.5t-72.5 -29.5t-72.5 29.5t-29.5 72.5zM1520 84q0 43 29.5 72.5t72.5 29.5t72.5 -29.5 t29.5 -72.5t-29.5 -72.5t-72.5 -29.5t-72.5 29.5t-29.5 72.5z" />
<glyph unicode="&#x202f;" horiz-adv-x="394" />
<glyph unicode="&#x2039;" horiz-adv-x="569" d="M45 442l365 418l69 -67l-311 -365l217 -350l-80 -55z" />
<glyph unicode="&#x203a;" horiz-adv-x="569" d="M14 88l312 365l-217 352l79 55l261 -422l-365 -415z" />
<glyph unicode="&#x205f;" horiz-adv-x="492" />
<glyph unicode="&#x20ac;" d="M-20 549l45 98h145q3 77 16 162h-161l47 100h133q67 279 206.5 424.5t372.5 145.5q186 0 330 -136l-29 -135q-125 158 -309 158q-170 0 -279 -114t-163 -343h667l-55 -100h-633q-13 -87 -16 -162h559l-55 -98h-506v-35q0 -204 78 -323t200 -119q196 0 373 116l-31 -153 q-91 -44 -168 -60t-172 -16q-107 0 -188 45.5t-127.5 124t-69 174.5t-22.5 207v39h-188z" />
<glyph unicode="&#x2122;" horiz-adv-x="1705" d="M274 1403v51h420v-51h-174v-479h-67v479h-179zM825 924v530h101l174 -440l162 440h102v-530h-59v479l-181 -479h-49l-190 479v-479h-60z" />
<glyph unicode="&#xe000;" horiz-adv-x="890" d="M0 0v891h891v-891h-891z" />
<glyph unicode="&#xfb01;" horiz-adv-x="991" d="M45 782l14 105h160l53 399q21 155 69.5 220t162.5 65q78 0 141 -29l-16 -106q-70 26 -107 26q-63 0 -90.5 -42t-40.5 -144l-51 -389h211l-14 -105h-211l-103 -782h-121l105 782h-162zM606 0l117 887h121l-117 -887h-121zM731 1214q0 38 26 64.5t64 26.5t64 -26.5 t26 -64.5t-26 -64t-64 -26t-64 26t-26 64z" />
<glyph unicode="&#xfb02;" horiz-adv-x="991" d="M45 782l14 105h160l53 399q21 155 69.5 220t162.5 65q78 0 141 -29l-16 -106q-70 26 -107 26q-63 0 -90.5 -42t-40.5 -144l-51 -389h211l-14 -105h-211l-103 -782h-121l105 782h-162zM606 0l205 1550h119l-203 -1550h-121z" />
</font>
</defs>
</svg>
